{"glyphs":{"0":{"ha":308,"x_min":0,"x_max":0,"o":"m 107 -165 b 183 -109 134 -165 159 -146 b 231 19 209 -65 225 -22 b 240 119 237 60 240 93 b 234 195 240 145 238 170 b 116 350 218 294 173 350 b 47 312 86 350 63 337 b 18 250 35 293 25 273 l 18 245 b 33 232 18 238 24 232 b 45 242 39 232 43 235 l 47 245 b 65 290 52 260 58 275 b 116 323 77 312 94 323 b 144 316 125 323 135 321 b 180 282 159 309 172 297 b 218 128 205 240 218 189 b 190 -42 218 65 208 9 b 120 -131 171 -93 148 -122 l 113 -132 b 67 -95 96 -132 80 -119 b 47 5 54 -70 47 -37 b 100 203 47 64 64 130 b 119 235 106 217 113 227 b 123 212 121 227 123 219 l 122 201 l 134 230 b 142 256 139 243 142 252 b 119 277 142 265 135 277 b 45 197 96 277 71 250 b 0 24 15 136 0 78 b 29 -111 0 -31 9 -76 b 107 -165 48 -146 74 -165 z "},"1":{"ha":210,"x_min":0,"x_max":0,"o":"m 61 -165 b 79 -153 70 -165 76 -161 b 117 92 85 -129 98 -47 b 142 323 134 212 142 290 b 126 350 142 343 136 350 b 103 319 117 350 109 340 b 33 252 82 290 58 268 l 1 227 l 0 224 b 3 221 0 222 1 221 l 4 221 b 79 263 41 237 66 250 b 93 272 86 269 91 272 b 95 268 94 272 95 271 b 90 230 95 262 93 250 b 60 27 81 181 71 113 b 43 -148 48 -64 43 -123 b 61 -165 43 -159 50 -165 z "},"2":{"ha":402,"x_min":0,"x_max":0,"o":"m 22 -165 b 77 -152 37 -165 56 -161 b 131 -121 98 -143 115 -132 b 188 -119 149 -119 168 -119 b 322 -130 231 -119 275 -122 b 334 -117 330 -130 334 -125 b 327 -109 334 -113 332 -111 b 189 -96 272 -100 227 -96 b 170 -97 180 -96 174 -96 b 159 -96 163 -97 159 -97 b 175 -81 159 -94 166 -90 b 309 163 242 -9 287 72 b 321 249 317 196 321 225 b 310 305 321 273 317 291 b 244 350 296 335 273 350 b 166 320 217 350 191 340 b 120 241 141 300 125 274 l 119 229 b 142 191 119 201 132 191 b 153 196 149 191 153 195 b 149 211 153 199 149 204 l 149 215 b 185 271 153 235 165 254 b 240 296 205 288 223 296 l 248 296 b 272 242 264 294 272 275 l 271 224 b 212 37 263 156 243 94 b 104 -98 180 -21 144 -66 l 102 -98 b 39 -106 81 -98 60 -101 b 0 -144 18 -112 5 -125 l 0 -146 b 22 -165 0 -159 7 -165 z "},"3":{"ha":329,"x_min":0,"x_max":0,"o":"m 153 -165 b 171 -164 159 -165 165 -165 b 261 -41 231 -153 261 -113 b 252 16 261 -23 258 -3 b 178 124 240 59 216 95 b 242 256 222 168 242 218 b 237 292 242 268 241 280 b 199 344 228 322 215 340 b 161 350 183 348 170 350 b 115 341 146 350 131 347 b 53 285 66 322 53 298 b 64 264 53 277 57 271 b 74 260 68 262 71 260 b 83 264 79 260 81 262 l 85 264 b 159 292 115 283 140 292 b 197 258 184 292 197 281 b 130 136 197 228 174 187 b 125 120 127 132 125 126 b 138 99 125 108 130 101 b 207 47 169 92 191 75 b 230 -32 222 19 230 -7 l 229 -46 b 197 -98 226 -77 215 -94 b 161 -105 180 -103 168 -105 b 39 -58 132 -105 91 -90 b 26 -55 34 -56 30 -55 b 12 -60 21 -55 16 -57 b 0 -88 4 -68 0 -77 b 13 -112 0 -98 4 -106 b 153 -165 69 -148 115 -165 z "},"4":{"ha":301,"x_min":0,"x_max":0,"o":"m 204 -165 b 226 -142 215 -165 225 -154 b 223 -91 226 -126 225 -109 b 219 -3 221 -70 220 -41 b 224 119 220 62 222 104 l 225 137 b 208 152 225 143 216 152 b 191 140 200 152 195 148 l 186 122 b 157 117 174 119 164 117 b 153 119 155 117 153 117 b 161 134 153 121 156 126 b 224 273 186 168 207 214 l 225 270 b 230 302 225 275 227 286 b 233 328 232 315 233 323 b 211 350 233 342 222 350 b 196 340 205 350 200 347 b 173 281 187 320 180 301 b 83 104 153 224 123 165 b 0 42 28 89 0 68 b 5 28 0 37 1 32 b 35 14 11 19 20 14 b 106 52 57 14 81 27 b 123 74 114 61 120 68 b 139 92 132 85 137 92 b 148 94 141 93 144 93 l 180 99 b 170 -22 173 59 170 18 b 183 -144 170 -81 174 -121 b 197 -165 189 -157 194 -164 b 204 -165 201 -165 203 -165 z m 38 56 b 56 68 38 58 44 62 b 42 58 51 64 46 60 z "},"5":{"ha":345,"x_min":0,"x_max":0,"o":"m 104 -165 b 227 -119 150 -165 191 -150 b 277 13 260 -90 277 -45 b 256 92 277 49 270 75 b 193 138 239 112 218 127 b 147 168 176 146 161 157 b 118 241 127 184 118 209 b 130 304 118 262 122 283 b 134 319 132 311 134 315 b 188 315 153 318 170 317 l 222 312 b 233 328 229 312 233 317 b 141 350 233 342 203 350 b 56 344 110 350 81 348 b 4 330 31 340 13 335 b 0 320 -1 326 0 322 b 9 309 0 314 3 310 b 48 298 22 307 35 304 l 56 295 b 35 310 41 304 35 309 b 89 318 35 311 53 313 b 92 317 91 318 92 317 l 89 311 b 68 237 75 297 68 272 l 68 222 b 107 122 73 174 86 140 b 175 82 128 104 151 90 b 233 31 214 68 233 50 l 233 6 b 202 -73 233 -24 223 -50 b 151 -104 181 -93 163 -104 b 121 -105 137 -105 127 -105 b 83 -101 108 -105 95 -104 b 57 -98 73 -99 64 -98 b 31 -123 40 -98 31 -106 b 59 -158 31 -139 40 -151 b 104 -165 73 -163 87 -165 z "},"6":{"ha":253,"x_min":0,"x_max":0,"o":"m 97 -165 b 170 -77 135 -165 159 -136 b 172 -47 171 -66 172 -56 b 144 23 172 -11 163 13 b 123 28 138 26 131 28 b 58 -7 105 28 83 16 l 57 -7 b 54 27 55 -7 54 4 b 68 123 54 52 58 83 b 153 289 83 180 111 235 b 171 306 162 300 168 306 b 173 300 172 306 173 304 b 169 279 173 295 169 280 l 170 281 b 185 335 180 305 185 323 b 172 350 185 345 180 350 b 128 326 161 350 146 342 b 57 235 104 305 81 275 b 11 119 33 194 18 155 b 0 31 3 81 0 52 b 16 -75 0 -3 5 -39 b 8 -111 11 -91 8 -102 b 27 -129 8 -123 14 -129 b 38 -125 31 -129 35 -127 b 97 -165 56 -152 76 -165 z m 108 -123 b 89 -115 101 -123 95 -121 b 66 -63 73 -100 66 -83 b 71 -43 66 -56 68 -49 b 125 3 92 -12 110 3 b 150 -35 142 3 150 -9 b 146 -71 150 -45 149 -57 b 124 -119 138 -100 131 -115 b 108 -123 117 -122 111 -123 z "},"7":{"ha":334,"x_min":0,"x_max":0,"o":"m 104 -165 b 124 -150 114 -165 121 -160 b 140 -83 128 -134 134 -113 b 177 60 153 -22 165 26 b 191 90 182 79 187 88 b 215 106 207 92 215 97 b 202 117 215 113 211 117 b 196 123 199 117 196 117 b 243 258 196 132 212 176 b 252 279 246 266 249 273 b 267 326 262 300 267 316 b 138 350 267 342 224 350 b 67 345 111 350 87 348 b 0 317 22 338 0 329 b 8 305 0 313 3 309 b 37 302 12 303 22 302 b 74 304 47 302 60 303 b 155 308 95 307 122 308 b 222 307 174 308 197 307 b 160 153 187 231 166 180 b 132 115 152 125 149 115 b 106 117 125 115 117 115 b 58 125 78 122 62 125 b 50 118 53 125 50 120 b 77 98 50 111 59 104 b 132 88 90 94 108 90 b 135 82 134 87 135 85 b 122 28 135 75 131 57 b 85 -145 106 -19 94 -77 b 104 -165 85 -159 92 -165 z "},"8":{"ha":288,"x_min":0,"x_max":0,"o":"m 68 -165 b 132 -132 92 -165 113 -155 b 164 -67 150 -110 161 -88 b 168 -23 167 -45 168 -31 b 149 68 168 6 161 36 b 161 81 153 71 157 76 b 220 245 199 144 219 199 b 189 332 220 285 210 313 b 142 350 175 344 159 350 b 57 278 104 350 76 326 b 50 232 52 262 50 246 b 87 125 50 201 62 165 b 19 30 54 99 32 67 b 0 -66 6 -7 0 -40 b 66 -165 0 -128 22 -161 z m 129 128 b 114 139 125 136 120 139 l 109 138 b 75 237 86 177 75 210 l 75 250 b 103 310 79 280 89 300 b 141 325 117 320 130 325 b 183 269 169 325 183 306 b 129 128 183 235 165 188 z m 82 -113 b 58 -104 73 -113 65 -110 b 52 -61 54 -90 52 -75 b 108 77 52 -20 71 26 b 124 54 108 63 116 54 l 127 54 b 142 -16 137 29 142 5 b 139 -45 142 -26 141 -36 b 82 -113 128 -90 109 -113 z "},"9":{"ha":296,"x_min":0,"x_max":0,"o":"m 100 -165 b 210 -57 155 -165 192 -130 b 227 50 220 -17 226 18 b 228 117 227 80 228 102 b 224 205 228 149 227 178 b 199 311 218 275 210 311 b 191 299 197 311 194 307 b 140 196 178 262 161 228 b 93 142 119 164 103 146 b 75 136 83 138 77 136 b 58 177 64 136 58 149 b 75 237 58 195 64 216 b 115 282 84 255 98 271 b 148 297 129 292 140 297 b 155 293 153 297 155 296 b 144 252 155 281 151 268 l 142 245 b 182 284 167 262 180 275 b 184 303 184 294 184 300 b 175 330 184 313 181 323 b 134 350 164 343 151 350 b 67 318 110 350 88 339 b 8 183 28 279 8 234 b 21 124 8 162 12 142 b 65 88 35 100 50 88 b 79 91 70 88 74 89 b 142 150 100 100 121 119 b 194 248 162 180 180 213 b 197 137 196 207 197 170 b 185 -9 197 75 193 26 b 140 -109 172 -64 157 -98 b 96 -125 123 -119 109 -125 b 71 -119 87 -125 79 -123 b 28 -84 51 -110 37 -98 b 16 -77 24 -79 20 -77 b 0 -93 4 -77 0 -87 b 2 -103 0 -96 1 -100 b 100 -165 22 -139 55 -160 z "},"\u0000":{"ha":0,"x_min":0,"x_max":0,"o":""},"\r":{"ha":347,"x_min":0,"x_max":0,"o":""}," ":{"ha":209,"x_min":0,"x_max":0,"o":""},"!":{"ha":176,"x_min":0,"x_max":0,"o":"m 18 35 b 28 44 24 35 28 38 b 95 439 34 197 56 329 b 109 494 104 466 109 484 b 87 520 109 503 100 520 b 52 476 75 520 64 505 b 30 395 45 458 37 431 b 4 124 13 311 4 221 b 12 36 4 68 7 39 b 18 35 15 35 17 35 z m 22 -60 b 39 -47 29 -58 35 -54 b 43 -34 42 -42 43 -38 b 40 -24 43 -31 42 -27 b 23 -14 35 -18 30 -14 b 0 -39 7 -18 0 -26 b 4 -51 0 -43 1 -47 b 18 -60 7 -57 12 -60 z "},"\"":{"ha":173,"x_min":0,"x_max":0,"o":"m 9 443 b 16 445 12 443 14 444 b 45 484 33 460 42 473 b 48 506 47 494 48 501 b 28 533 48 522 39 533 b 15 530 24 533 20 532 b 4 515 8 526 5 521 b 5 492 4 503 5 495 b 6 481 6 488 6 485 b 3 470 6 477 5 473 b 0 452 1 465 0 458 b 9 443 0 446 3 443 z m 63 444 b 96 474 74 444 85 454 b 105 505 102 486 105 496 b 85 526 105 519 98 526 b 57 488 71 526 62 513 b 50 458 52 473 50 463 b 63 444 50 448 54 444 z "},"#":{"ha":387,"x_min":0,"x_max":0,"o":"m 100 -31 b 111 -3 105 -31 109 -22 b 115 54 113 16 115 35 b 117 73 115 62 116 68 b 139 80 118 78 125 80 b 175 82 149 80 161 81 l 185 83 b 195 73 191 83 195 84 b 182 -5 195 62 190 40 b 193 -17 182 -13 186 -17 b 201 -10 197 -17 199 -15 b 216 54 209 19 214 41 b 229 84 220 73 224 83 b 248 85 232 85 238 85 l 288 85 b 319 95 309 85 319 88 b 276 108 318 102 304 106 l 230 109 l 230 110 l 231 122 l 245 176 b 304 175 264 176 284 176 b 309 180 307 175 309 177 b 304 187 309 184 307 186 b 268 189 288 188 276 189 b 247 193 254 189 247 191 b 250 201 247 195 248 197 b 261 261 257 216 261 236 l 261 274 b 235 298 260 292 245 298 b 212 281 223 298 216 292 b 204 230 207 259 204 242 b 205 203 204 218 205 209 l 206 197 b 174 189 206 189 203 189 l 133 188 b 132 192 132 189 132 190 b 136 218 132 197 134 207 l 140 239 b 138 260 140 249 140 256 b 117 275 130 279 119 275 b 92 243 102 275 94 264 b 87 189 88 225 87 207 b 62 182 87 185 79 182 b 2 162 32 180 12 174 b 0 157 1 161 0 159 b 7 149 0 153 3 151 b 13 148 9 148 11 148 l 20 150 b 86 165 33 155 54 161 l 85 99 l 69 97 b 5 83 26 90 5 85 b 1 75 3 81 1 78 b 19 68 1 70 7 68 b 36 69 24 68 30 68 l 43 70 b 75 75 58 72 69 75 b 83 72 79 75 81 74 b 85 47 85 70 85 62 b 87 -17 85 11 86 -10 b 100 -31 90 -26 94 -31 z m 123 103 b 120 106 121 103 120 104 l 123 134 b 180 175 124 173 127 174 l 204 176 b 195 109 204 133 201 111 b 183 107 192 108 188 107 l 178 107 b 132 104 161 107 145 106 z "},"$":{"ha":387,"x_min":0,"x_max":0,"o":"m 113 -179 b 119 -176 115 -179 117 -178 l 119 -174 b 127 -111 120 -153 123 -132 b 212 -52 184 -106 212 -87 b 199 -5 212 -39 208 -23 b 182 22 192 7 186 17 b 172 45 174 31 172 37 b 178 86 172 53 174 66 l 215 246 b 275 219 240 243 260 234 l 278 216 b 309 205 288 209 298 205 b 319 208 315 205 319 206 l 317 214 b 280 262 313 233 301 248 b 222 279 267 271 247 276 b 228 296 225 290 227 296 b 231 289 230 293 231 290 b 235 302 232 289 233 294 b 237 316 236 307 237 311 b 225 323 237 321 231 323 b 208 312 219 323 213 319 b 195 283 203 306 198 296 b 185 279 193 279 195 279 b 98 249 153 277 124 267 b 56 197 71 231 57 214 b 55 170 56 180 55 171 b 117 52 55 138 75 99 b 140 28 130 39 138 31 b 142 20 141 26 142 23 b 136 -8 142 15 140 5 b 116 -84 128 -31 121 -56 b 112 -96 114 -92 113 -96 l 106 -96 l 100 -96 b 28 -71 64 -95 40 -87 b 18 -66 26 -68 22 -66 b 0 -79 7 -66 0 -71 b 100 -113 10 -102 43 -113 l 111 -113 b 106 -155 107 -129 106 -143 b 107 -172 106 -163 106 -169 b 113 -179 108 -177 110 -179 z m 153 64 b 106 174 121 106 106 142 b 113 206 106 185 109 196 b 185 245 123 226 146 239 b 153 64 172 183 167 131 z m 130 -96 b 157 0 138 -64 146 -32 l 159 6 b 189 -58 179 -18 189 -39 b 130 -96 189 -79 170 -91 z "},"%":{"ha":399,"x_min":0,"x_max":0,"o":"m 41 -165 b 90 -143 53 -165 69 -158 b 186 -59 128 -117 160 -88 b 227 -83 194 -75 208 -83 b 250 -77 235 -83 242 -81 b 264 -53 259 -70 264 -62 b 220 -17 264 -33 249 -22 b 210 -11 220 -13 216 -11 b 198 -18 206 -11 202 -13 b 185 -28 189 -20 185 -23 l 186 -31 b 130 -81 170 -48 151 -64 b 45 -134 86 -114 53 -134 l 44 -134 b 42 -121 43 -130 42 -126 b 97 -3 42 -96 60 -57 b 135 52 113 22 126 41 b 244 204 176 109 212 159 b 330 322 279 254 307 293 b 331 325 330 323 331 324 b 321 333 331 330 328 333 l 318 333 b 211 322 289 326 253 322 b 123 336 174 322 144 327 b 97 352 116 347 107 352 b 86 346 90 352 86 350 b 102 328 86 341 92 335 b 104 321 104 326 104 323 b 100 310 104 317 103 313 b 81 296 95 304 89 299 l 71 292 b 70 292 70 292 70 292 l 72 296 b 83 316 78 302 81 309 b 59 338 83 330 75 338 b 47 336 56 338 52 337 b 17 314 28 330 18 323 b 14 298 15 305 14 300 b 35 269 14 287 21 277 b 60 264 43 265 52 264 b 95 273 71 264 83 267 b 129 317 116 283 127 298 b 217 308 151 311 180 308 b 298 314 242 308 269 310 b 92 57 256 269 187 182 b 0 -119 31 -22 0 -81 b 9 -149 0 -130 3 -140 b 41 -165 16 -160 27 -165 z m 59 294 l 58 294 b 56 298 58 295 56 296 b 58 304 56 302 57 304 b 60 295 58 304 60 301 b 60 294 60 294 60 294 z m 226 -65 b 209 -57 218 -65 213 -62 b 205 -46 206 -54 205 -50 b 206 -39 205 -44 205 -41 l 214 -38 b 235 -45 224 -38 231 -41 b 239 -53 238 -47 239 -50 b 234 -62 239 -56 237 -59 b 226 -65 232 -64 229 -65 z "},"&":{"ha":358,"x_min":0,"x_max":0,"o":"m 281 -56 b 290 -49 288 -56 290 -54 b 271 -18 290 -41 284 -31 b 214 38 262 -11 243 8 b 229 113 224 69 229 94 b 225 138 229 123 228 131 b 205 155 220 149 213 155 b 189 149 200 155 195 153 b 185 143 186 147 185 145 b 197 133 185 135 194 133 b 205 137 200 133 203 137 b 211 119 209 137 211 131 b 201 60 211 101 208 81 b 199 58 200 59 199 58 b 155 111 193 58 178 76 b 98 201 131 145 112 175 b 149 263 115 222 132 243 b 268 479 228 358 268 430 l 267 491 b 189 555 258 530 231 551 b 98 522 159 555 129 544 b 15 353 43 485 15 429 b 54 196 15 307 28 255 b 0 66 18 146 0 102 b 34 -18 0 28 12 0 b 106 -45 56 -36 80 -45 b 195 1 142 -45 172 -30 b 259 -50 227 -28 248 -45 b 281 -56 270 -54 277 -56 z m 84 233 b 55 362 64 281 55 325 b 60 404 55 377 56 391 b 116 505 71 450 90 484 b 191 536 142 526 168 536 b 248 486 224 536 243 519 l 248 483 b 206 376 248 450 234 414 b 117 269 178 338 149 302 b 84 233 104 256 94 244 z m 116 -16 b 88 -12 107 -16 98 -15 b 35 64 54 6 36 31 b 71 162 35 91 47 123 b 126 77 92 125 111 97 b 177 16 157 38 177 24 b 159 -3 176 11 171 5 b 116 -16 146 -12 132 -16 z "},"'":{"ha":124,"x_min":0,"x_max":0,"o":"m 13 466 b 44 486 26 466 37 473 b 56 537 52 502 56 519 b 31 581 56 566 48 581 b 10 566 21 581 14 576 b 7 547 8 559 7 553 b 12 517 7 534 8 524 b 16 496 14 509 16 502 b 8 486 16 490 13 486 b 0 475 3 484 0 481 b 13 466 0 469 4 466 z "},"(":{"ha":256,"x_min":0,"x_max":0,"o":"m 159 -373 b 170 -355 166 -371 170 -365 b 168 -346 170 -352 169 -349 b 59 28 100 -193 64 -68 b 52 200 54 123 52 181 b 153 677 52 366 85 524 b 164 699 159 691 163 699 b 165 697 165 699 165 698 b 159 667 165 694 160 672 b 178 695 164 680 170 689 b 188 714 184 701 188 707 l 187 720 b 158 772 181 754 172 772 b 136 759 152 772 144 768 b 60 600 111 733 85 680 b 11 366 34 519 18 441 b 0 195 3 291 0 234 b 20 -35 0 119 7 43 b 149 -369 40 -155 83 -266 b 157 -374 151 -372 153 -374 z "},")":{"ha":292,"x_min":0,"x_max":0,"o":"m 61 -374 b 141 -317 85 -374 112 -355 b 224 -10 188 -255 216 -153 l 224 28 b 202 286 224 111 217 197 b 140 564 185 390 164 483 b 75 729 115 644 94 699 b 27 773 55 758 39 773 b 3 758 13 773 5 768 b 0 737 1 748 0 741 b 11 705 0 726 3 715 b 142 315 65 634 109 504 b 176 22 165 197 176 99 b 138 -204 176 -71 163 -146 b 54 -341 115 -255 87 -300 b 45 -360 48 -349 45 -355 b 61 -374 45 -369 51 -374 z "},"*":{"ha":179,"x_min":0,"x_max":0,"o":"m 56 473 b 63 495 60 473 63 480 l 62 512 b 97 488 78 496 90 488 b 106 495 100 488 104 490 b 108 500 107 497 108 498 b 87 523 108 506 101 513 l 77 530 l 84 530 b 111 537 102 530 111 532 b 87 544 111 543 104 544 l 98 557 l 99 557 l 104 559 b 107 553 106 559 107 557 l 108 553 b 111 564 110 555 111 559 b 95 578 111 572 103 578 b 54 557 85 578 71 571 b 38 591 46 580 41 591 l 39 577 b 41 563 41 571 41 566 b 40 559 41 559 41 559 b 29 566 38 559 35 561 b 3 583 14 577 5 583 l 0 581 l 0 577 b 24 548 12 562 20 551 b 26 545 26 546 26 545 l 22 545 b 10 545 20 545 16 545 b 7 544 9 545 8 545 l 7 541 b 23 535 7 538 13 536 l 29 534 l 29 534 b 7 491 15 515 7 501 l 7 490 b 21 475 8 480 12 475 b 47 494 29 475 38 481 b 56 473 47 479 51 473 z "},"+":{"ha":223,"x_min":0,"x_max":0,"o":"m 69 -60 b 85 -39 75 -60 81 -54 b 97 34 93 -16 97 8 b 99 45 97 41 98 44 b 107 44 102 45 105 45 l 137 43 b 155 56 149 43 155 47 b 103 71 155 66 138 71 b 94 103 94 71 98 72 b 65 159 88 140 79 159 b 52 153 60 159 55 157 b 45 124 44 145 45 138 b 54 68 46 113 50 98 b 0 41 18 62 0 54 l 0 40 b 14 24 1 30 5 24 b 19 26 18 24 19 25 l 16 26 b 12 33 13 26 12 28 b 14 38 12 35 13 37 b 56 43 18 41 33 43 b 60 -23 58 14 60 -9 b 62 -56 60 -42 60 -53 b 67 -60 64 -58 66 -60 z "},",":{"ha":121,"x_min":0,"x_max":0,"o":"m 11 -201 b 29 -193 16 -201 22 -199 l 28 -193 l 31 -192 b 53 -132 42 -180 53 -159 b 47 -104 53 -121 51 -112 b 33 -89 41 -94 37 -90 l 26 -88 b 11 -105 20 -88 14 -94 b 8 -125 9 -111 8 -117 b 13 -165 8 -136 9 -150 b 5 -186 13 -174 10 -180 b 0 -193 2 -189 0 -191 b 11 -201 0 -203 9 -201 z "},"-":{"ha":357,"x_min":0,"x_max":0,"o":"m 279 2 b 289 12 286 3 289 6 b 282 20 289 17 287 20 b 140 39 261 25 214 31 b 30 48 83 45 45 48 b 20 47 24 48 20 47 b 0 24 7 46 0 39 b 14 7 0 16 5 10 b 155 3 26 6 73 5 z "},".":{"ha":120,"x_min":0,"x_max":0,"o":"m 24 -194 b 52 -166 38 -194 52 -182 b 31 -142 52 -157 45 -149 l 26 -142 b 0 -170 9 -142 0 -152 l 0 -174 b 16 -193 5 -186 11 -193 b 24 -194 20 -194 23 -194 z "},"/":{"ha":419,"x_min":0,"x_max":0,"o":"m 14 -146 b 36 -115 20 -146 27 -136 l 47 -85 b 279 446 74 -9 151 168 l 338 574 b 351 617 347 595 351 609 b 347 629 351 621 350 625 b 330 639 342 635 337 639 b 311 628 323 639 317 635 b 137 229 282 585 224 452 b 0 -133 45 -3 0 -124 b 14 -146 0 -140 5 -146 z "},":":{"ha":115,"x_min":0,"x_max":0,"o":"m 20 53 b 46 73 41 53 46 67 b 39 90 46 78 44 83 b 24 98 35 95 29 98 b 18 96 22 98 20 97 b 0 74 6 93 0 85 b 20 53 0 65 7 53 z m 28 -14 b 48 7 41 -14 48 -7 b 28 28 48 21 41 28 b 7 7 14 28 7 21 b 28 -14 7 -7 14 -14 z "},";":{"ha":125,"x_min":0,"x_max":0,"o":"m 33 96 b 44 99 37 96 41 97 b 58 122 53 104 58 112 b 45 144 58 130 54 136 b 32 147 41 146 36 147 b 20 144 28 147 24 146 b 7 121 12 139 7 132 b 19 100 7 114 11 107 b 33 96 24 97 28 96 z m 18 -16 b 46 -1 30 -16 39 -11 b 54 22 52 5 54 14 b 46 52 54 35 52 45 b 34 60 43 58 39 60 b 21 40 20 60 21 47 l 21 30 b 14 12 21 20 18 14 b 0 -1 5 12 0 7 b 3 -10 0 -5 1 -7 b 18 -16 7 -14 12 -16 z "},"<":{"ha":262,"x_min":0,"x_max":0,"o":"m 176 -58 b 191 -50 184 -58 189 -55 b 195 -41 193 -46 195 -43 b 149 18 195 -31 179 -12 b 71 76 115 50 90 68 b 62 81 65 78 62 79 b 75 93 62 83 66 87 b 144 159 86 102 110 123 b 163 180 148 161 155 171 b 178 199 173 191 178 197 b 178 203 178 201 178 202 b 166 217 178 210 174 215 l 164 217 b 115 190 154 217 137 208 b 44 125 90 170 66 149 b 0 70 15 95 0 77 b 12 56 0 61 4 56 b 47 65 18 56 28 65 b 132 -9 65 65 94 41 b 176 -58 153 -41 168 -58 z "},"=":{"ha":363,"x_min":0,"x_max":0,"o":"m 145 48 b 236 50 178 48 209 49 b 285 50 263 50 279 50 b 296 62 292 51 296 58 b 288 71 296 66 293 70 b 113 92 239 81 180 87 b 56 96 87 94 67 96 b 12 80 28 96 13 90 l 12 73 b 22 54 12 64 16 58 b 113 48 22 50 52 48 z m 266 -43 b 283 -26 277 -43 283 -37 b 267 -9 283 -16 277 -10 b 193 -3 256 -7 231 -5 b 59 1 136 0 92 1 b 7 -3 32 1 15 0 b 0 -15 3 -7 0 -10 b 10 -31 0 -23 3 -28 b 176 -43 24 -37 79 -41 l 238 -43 z "},">":{"ha":282,"x_min":0,"x_max":0,"o":"m 18 -118 b 70 -57 27 -117 45 -97 b 138 32 87 -29 109 0 b 171 58 154 50 165 58 b 181 54 174 58 177 57 b 199 47 187 50 193 47 b 205 48 201 47 203 47 b 214 65 211 52 214 57 b 214 73 214 68 214 71 b 191 99 213 75 205 83 b 39 247 149 143 54 235 b 25 253 36 251 31 253 b 3 234 9 253 3 242 b 5 223 3 231 3 227 b 47 172 16 206 29 189 b 129 92 86 130 113 104 b 147 73 141 83 147 77 b 133 60 147 70 142 65 b 89 24 123 54 109 42 b 26 -45 60 -4 39 -27 b 3 -85 12 -64 5 -77 b 0 -100 1 -92 0 -97 b 16 -118 0 -111 5 -118 z "},"?":{"ha":369,"x_min":0,"x_max":0,"o":"m 45 -12 b 62 3 57 -12 62 -7 l 62 5 b 61 23 62 11 61 17 b 67 60 61 36 63 48 b 107 122 73 79 86 99 b 301 488 237 267 301 389 b 300 510 301 495 300 503 b 255 597 294 551 279 581 b 183 622 231 614 207 622 b 161 620 176 622 169 621 b 54 549 118 611 82 587 b 6 448 26 511 9 477 b 0 387 2 418 0 397 b 25 287 0 351 8 317 b 68 260 37 269 52 260 b 94 281 85 260 94 267 b 93 283 94 283 94 283 l 92 283 b 62 322 79 283 70 296 b 55 384 58 340 55 361 b 92 517 55 435 67 479 b 182 580 111 549 141 570 b 196 581 186 581 191 581 b 253 549 218 581 237 570 b 271 482 264 532 271 510 b 264 422 271 465 269 444 b 198 275 249 364 227 315 b 111 171 169 235 140 200 b 24 28 53 111 24 69 b 37 -10 24 5 28 -8 b 45 -12 41 -12 43 -12 z m 40 -105 b 55 -98 45 -105 50 -102 b 64 -79 61 -93 64 -87 b 46 -54 64 -67 58 -59 b 40 -54 45 -54 43 -54 b 15 -76 16 -57 15 -70 b 18 -88 15 -80 16 -84 b 40 -105 24 -100 31 -105 z "},"@":{"ha":486,"x_min":0,"x_max":0,"o":"m 180 -184 b 227 -177 195 -184 211 -182 b 325 -111 267 -165 299 -144 b 363 13 350 -77 363 -37 b 355 31 363 23 360 29 b 418 159 397 60 418 103 b 410 213 418 177 415 195 b 266 319 391 281 334 319 b 92 240 200 319 142 293 b 0 24 31 176 0 104 b 19 -73 0 -9 6 -41 b 98 -164 41 -121 68 -151 b 180 -184 129 -177 156 -184 z m 195 -151 b 177 -149 189 -151 183 -150 b 86 -92 138 -142 109 -123 b 52 22 64 -62 52 -24 b 98 166 52 74 68 122 b 186 248 125 204 154 231 b 272 273 218 265 246 273 b 298 271 281 273 290 273 b 368 222 332 262 355 246 b 387 155 380 199 387 176 b 341 58 387 114 372 81 b 315 48 332 52 323 48 b 297 53 309 48 302 50 b 273 94 284 60 276 74 b 279 132 275 102 277 115 b 277 154 279 144 278 152 b 286 178 283 161 286 170 b 283 193 286 182 285 188 b 235 223 273 213 258 223 b 147 127 198 223 169 191 b 136 60 140 102 136 79 b 146 17 136 43 139 28 b 190 -12 157 -3 172 -12 b 261 52 219 -12 243 9 b 311 19 275 30 292 19 b 332 21 320 19 327 20 b 339 22 336 22 338 22 b 342 20 341 22 342 22 b 319 -64 341 -8 334 -36 b 195 -151 290 -119 243 -151 z m 202 28 b 187 54 193 28 188 37 b 198 115 187 74 191 94 b 239 174 212 156 230 174 b 248 169 242 174 245 172 l 248 165 b 253 153 248 161 250 157 b 255 150 254 153 255 152 b 243 77 246 114 248 96 b 227 45 240 68 235 57 b 202 28 218 34 210 28 z "},"A":{"ha":675,"x_min":0,"x_max":0,"o":"m 571 -274 b 581 -272 574 -274 578 -273 b 595 -216 587 -269 591 -250 b 604 -13 598 -175 601 -107 l 611 254 l 765 257 b 772 264 770 258 772 260 b 771 268 772 266 772 267 b 765 272 770 271 768 272 b 612 271 696 272 646 272 l 617 456 b 622 665 621 570 622 640 l 620 637 b 615 585 618 602 616 585 l 616 746 b 601 762 615 757 610 762 b 583 751 592 762 587 758 b 366 266 515 587 442 426 b 264 261 317 264 283 262 b 244 260 255 260 248 260 b 239 261 241 260 239 260 b 256 268 239 262 244 264 b 341 302 273 274 302 286 l 293 286 b 205 258 269 277 240 268 b 39 235 126 252 71 245 b 1 212 14 227 1 219 l 1 211 b 16 201 1 205 10 201 b 109 221 53 208 84 215 b 172 233 129 226 150 230 b 355 243 210 236 271 239 b 258 41 316 161 283 94 b 139 -215 210 -56 170 -142 b 138 -220 138 -217 138 -218 b 140 -228 138 -223 138 -226 b 152 -234 144 -232 147 -234 b 161 -228 155 -234 159 -232 b 393 245 231 -102 309 56 b 559 252 448 248 504 250 b 549 -174 553 43 549 -99 b 555 -260 549 -219 551 -248 b 568 -273 557 -269 562 -273 b 568 -274 568 -273 568 -273 z m 404 267 b 516 526 453 377 491 464 b 571 639 547 601 565 639 b 575 610 574 639 575 629 b 570 516 575 589 574 558 b 559 270 567 456 563 374 z "},"B":{"ha":701,"x_min":0,"x_max":0,"o":"m 286 -336 b 366 -329 311 -336 338 -334 b 564 -233 444 -313 510 -281 b 654 -50 617 -185 647 -124 b 625 49 654 -16 644 17 b 471 153 597 96 547 130 b 429 163 451 159 437 162 b 420 165 423 163 420 164 b 429 170 420 165 423 168 b 522 243 442 176 473 200 b 642 411 594 312 634 368 b 653 500 649 454 653 484 b 614 629 653 548 640 591 b 465 736 581 681 530 717 b 385 747 438 743 412 747 b 233 707 334 747 283 733 b 63 511 159 667 102 602 b 41 401 49 471 41 435 b 45 363 41 389 43 376 b 85 304 52 324 66 304 l 90 305 b 113 340 112 313 113 332 b 111 353 113 345 112 349 b 99 364 108 361 104 364 l 97 364 b 92 410 94 380 92 395 b 106 492 92 437 97 464 b 167 609 120 536 140 574 b 384 724 218 673 291 711 b 509 690 429 724 470 713 b 629 495 589 644 629 578 b 600 378 629 458 619 420 b 392 182 568 311 498 245 b 338 166 375 172 357 166 b 260 150 315 165 290 159 b 255 149 258 149 256 149 b 253 151 254 149 253 149 b 256 168 253 155 254 161 b 285 500 274 227 283 338 b 281 536 285 524 283 536 b 268 553 278 547 273 552 b 258 553 262 553 259 553 b 237 536 250 553 242 547 b 232 458 234 526 232 500 l 232 451 b 216 131 232 395 227 288 b 205 117 208 127 205 123 b 213 103 205 111 208 106 b 195 82 212 87 208 85 b 122 50 181 79 159 72 b 12 -123 57 9 20 -48 b 39 -214 12 -155 21 -185 b 147 -307 64 -257 100 -288 b 286 -336 193 -326 239 -336 z m 269 -301 b 109 -262 208 -301 155 -288 b 28 -127 60 -233 33 -189 l 28 -122 b 74 -9 28 -83 43 -45 b 210 72 106 28 151 55 b 197 -45 207 33 202 -6 l 197 -47 b 208 -58 197 -54 200 -58 b 216 -50 212 -58 214 -55 b 241 79 224 -7 233 35 b 293 83 258 82 276 83 b 472 27 354 83 414 64 b 477 26 474 26 475 26 b 485 35 482 26 485 29 b 481 42 485 38 484 40 b 364 92 434 71 395 88 b 292 96 333 95 309 96 b 266 95 282 96 273 96 l 253 94 b 245 97 248 94 245 95 l 257 97 b 319 112 279 97 300 102 b 372 126 336 121 353 126 b 411 123 382 126 395 125 b 570 47 493 107 546 81 b 605 -51 593 12 605 -21 b 594 -110 605 -70 602 -90 b 471 -249 570 -170 530 -216 b 330 -299 413 -281 366 -298 b 269 -301 294 -300 273 -301 z "},"C":{"ha":640,"x_min":0,"x_max":0,"o":"m 279 -353 b 392 -323 315 -353 353 -343 b 564 -159 460 -286 518 -231 b 654 70 609 -86 639 -10 b 647 77 654 75 652 77 b 642 73 644 77 642 76 b 560 -134 629 -1 602 -70 b 424 -281 519 -199 473 -248 b 281 -332 374 -315 327 -332 b 252 -330 271 -332 262 -331 b 103 -212 182 -315 133 -275 b 58 10 73 -149 58 -75 b 107 313 58 108 75 209 b 231 572 138 410 179 496 b 396 701 292 658 347 701 b 467 572 443 701 467 658 b 465 534 467 560 466 547 b 473 526 465 529 468 526 b 478 528 475 526 476 527 b 514 614 502 551 514 579 b 460 734 514 665 496 705 b 391 757 437 749 414 757 b 336 743 373 757 355 752 b 213 634 294 722 252 686 b 109 460 173 582 138 524 b 12 45 44 322 12 184 b 16 -33 12 18 13 -8 b 89 -245 26 -121 51 -191 b 199 -339 126 -298 163 -330 b 279 -353 234 -349 260 -353 z "},"D":{"ha":844,"x_min":0,"x_max":0,"o":"m 230 -323 b 287 -318 248 -323 267 -321 b 505 -221 359 -304 432 -272 b 702 -34 577 -170 643 -108 b 832 188 761 41 804 114 b 874 390 860 262 874 329 b 871 442 874 408 873 425 b 761 645 862 520 825 587 b 538 724 704 696 629 722 b 341 676 469 724 404 708 b 180 522 272 641 218 589 b 146 397 157 476 146 435 b 175 305 146 353 155 322 b 229 281 193 290 210 281 b 269 290 241 281 254 284 b 300 334 290 300 300 315 b 298 340 300 338 300 340 b 290 334 297 340 294 338 b 251 317 277 323 264 317 b 217 334 241 317 229 323 b 194 396 201 351 194 372 b 212 483 194 424 200 453 b 337 636 237 547 279 599 b 479 694 395 673 441 692 b 542 697 515 696 536 697 b 715 646 604 697 661 680 b 824 513 777 604 813 559 b 840 399 835 467 840 429 b 823 275 840 359 834 317 b 722 55 802 200 768 127 b 558 -138 675 -17 620 -81 b 380 -257 496 -194 437 -233 b 231 -292 324 -280 274 -292 b 170 -285 210 -292 190 -290 b 53 -212 106 -269 67 -244 b 31 -127 38 -179 31 -151 b 45 -54 31 -103 35 -79 b 155 83 64 -3 101 43 b 361 159 208 123 277 149 b 352 -15 359 96 355 39 b 349 -83 351 -33 349 -56 b 361 -94 349 -90 353 -94 b 371 -85 366 -94 370 -92 b 379 -20 374 -68 376 -46 b 400 161 382 13 389 73 l 409 161 b 657 83 499 161 582 135 b 663 81 659 81 661 81 b 667 82 664 81 665 81 b 671 92 670 84 671 87 b 667 100 671 95 670 98 b 416 181 585 154 501 181 l 413 181 b 403 182 406 181 403 181 b 431 450 421 337 431 426 l 431 451 b 406 477 429 468 421 477 b 380 451 391 477 383 468 b 362 178 372 362 366 271 b 161 111 283 169 216 147 b 44 -8 106 75 67 35 b 9 -129 20 -52 9 -92 b 91 -282 9 -192 36 -243 b 230 -323 134 -310 180 -323 z "},"E":{"ha":714,"x_min":0,"x_max":0,"o":"m 380 -342 b 729 65 471 -342 587 -207 l 730 68 b 724 75 730 71 727 75 b 718 71 722 75 720 73 b 534 -222 654 -58 592 -157 b 389 -321 477 -288 428 -321 b 317 -251 347 -321 323 -298 b 307 -146 311 -204 307 -169 b 343 134 307 -75 319 18 b 428 158 394 146 407 148 b 432 163 431 159 432 161 b 424 172 432 169 429 172 l 417 172 b 369 166 396 172 380 170 b 357 164 364 165 360 164 b 351 170 353 164 351 166 b 366 225 351 176 356 195 b 441 432 395 323 420 392 b 488 509 460 469 476 494 b 513 563 502 528 511 541 b 814 600 630 587 731 600 b 926 583 859 600 896 594 l 930 582 b 937 587 935 582 937 584 b 918 604 937 593 930 599 b 821 618 897 613 865 618 b 511 584 745 618 641 606 b 487 603 507 597 498 603 b 455 573 477 603 466 593 b 220 513 368 555 290 535 b 79 464 151 491 104 475 b 12 414 38 444 16 427 b 7 391 9 401 7 394 b 34 370 7 376 16 370 b 130 425 56 370 88 388 l 130 425 l 108 418 b 80 412 93 414 83 412 b 78 412 79 412 78 412 b 100 427 78 414 85 420 b 224 479 132 444 173 461 b 355 523 274 498 317 512 l 376 530 b 435 545 411 540 431 545 b 437 543 437 545 437 545 b 433 533 437 541 436 538 l 428 524 b 305 194 366 401 325 291 b 290 151 299 166 294 152 b 196 127 260 144 228 136 b 151 100 160 116 151 110 b 166 82 151 87 160 82 b 205 92 170 82 183 85 b 232 101 218 97 231 100 b 261 111 243 104 254 108 b 283 118 271 116 278 118 b 288 110 286 118 288 115 b 285 84 288 104 287 96 b 273 -24 281 63 277 26 b 271 -88 271 -47 271 -68 b 315 -304 271 -188 286 -260 b 380 -342 333 -330 355 -342 z "},"F":{"ha":647,"x_min":0,"x_max":0,"o":"m 465 -405 b 479 -393 475 -403 479 -399 b 470 -386 479 -390 476 -388 b 450 -334 456 -381 450 -363 b 547 89 450 -258 482 -117 b 575 90 557 89 567 90 b 590 100 585 91 590 94 b 565 111 590 107 582 111 l 556 111 l 556 112 b 569 157 556 116 560 131 b 656 576 627 330 656 469 b 634 707 656 630 649 674 b 476 811 610 770 557 805 b 356 783 439 811 399 802 b 185 667 296 758 239 719 b 56 484 132 614 88 553 b 8 279 24 412 8 344 b 111 136 8 189 42 141 b 160 157 130 136 146 143 b 177 185 172 170 177 179 b 176 186 177 186 177 186 b 173 184 176 186 175 186 b 140 170 164 174 153 170 b 86 195 121 170 103 178 b 60 256 72 209 63 229 l 59 286 b 109 498 59 361 76 432 b 256 686 147 573 196 635 b 402 775 315 736 363 766 b 482 789 440 784 467 789 b 578 751 519 789 551 777 b 625 600 609 722 625 672 b 580 343 625 532 610 446 b 513 134 559 269 536 200 l 507 113 b 387 108 443 113 403 111 b 366 85 373 103 366 96 b 372 72 366 81 368 77 b 379 68 374 70 376 68 b 405 73 385 68 391 73 l 418 72 b 420 73 419 72 420 73 l 419 75 b 408 79 412 77 408 79 b 480 85 408 81 432 83 b 495 86 488 85 492 86 b 497 85 496 86 497 85 l 495 78 b 434 -138 467 -7 446 -79 b 414 -258 421 -197 414 -237 b 412 -300 413 -279 412 -294 b 461 -406 412 -370 429 -406 z "},"G":{"ha":640,"x_min":0,"x_max":0,"o":"m 269 -416 b 478 -267 349 -416 418 -366 b 562 43 521 -195 549 -92 b 654 75 585 52 615 63 b 659 81 657 76 659 78 b 652 90 659 85 656 90 b 563 57 648 90 618 79 b 566 135 565 86 566 112 b 551 248 566 188 561 225 b 500 286 539 273 523 286 b 374 235 475 286 433 269 b 231 168 330 209 282 186 b 143 153 197 158 168 153 b 88 165 121 153 103 157 b 41 250 57 182 41 210 b 95 402 41 294 59 345 b 195 514 117 438 151 475 b 317 595 239 553 279 579 b 409 617 355 610 385 617 b 474 603 431 617 453 612 b 567 456 516 584 547 535 b 579 446 568 450 572 446 b 590 452 585 446 588 448 b 600 498 596 467 600 482 b 589 552 600 515 596 533 b 520 638 575 589 552 618 b 416 668 488 658 453 668 b 367 663 401 668 384 667 b 165 551 309 653 241 616 b 56 420 120 511 84 468 b 11 310 28 373 14 336 b 6 259 7 283 6 267 b 33 172 6 225 15 196 b 135 125 60 140 94 125 b 280 158 180 125 228 136 b 401 216 326 178 366 197 l 443 238 b 495 256 467 250 484 256 b 505 254 499 256 503 256 b 519 190 515 250 519 228 l 520 155 b 513 36 520 115 517 76 b 231 -142 379 -24 286 -83 b 150 -296 177 -200 150 -252 b 269 -416 157 -361 197 -401 z m 257 -377 b 231 -373 248 -377 239 -376 b 174 -295 199 -363 180 -336 b 205 -209 174 -270 184 -241 b 323 -89 236 -164 275 -124 b 448 -8 371 -53 412 -26 b 509 20 483 11 503 20 b 511 19 509 20 510 20 b 435 -233 494 -89 469 -172 b 338 -350 402 -293 370 -332 b 257 -377 306 -368 279 -377 z "},"H":{"ha":615,"x_min":0,"x_max":0,"o":"m 479 -387 b 488 -376 484 -386 488 -380 b 497 -230 488 -321 491 -273 b 532 -26 504 -182 515 -113 b 597 347 548 60 570 184 b 671 471 635 393 660 433 b 686 568 681 507 686 540 b 673 669 686 602 682 635 l 670 682 b 658 694 668 690 664 694 b 598 614 637 694 616 668 b 544 338 587 578 569 486 l 543 328 b 393 239 496 289 446 259 b 234 190 339 218 286 202 b 271 390 246 248 258 315 b 292 555 286 476 292 532 b 253 684 292 618 279 661 b 201 705 237 698 219 705 b 165 696 189 705 178 702 b 119 653 143 685 127 671 b 106 607 111 635 106 620 b 146 550 106 577 120 558 b 155 549 150 549 153 549 b 184 566 169 549 184 561 l 178 566 b 155 596 163 566 155 576 b 161 622 155 604 157 613 b 194 652 167 636 178 646 b 203 653 197 652 200 653 b 239 562 227 653 239 623 b 191 231 239 494 223 384 l 180 175 b 85 134 146 165 114 151 b 10 54 35 106 10 79 b 20 27 10 45 14 36 b 39 18 26 21 33 18 b 54 23 47 18 54 20 l 54 23 b 35 33 41 23 35 26 b 33 43 34 39 33 42 b 61 83 33 54 43 67 b 170 137 81 101 117 119 l 163 83 b 106 -202 144 -29 125 -124 b 118 -214 106 -210 110 -214 b 125 -208 121 -214 124 -212 b 150 -127 134 -178 142 -151 b 226 154 182 -21 208 73 b 387 203 290 171 344 188 b 536 288 435 222 485 250 b 463 -310 487 0 463 -199 b 479 -387 463 -361 468 -387 z m 606 399 b 638 595 624 512 635 578 b 653 642 642 614 647 630 b 663 577 659 623 663 601 b 606 399 663 515 644 456 z "},"I":{"ha":397,"x_min":0,"x_max":0,"o":"m 168 -380 b 208 -258 175 -380 188 -340 b 260 -71 224 -193 242 -131 b 327 161 283 -1 304 77 b 373 419 349 246 364 332 b 375 475 374 439 375 458 b 344 634 375 544 365 597 b 244 703 319 680 286 703 b 115 632 200 703 157 679 b 16 425 73 585 40 515 b 3 297 7 387 3 345 b 42 162 3 224 16 180 b 65 156 50 158 58 156 b 77 158 69 156 73 157 b 100 177 88 162 96 168 b 103 188 102 180 103 184 b 101 197 103 191 102 195 l 100 197 b 85 180 100 187 92 180 b 65 201 78 180 71 186 b 53 300 57 220 53 253 b 132 576 53 398 79 490 b 240 665 172 635 208 665 b 250 665 243 665 247 665 b 322 572 286 658 309 627 b 329 492 327 547 329 521 b 241 41 329 393 300 242 l 240 35 b 159 -349 186 -160 159 -288 b 163 -378 159 -366 160 -376 b 168 -380 165 -380 168 -380 z "},"J":{"ha":490,"x_min":0,"x_max":0,"o":"m 113 -392 b 328 -190 188 -392 259 -325 b 441 175 389 -60 427 62 b 461 474 454 288 461 388 b 454 645 461 531 459 588 b 552 678 500 650 532 661 b 581 725 571 695 581 711 b 536 755 581 745 566 755 b 515 742 513 755 515 745 b 524 734 515 736 517 734 l 536 734 b 564 720 555 734 564 730 b 536 684 564 708 555 696 b 456 662 517 671 490 664 b 462 676 460 666 462 671 b 444 699 462 688 456 695 l 437 700 b 418 693 430 700 424 698 b 403 665 410 687 405 677 b 347 675 385 667 366 671 b 226 692 298 686 258 692 b 171 688 208 692 190 690 b 39 633 101 674 57 656 b 13 574 22 610 13 590 b 18 552 13 567 15 559 b 60 524 27 533 41 524 b 84 534 70 524 78 527 b 90 547 88 538 90 543 b 87 549 90 548 90 549 l 84 549 b 64 571 76 549 64 559 b 135 634 64 592 88 613 b 257 661 175 651 216 660 b 340 652 284 660 312 657 b 403 646 361 650 382 648 b 408 479 406 589 408 534 b 401 292 408 416 406 353 b 338 -56 394 178 373 62 b 224 -296 300 -170 262 -250 b 119 -365 185 -342 150 -365 b 54 -338 87 -365 66 -356 b 37 -292 43 -320 37 -304 b 43 -264 37 -283 39 -273 b 45 -258 44 -262 45 -260 b 43 -252 45 -256 44 -254 b 31 -245 39 -248 35 -245 b 20 -252 26 -245 23 -248 b 10 -292 14 -265 10 -279 b 20 -334 10 -306 14 -319 b 113 -392 39 -372 71 -392 z "},"K":{"ha":363,"x_min":0,"x_max":0,"o":"m 397 -451 b 450 -438 416 -451 433 -447 b 494 -385 472 -427 486 -410 l 494 -382 b 486 -375 494 -378 492 -375 b 477 -380 482 -375 479 -377 b 448 -418 472 -398 462 -410 b 410 -429 433 -425 420 -429 b 361 -416 395 -429 379 -425 b 264 -307 330 -401 298 -365 b 222 -226 250 -281 236 -254 b 94 -33 189 -155 152 -85 b 123 1 95 -24 104 -12 b 494 543 228 75 352 256 b 496 541 494 542 495 541 l 498 541 b 498 542 498 541 498 541 b 505 562 500 549 502 556 b 513 593 509 572 512 583 b 502 614 512 606 508 613 b 490 616 496 616 492 616 b 469 606 481 616 475 613 b 429 529 463 595 449 570 b 339 355 406 481 375 423 b 222 159 303 288 264 222 b 96 12 180 96 138 46 b 126 319 102 111 113 213 b 169 597 140 426 154 518 b 174 591 170 596 171 594 b 176 591 174 591 175 591 b 178 604 178 591 178 595 b 180 640 180 616 180 629 b 167 681 180 664 176 677 b 154 684 162 683 157 684 b 130 666 142 684 134 677 b 66 163 96 541 75 374 b 61 3 62 85 61 32 b 60 -12 61 -7 61 -12 b 37 -7 52 -9 45 -7 b 0 -40 14 -7 1 -18 b 10 -50 0 -47 3 -50 b 35 -44 14 -50 22 -48 l 38 -43 b 62 -119 62 -54 62 -65 b 61 -148 61 -127 61 -136 b 71 -349 61 -191 64 -258 b 81 -359 72 -355 75 -359 b 91 -349 87 -359 91 -355 b 90 -241 90 -313 90 -277 b 92 -98 90 -194 91 -146 b 163 -216 115 -132 140 -171 b 224 -320 182 -252 203 -287 b 380 -450 267 -387 317 -439 b 397 -451 386 -450 391 -451 z "},"L":{"ha":567,"x_min":0,"x_max":0,"o":"m 505 -368 b 594 -347 538 -368 568 -361 b 661 -286 625 -332 646 -311 b 672 -252 668 -271 672 -260 b 665 -242 672 -245 669 -242 b 659 -247 662 -242 660 -243 b 611 -315 652 -276 636 -299 b 526 -338 586 -330 557 -338 b 370 -276 477 -338 425 -317 b 296 -212 345 -255 320 -234 l 266 -186 b 467 194 346 -68 413 58 b 589 550 521 330 562 448 b 629 726 615 652 629 710 b 606 747 629 737 619 747 b 589 736 600 747 593 743 b 544 590 579 718 564 669 b 479 358 527 524 505 447 b 382 86 452 269 420 178 b 246 -170 343 -7 298 -92 b 115 -111 195 -131 151 -111 l 107 -111 b 30 -148 68 -115 43 -127 b 9 -205 16 -169 9 -188 b 96 -292 9 -252 39 -281 b 114 -294 102 -293 108 -294 b 237 -224 157 -294 198 -271 l 262 -246 b 357 -322 292 -274 323 -300 b 460 -366 403 -350 437 -364 b 505 -368 484 -367 498 -368 z m 112 -270 b 54 -247 87 -270 68 -262 b 35 -207 41 -234 35 -220 b 37 -193 35 -202 36 -198 b 72 -159 44 -174 56 -162 b 104 -153 87 -155 98 -153 b 218 -208 133 -153 171 -172 b 142 -268 183 -247 158 -267 b 112 -270 125 -269 115 -270 z "},"M":{"ha":876,"x_min":0,"x_max":0,"o":"m 745 -431 b 764 -428 751 -431 758 -430 b 794 -384 784 -422 794 -408 b 786 -369 794 -367 787 -369 b 774 -380 781 -369 774 -373 l 774 -381 l 771 -388 b 751 -396 767 -393 760 -396 b 718 -287 729 -396 718 -359 b 731 -117 718 -240 722 -183 b 836 299 745 -18 780 121 b 939 703 902 517 937 651 l 941 753 b 903 836 941 797 928 825 b 890 837 899 836 895 837 b 831 812 873 837 853 829 b 690 667 781 777 734 728 b 557 431 640 597 595 519 b 458 181 519 342 486 259 b 404 38 438 124 420 77 b 359 -34 387 -1 372 -24 l 357 -13 b 297 371 350 210 330 338 b 254 388 283 382 269 388 b 226 382 245 388 235 386 b 153 321 201 370 177 351 b 90 225 130 292 109 260 b 45 129 71 190 56 158 b 14 5 31 90 20 49 b 3 -116 7 -40 3 -80 b 37 -284 3 -186 15 -242 b 123 -344 56 -319 84 -338 b 127 -339 126 -344 127 -342 b 125 -334 127 -336 127 -334 b 65 -238 94 -314 74 -282 b 52 -110 56 -194 52 -151 b 75 83 52 -39 60 25 b 153 263 91 140 117 200 b 248 357 189 326 220 357 b 288 319 270 357 283 344 b 295 233 291 302 293 273 b 319 -57 296 176 304 79 b 344 -77 321 -70 329 -77 b 414 -10 370 -77 393 -54 b 481 172 435 37 458 97 b 555 382 502 238 526 309 b 661 598 583 456 618 528 b 816 779 703 667 754 728 b 870 808 840 798 857 808 b 893 761 886 808 893 792 b 800 368 893 707 862 576 b 667 -183 718 88 674 -96 b 661 -277 663 -233 661 -264 b 700 -412 661 -338 674 -383 b 745 -431 714 -425 730 -431 z "},"N":{"ha":644,"x_min":0,"x_max":0,"o":"m 13 -398 b 26 -389 20 -398 24 -395 b 94 -100 40 -301 63 -205 b 208 214 125 5 163 110 b 531 686 307 447 415 604 b 595 714 559 705 581 714 b 626 656 616 714 626 695 b 576 405 626 616 609 532 b 501 38 532 236 507 113 b 495 -54 497 -5 495 -35 b 508 -170 495 -96 499 -134 b 583 -262 524 -233 553 -262 b 606 -258 591 -262 598 -260 b 612 -248 610 -256 612 -253 b 605 -239 612 -242 610 -239 l 602 -240 b 589 -242 597 -241 593 -242 b 558 -215 575 -242 565 -233 b 543 -142 549 -193 545 -168 b 541 -78 542 -115 541 -94 b 566 136 541 -14 549 58 b 613 334 581 202 596 268 b 673 645 653 485 673 589 b 670 684 673 659 672 673 b 610 749 664 723 644 745 l 604 749 b 473 667 572 749 529 722 b 277 393 412 610 347 518 b 77 -88 207 269 140 108 b 41 -220 64 -132 52 -176 b 96 151 55 -92 74 32 b 157 444 119 269 138 367 b 185 564 175 521 184 561 b 186 570 186 566 186 568 b 166 594 186 586 176 594 b 140 567 155 594 146 585 b 47 150 104 451 73 312 b 0 -385 22 -12 6 -191 b 13 -398 0 -394 4 -398 z "},"O":{"ha":702,"x_min":0,"x_max":0,"o":"m 264 -309 b 465 -198 330 -306 397 -269 b 632 119 532 -127 587 -22 b 675 384 661 218 675 306 b 669 467 675 413 673 440 b 574 688 654 563 623 637 b 412 767 526 739 472 766 b 222 702 343 766 279 745 b 78 535 163 659 115 604 b 15 363 40 467 19 409 b 9 273 11 316 9 286 b 50 88 9 210 22 148 b 49 37 50 71 49 54 b 103 -213 49 -72 67 -155 b 258 -309 143 -277 195 -309 z m 269 -276 b 190 -245 239 -276 212 -266 b 126 -136 162 -219 140 -183 b 100 15 111 -90 102 -39 b 208 -36 137 -19 173 -36 b 237 -32 218 -36 227 -35 b 353 50 281 -19 320 8 b 414 160 385 92 406 128 b 427 229 423 191 427 214 b 412 278 427 250 422 266 b 404 281 409 280 406 281 b 393 275 399 281 395 279 b 392 269 393 273 392 271 b 395 262 392 267 393 264 b 406 227 402 254 406 242 b 401 193 406 217 404 205 b 362 96 393 161 380 128 b 220 -7 323 27 276 -7 b 100 61 175 -7 135 16 b 144 289 104 144 119 220 b 216 411 170 357 193 398 b 229 414 221 413 226 414 b 250 410 237 414 241 410 b 266 395 258 406 263 395 b 268 397 267 395 267 395 b 272 415 271 404 272 409 b 221 459 272 436 251 459 b 201 456 215 459 209 458 b 129 380 177 450 153 425 b 60 172 93 307 70 237 b 55 154 58 160 56 154 b 48 186 54 154 52 165 l 45 207 b 39 281 41 232 39 257 b 64 433 39 334 47 385 b 170 616 88 504 123 565 b 302 715 216 667 260 699 b 404 738 343 730 378 738 b 609 583 493 738 562 686 b 649 380 635 520 649 452 b 646 323 649 361 648 342 b 580 53 638 230 616 140 b 450 -168 544 -35 500 -108 b 269 -276 388 -240 328 -276 z "},"P":{"ha":599,"x_min":0,"x_max":0,"o":"m 173 -347 b 186 -333 180 -347 184 -342 b 214 -81 189 -333 197 -249 l 218 -29 b 382 44 273 -25 328 -1 b 521 212 437 88 483 144 b 581 374 558 280 578 334 b 584 443 583 414 584 437 b 519 631 584 510 562 573 b 411 711 485 675 448 701 b 319 726 374 722 342 726 b 234 713 291 726 262 722 b 96 626 181 698 135 669 b 24 494 56 583 32 538 b 13 395 17 450 13 416 b 46 212 13 340 24 279 b 22 127 31 189 23 161 b 46 47 22 100 31 73 b 125 -15 63 20 90 -1 b 159 -299 148 -97 159 -191 l 159 -333 b 173 -347 159 -342 168 -347 z m 221 9 b 245 422 235 168 243 306 l 245 429 b 222 460 245 450 237 460 b 211 458 218 460 214 460 b 195 435 202 454 197 446 b 180 108 186 277 181 168 b 177 35 180 73 178 49 b 172 12 176 20 174 12 b 165 9 169 10 167 9 b 150 13 161 9 156 11 b 140 16 146 14 143 16 b 87 170 116 92 98 143 b 73 210 78 191 73 204 b 94 231 73 217 80 224 b 98 238 96 233 98 235 b 89 248 98 245 92 248 b 84 247 87 248 86 248 b 67 234 74 241 68 236 l 65 233 b 38 399 47 294 38 349 b 50 491 38 432 42 463 b 155 650 70 561 105 614 b 273 704 204 686 243 703 b 319 704 302 704 317 704 b 469 650 375 704 425 686 b 551 484 513 614 541 559 b 552 450 551 473 552 462 b 512 279 552 394 538 337 b 385 98 480 209 437 149 b 221 9 332 47 277 18 z m 108 31 b 46 140 66 56 46 93 b 55 186 46 155 49 170 b 109 40 81 112 100 64 l 113 29 l 112 28 z m 168 -119 b 151 -22 164 -85 158 -53 b 173 -38 165 -25 173 -20 b 168 -119 173 -49 171 -74 z "},"Q":{"ha":634,"x_min":0,"x_max":0,"o":"m 563 -393 b 618 -380 583 -393 602 -389 b 694 -301 650 -363 675 -337 l 695 -296 b 687 -289 695 -292 692 -290 b 680 -293 684 -289 682 -290 b 622 -353 661 -325 642 -345 b 574 -365 602 -361 586 -365 b 463 -307 536 -365 499 -345 b 416 -250 437 -279 421 -260 b 526 -73 462 -205 498 -146 b 572 113 553 -1 568 62 b 576 220 575 165 576 201 b 556 397 576 281 570 340 b 463 585 538 472 507 534 b 289 673 419 635 361 665 l 270 673 b 98 606 202 673 144 651 b 10 465 46 558 17 511 b 0 374 3 420 0 389 b 53 189 0 313 18 251 b 8 -9 23 121 8 56 b 66 -220 8 -90 28 -160 b 168 -313 100 -273 134 -304 b 241 -327 201 -322 226 -327 b 376 -282 283 -327 328 -312 b 492 -378 423 -336 461 -368 b 563 -393 522 -388 546 -393 z m 248 -296 b 212 -291 235 -296 224 -294 b 110 -210 170 -279 136 -252 b 66 -92 83 -167 69 -127 b 60 -16 62 -56 60 -31 b 81 119 60 28 67 73 b 90 138 85 132 87 138 b 97 132 92 138 94 136 b 175 75 111 113 137 93 b 269 54 205 61 237 54 b 395 98 316 54 358 69 b 399 107 398 101 399 104 b 392 119 399 113 397 117 b 385 121 389 121 387 121 b 376 118 382 121 379 120 b 272 83 347 94 312 83 b 104 173 209 83 153 113 b 155 252 115 198 132 224 b 258 325 199 308 237 325 b 291 311 269 325 281 320 b 296 310 292 311 294 310 b 302 321 302 310 302 317 b 272 366 302 342 292 357 b 248 370 264 369 257 370 b 74 228 191 370 132 323 l 73 227 b 58 253 69 227 64 236 b 37 372 44 290 37 329 b 43 435 37 392 39 413 b 132 585 59 502 88 552 b 271 635 176 618 222 635 b 462 528 342 635 406 600 b 535 363 502 473 526 418 b 548 222 544 309 548 261 b 541 119 548 188 545 153 b 488 -85 530 44 513 -24 b 398 -228 463 -147 433 -195 b 286 -146 351 -173 314 -146 l 279 -146 b 260 -159 267 -149 261 -153 b 257 -171 258 -165 257 -169 b 277 -192 257 -180 264 -187 b 357 -260 296 -197 322 -220 b 248 -296 317 -283 281 -296 z "},"R":{"ha":543,"x_min":0,"x_max":0,"o":"m 119 -434 b 123 -432 121 -434 122 -433 b 167 -336 149 -402 163 -370 b 172 -240 170 -302 172 -271 b 170 -173 172 -219 172 -197 b 168 -18 169 -142 168 -90 b 171 72 168 33 169 63 b 184 84 173 83 178 84 l 187 84 b 202 85 191 84 196 85 b 345 -117 262 31 304 -41 b 473 -309 389 -201 431 -265 b 574 -367 511 -348 545 -367 b 604 -359 585 -367 595 -364 b 682 -230 641 -341 667 -298 l 683 -226 b 667 -212 683 -217 675 -212 b 654 -222 660 -212 656 -215 b 602 -332 637 -294 620 -332 b 572 -334 583 -333 572 -334 b 384 -116 526 -334 464 -261 b 234 93 342 -40 298 35 b 346 155 267 104 304 125 b 456 269 387 186 423 223 b 530 461 505 341 530 405 b 486 587 530 522 515 564 b 406 618 458 608 431 618 b 225 467 337 618 277 568 b 154 134 186 391 163 280 b 123 109 132 131 123 117 b 152 86 123 98 132 91 b 149 -121 150 3 149 -66 b 149 -195 149 -149 149 -174 l 150 -242 b 146 -323 150 -275 149 -302 b 119 -396 143 -352 134 -376 b 56 -129 80 -284 60 -195 b 51 12 53 -62 51 -15 b 65 193 51 80 56 140 b 113 333 79 267 94 313 b 121 309 118 324 121 317 b 118 292 120 302 119 296 l 117 288 l 119 288 b 144 342 136 306 144 323 b 131 380 144 361 140 374 b 110 387 121 385 115 387 b 29 264 78 387 52 347 b 0 25 9 182 0 102 b 31 -234 0 -66 10 -153 b 119 -434 63 -369 102 -434 z m 195 120 b 174 146 181 120 174 129 l 174 147 b 231 433 182 270 201 365 b 319 562 260 500 290 543 b 392 588 349 579 373 588 b 428 579 405 588 416 585 b 477 521 457 565 473 545 b 482 472 480 496 482 479 b 444 341 482 435 469 391 b 371 241 425 307 401 273 b 280 160 340 210 311 182 b 217 123 250 138 229 125 b 195 120 205 121 198 120 z "},"S":{"ha":426,"x_min":0,"x_max":0,"o":"m 184 -355 b 321 -298 238 -355 283 -336 b 386 -123 364 -254 386 -196 b 327 102 386 -58 366 18 b 260 234 306 146 284 190 b 148 494 195 353 158 440 b 140 562 142 524 140 547 b 153 639 140 589 144 614 b 199 692 168 671 183 688 b 232 696 215 695 226 696 b 293 678 252 696 272 690 b 361 608 320 663 343 639 b 388 544 374 587 382 566 b 411 487 391 528 399 509 b 415 484 412 485 413 484 b 427 494 418 484 422 487 b 436 536 433 503 436 517 b 416 615 436 562 429 587 b 337 711 397 655 371 687 b 231 748 303 736 268 748 b 210 747 224 748 217 747 b 125 696 173 741 145 724 b 92 616 106 668 94 642 b 89 562 90 591 89 573 b 152 332 89 496 110 420 b 220 198 173 287 196 242 b 294 50 248 148 273 98 b 336 -125 322 -13 336 -71 b 296 -254 336 -182 323 -224 b 188 -304 266 -287 229 -304 b 87 -266 145 -304 111 -291 b 50 -176 62 -240 50 -210 b 54 -134 50 -163 52 -149 l 55 -127 b 29 -103 55 -113 43 -103 b 0 -172 9 -103 0 -126 b 15 -242 0 -195 5 -219 b 87 -328 31 -280 55 -309 b 184 -355 119 -346 151 -355 z "},"T":{"ha":591,"x_min":0,"x_max":0,"o":"m 432 -338 b 444 -328 439 -338 443 -334 b 501 79 464 -176 483 -40 b 574 651 530 261 554 452 b 581 663 574 656 572 663 b 765 631 610 655 672 644 b 802 629 778 629 790 629 b 904 656 844 629 878 638 b 956 740 937 680 954 708 b 935 761 956 754 949 761 b 912 740 920 761 912 754 l 912 733 b 859 653 912 690 895 663 b 799 646 841 648 821 646 b 699 659 777 646 743 650 b 579 688 623 672 583 682 b 576 698 577 690 576 694 b 555 728 576 718 569 728 b 528 694 542 728 532 717 b 372 709 471 704 419 709 b 261 698 332 709 294 705 b 93 625 189 682 133 659 b 16 534 52 592 26 562 b 0 468 5 506 0 484 b 6 437 0 456 2 446 b 43 414 14 422 26 414 b 85 435 65 414 79 420 b 87 441 87 437 87 439 l 87 444 b 73 435 81 438 77 435 b 52 444 65 435 56 444 l 52 445 l 45 448 l 52 446 l 52 450 b 48 467 50 454 48 460 b 50 478 48 470 49 473 b 119 585 59 515 82 550 b 254 658 156 619 201 644 b 410 680 307 672 359 680 b 524 671 445 680 483 677 b 466 62 493 360 473 157 b 423 -329 454 -68 440 -198 b 432 -338 423 -335 426 -338 z "},"U":{"ha":552,"x_min":0,"x_max":0,"o":"m 522 -387 b 549 -379 532 -387 541 -385 b 569 -345 562 -372 569 -361 b 559 -336 568 -339 565 -336 b 551 -346 554 -336 551 -340 b 531 -363 551 -358 540 -363 b 503 -343 519 -363 510 -357 b 488 -276 498 -331 493 -309 b 477 -107 481 -228 477 -172 b 532 382 477 11 495 174 b 566 639 555 511 566 596 b 553 690 566 671 562 688 b 544 692 550 692 547 692 b 524 678 534 692 527 688 b 489 589 517 657 505 628 b 396 363 473 555 442 479 b 298 128 367 284 334 206 b 165 -91 261 50 217 -23 b 87 -149 135 -128 109 -148 b 56 -121 70 -149 59 -140 b 50 7 52 -107 50 -64 b 75 272 50 78 58 166 b 170 607 92 377 123 489 b 184 576 178 598 182 588 l 186 575 b 191 582 186 575 189 577 b 199 616 196 590 199 607 b 178 667 199 635 192 652 b 163 673 173 671 168 673 b 131 643 153 673 142 663 b 45 387 102 594 74 509 b 0 33 15 259 0 141 b 3 -43 0 5 1 -20 b 79 -178 10 -127 35 -173 b 201 -77 112 -178 153 -144 b 389 293 256 -2 319 121 b 470 492 412 349 438 416 b 511 582 495 552 509 582 b 511 578 511 582 511 581 l 508 557 b 496 482 506 541 502 515 b 428 -119 450 220 428 19 b 438 -264 428 -172 431 -221 b 509 -385 448 -331 472 -372 b 522 -387 513 -387 517 -387 z "},"V":{"ha":543,"x_min":0,"x_max":0,"o":"m 149 -357 b 309 -208 199 -357 252 -308 b 425 34 348 -139 387 -58 b 534 310 463 126 500 218 b 675 644 600 486 647 597 b 717 686 692 671 706 686 b 741 676 724 686 732 676 b 747 677 743 676 745 677 b 761 696 756 682 761 688 b 755 710 761 701 759 705 b 717 728 743 722 730 728 b 585 544 678 728 635 667 b 495 299 556 471 526 390 b 410 66 468 221 439 143 b 211 -297 342 -112 275 -233 b 154 -330 187 -319 168 -330 b 115 -275 134 -330 121 -311 b 106 -171 109 -247 106 -212 b 126 -12 107 -125 113 -73 b 171 178 139 49 154 112 b 239 553 216 355 239 480 b 234 621 239 577 237 600 b 149 718 225 674 197 706 b 129 719 142 718 135 719 b 53 691 100 719 75 709 b 6 631 26 668 10 648 b 0 596 2 613 0 602 b 28 551 0 576 9 561 b 43 547 34 549 39 547 b 64 555 52 547 58 550 b 71 566 68 559 71 562 b 67 568 71 568 69 568 l 62 568 b 47 585 52 568 47 574 b 66 633 47 600 53 616 b 117 666 79 649 96 660 b 130 667 121 667 125 667 b 169 645 146 667 160 660 b 188 578 180 626 186 604 l 189 547 b 173 396 189 497 183 447 b 127 208 160 334 145 272 b 62 -142 83 62 62 -55 b 73 -264 62 -183 66 -224 l 74 -267 b 93 -326 77 -288 83 -308 b 149 -357 104 -346 122 -356 z "},"W":{"ha":869,"x_min":0,"x_max":0,"o":"m 360 -406 b 456 -375 390 -406 422 -395 b 615 -224 510 -343 563 -293 b 749 18 667 -155 711 -75 b 817 254 787 109 810 189 b 828 397 825 320 828 368 b 800 606 828 468 819 538 b 637 760 767 709 713 760 b 586 749 621 760 603 756 b 498 631 546 730 516 692 b 489 587 492 612 489 597 b 511 559 489 568 496 559 b 534 590 528 559 530 570 b 559 663 536 607 544 631 b 644 720 581 701 609 720 b 748 635 683 720 718 692 b 791 389 777 582 791 500 l 791 383 b 739 95 789 285 771 189 b 620 -155 707 1 667 -82 b 477 -314 572 -227 525 -280 b 374 -354 437 -340 403 -354 b 348 -350 365 -354 356 -353 b 275 -267 315 -338 290 -311 b 248 -142 258 -222 250 -180 b 245 -65 246 -104 245 -79 b 290 269 245 51 260 162 l 291 275 b 286 286 291 279 290 283 b 270 294 281 291 276 294 b 255 284 264 294 258 290 b 201 196 241 254 224 225 b 144 138 179 167 160 147 b 105 123 127 128 114 123 b 51 257 69 123 51 168 b 121 499 51 347 75 427 b 133 468 129 490 133 479 l 133 464 b 135 460 134 461 134 460 b 147 475 138 460 142 465 b 154 508 152 486 154 496 b 144 543 154 521 151 532 b 115 562 132 562 119 562 b 99 554 109 562 104 559 b 16 391 54 496 26 442 b 0 267 5 339 0 298 b 10 182 0 237 3 209 b 62 97 24 130 41 102 b 98 90 81 92 94 90 b 222 175 133 90 174 119 b 197 8 205 104 197 49 b 197 -60 197 -33 197 -56 b 214 -243 197 -131 203 -192 b 360 -406 234 -338 282 -391 z "},"X":{"ha":342,"x_min":0,"x_max":0,"o":"m 404 -361 b 464 -334 431 -361 451 -352 l 465 -331 b 458 -325 465 -327 463 -325 l 455 -326 b 404 -340 437 -336 420 -340 b 359 -323 388 -340 373 -335 b 250 -63 314 -286 277 -199 b 220 109 233 26 222 83 b 352 302 277 176 321 240 b 401 427 383 363 399 406 b 404 463 403 448 404 460 b 366 511 404 494 391 511 b 352 497 357 511 352 506 b 366 486 352 490 357 486 b 379 459 374 486 379 477 b 336 321 379 427 365 381 b 245 181 314 275 283 228 b 231 164 239 175 235 169 b 217 150 224 155 219 150 b 202 221 212 150 208 174 b 164 473 197 268 184 352 b 103 707 146 586 125 664 b 81 739 94 726 86 736 b 67 743 75 742 71 743 b 58 740 64 743 61 742 b 47 713 51 734 47 725 b 50 704 47 710 48 707 b 101 534 69 667 87 610 b 140 287 115 457 128 375 b 168 98 149 220 159 157 b 94 15 142 71 118 43 b 14 -121 58 -28 32 -73 b 0 -182 5 -145 0 -165 b 12 -212 0 -195 4 -205 b 26 -216 16 -215 20 -216 b 41 -210 33 -216 41 -211 b 40 -210 41 -210 41 -210 l 39 -210 b 30 -196 33 -210 30 -205 b 49 -132 30 -183 36 -162 b 176 58 71 -80 113 -17 b 280 -274 201 -82 236 -193 b 404 -361 313 -332 355 -361 z "},"Y":{"ha":817,"x_min":0,"x_max":0,"o":"m 305 -446 b 355 -439 321 -446 337 -444 b 521 -309 408 -425 463 -381 b 671 24 578 -236 628 -125 b 829 68 724 40 777 55 b 836 76 833 69 836 72 b 828 85 836 82 833 85 b 677 45 821 85 770 71 b 739 528 718 206 739 367 b 739 569 739 542 739 556 b 728 689 736 632 732 672 b 689 738 718 722 705 738 b 608 673 669 738 642 716 b 511 538 579 636 547 591 b 390 366 474 481 434 425 b 248 206 346 307 298 253 b 114 130 191 155 146 130 b 54 170 81 130 61 143 b 43 243 46 197 43 221 b 109 498 43 317 64 402 b 142 562 115 511 125 533 b 236 675 184 637 216 675 b 251 668 241 675 246 673 b 256 659 254 665 256 662 l 255 653 b 258 649 255 650 256 649 b 262 650 260 649 261 650 b 273 672 269 656 273 664 b 269 688 273 677 271 682 b 243 712 262 703 254 711 b 225 714 233 713 227 714 b 165 680 208 714 187 703 b 53 496 118 626 81 565 b 5 336 25 428 9 374 b 0 257 2 296 0 270 b 23 146 0 213 7 176 b 106 97 40 113 68 97 b 259 181 151 97 202 125 b 532 528 332 253 423 368 b 629 661 571 584 603 628 b 674 699 649 686 664 699 b 680 697 676 699 678 698 b 695 659 690 692 694 679 b 695 615 695 638 695 624 b 618 26 695 410 669 214 b 308 -135 477 -22 374 -76 b 193 -332 242 -194 203 -260 b 229 -419 193 -368 205 -397 b 305 -446 250 -437 275 -446 z m 294 -410 b 241 -385 271 -410 254 -401 b 225 -335 231 -372 225 -355 b 349 -136 225 -273 267 -206 b 612 5 409 -85 496 -38 b 471 -293 579 -117 532 -216 b 351 -398 418 -355 378 -391 b 294 -410 323 -406 304 -410 z "},"Z":{"ha":553,"x_min":0,"x_max":0,"o":"m 17 -331 b 28 -327 21 -331 25 -330 b 125 -282 64 -300 96 -286 b 195 -276 154 -278 177 -276 b 368 -304 241 -276 299 -286 b 461 -321 410 -316 441 -321 b 556 -300 494 -321 526 -314 b 625 -218 592 -283 615 -255 l 625 -214 b 613 -203 625 -208 619 -203 b 602 -211 608 -203 604 -205 b 461 -296 585 -268 538 -296 b 343 -273 431 -296 392 -289 b 204 -248 289 -256 243 -248 b 151 -252 187 -248 170 -250 b 85 -268 119 -257 98 -262 b 75 -271 80 -270 77 -271 b 74 -271 75 -271 74 -271 b 86 -254 74 -269 78 -264 b 488 262 108 -229 242 -58 b 663 485 565 360 623 435 b 798 645 716 553 761 606 b 861 719 821 669 842 693 b 863 724 863 721 863 722 b 851 737 863 730 856 737 b 844 735 849 737 846 736 b 764 716 825 722 798 716 b 610 732 727 716 675 722 b 435 751 538 745 479 751 b 330 728 393 751 358 743 b 265 660 289 701 267 679 b 262 623 263 641 262 629 b 286 558 262 598 270 576 b 342 531 301 540 320 531 b 360 534 354 531 360 532 b 354 536 360 534 358 536 b 301 607 319 548 301 572 b 319 657 301 624 307 641 b 463 713 346 694 394 713 b 673 701 503 713 572 709 b 741 699 688 699 711 699 b 781 701 758 699 772 699 l 793 702 b 798 701 796 702 798 701 b 783 685 798 699 793 693 b 665 566 762 670 723 630 b 281 71 593 481 465 317 b 3 -307 106 -165 13 -290 b 0 -317 1 -311 0 -314 b 1 -322 0 -319 1 -320 b 17 -331 5 -328 10 -331 z "},"[":{"ha":275,"x_min":0,"x_max":0,"o":"m 12 -510 b 19 -508 14 -510 17 -509 b 81 -477 45 -494 65 -483 b 133 -433 115 -460 133 -446 b 119 -418 133 -423 128 -418 b 71 -437 111 -418 95 -424 l 33 -456 b 63 319 40 -336 50 -77 b 79 711 71 575 77 706 b 92 712 81 711 85 712 l 142 709 l 176 706 b 208 718 197 707 208 711 b 165 757 208 728 186 746 b 93 775 135 769 111 775 b 38 721 62 775 44 757 b 31 627 33 694 31 663 b 12 52 31 616 25 425 b 0 -416 4 -191 0 -348 b 3 -491 0 -454 1 -478 b 12 -510 5 -504 8 -510 z "},"\\":{"ha":360,"x_min":0,"x_max":0,"o":"m 281 -218 b 293 -208 289 -218 293 -215 b 252 -73 293 -205 279 -160 b 39 557 127 321 57 531 b 25 564 35 562 30 564 b 0 540 9 564 0 553 b 130 163 3 515 46 389 b 271 -211 208 -49 254 -174 b 281 -218 273 -216 277 -218 z "},"]":{"ha":266,"x_min":0,"x_max":0,"o":"m 116 -509 b 161 -437 136 -505 151 -481 b 172 -241 163 -422 166 -357 b 199 610 190 119 199 404 b 190 758 199 694 196 743 b 154 776 181 770 169 776 b 138 774 149 776 144 775 b 83 745 115 768 97 759 b 76 726 79 739 76 732 b 87 694 76 713 80 703 b 103 685 94 688 98 685 b 111 697 108 685 111 689 l 110 704 b 120 714 110 707 113 711 b 153 722 134 720 147 722 b 161 721 157 722 159 722 b 138 -123 147 331 140 50 b 132 -374 136 -241 134 -325 b 117 -455 128 -424 123 -451 b 102 -460 111 -458 106 -460 b 64 -446 93 -460 80 -456 b 23 -433 47 -437 33 -433 l 18 -433 b 1 -446 7 -436 2 -440 b 0 -459 1 -452 0 -456 b 4 -475 0 -465 1 -471 b 18 -489 7 -484 12 -488 b 54 -498 28 -489 40 -492 b 102 -509 71 -505 87 -509 z "},"^":{"ha":232,"x_min":0,"x_max":0,"o":"m 144 493 b 156 497 149 493 153 494 b 165 511 162 502 165 506 b 154 532 165 515 161 523 b 130 605 138 553 130 577 l 130 616 b 116 639 130 627 130 635 b 107 640 113 640 110 640 b 91 624 101 640 96 635 b 31 550 79 600 60 575 b 10 531 24 545 18 538 b 5 530 9 530 6 530 b 0 521 2 528 0 525 b 17 513 0 515 5 513 b 96 559 42 513 68 528 b 110 526 99 549 104 537 b 144 493 123 502 136 493 z "},"_":{"ha":317,"x_min":0,"x_max":0,"o":"m 27 -139 b 67 -136 37 -139 50 -138 b 209 -127 106 -130 154 -127 b 250 -107 236 -127 250 -120 b 186 -85 250 -95 229 -87 b 134 -83 166 -84 149 -83 b 48 -87 113 -83 85 -85 l 28 -90 b 0 -114 9 -93 0 -101 l 1 -121 b 14 -138 3 -132 8 -138 b 27 -139 20 -139 24 -139 z "},"`":{"ha":140,"x_min":0,"x_max":0,"o":"m 63 496 b 73 505 69 496 73 499 b 68 520 73 509 71 514 b 45 615 62 534 54 566 b 37 628 45 621 41 625 b 26 631 33 630 29 631 b 0 591 10 631 1 618 b 63 496 0 526 48 496 z "},"a":{"ha":357,"x_min":0,"x_max":0,"o":"m 206 -162 b 300 -80 237 -162 269 -135 b 368 62 311 -62 333 -14 l 369 64 b 363 71 369 68 367 71 b 357 68 361 71 359 70 l 342 42 b 293 -41 328 18 312 -10 b 216 -126 255 -102 229 -126 b 203 -117 210 -126 206 -123 b 194 -66 197 -101 194 -84 b 208 28 194 -43 199 -12 b 218 96 214 59 218 81 b 212 120 218 106 216 114 b 229 137 223 122 229 128 b 227 147 229 140 228 144 b 193 187 221 162 210 176 b 136 205 175 199 156 205 b 119 203 131 205 125 204 b 35 149 92 200 64 182 b -12 29 5 109 -12 68 b 26 -26 -12 -3 1 -22 l 31 -26 b 143 53 57 -26 94 1 b 175 86 162 75 173 86 l 175 85 b 170 66 175 83 173 77 b 144 -62 153 20 144 -23 l 144 -67 b 206 -162 147 -126 168 -158 z m 39 -3 b 26 14 31 -3 26 3 b 74 116 27 39 45 83 b 135 152 94 140 114 152 b 168 143 146 152 157 149 b 189 128 182 136 189 130 b 143 84 181 126 166 111 b 43 -2 100 35 67 6 z "},"b":{"ha":335,"x_min":0,"x_max":0,"o":"m 80 -158 b 195 -98 121 -158 159 -138 b 256 63 227 -64 247 -9 l 269 64 b 336 55 292 64 314 61 b 345 64 342 55 345 58 b 340 71 345 67 343 69 b 277 81 313 77 292 81 l 258 80 b 257 87 257 81 257 83 b 256 119 257 96 256 107 b 193 224 249 179 228 214 b 141 191 175 224 158 213 b 74 54 114 149 92 103 b 37 -22 60 18 47 -7 b 37 91 37 -18 37 20 b 77 528 37 268 50 414 b 105 611 87 566 96 594 b 129 633 113 626 121 633 b 131 634 130 633 130 633 b 135 645 134 637 135 641 b 132 654 135 648 134 651 b 109 670 127 665 119 670 b 43 592 87 670 64 644 b 9 455 31 560 20 515 b -12 195 -5 363 -12 277 b -11 140 -12 177 -12 158 b 25 -41 -7 43 5 -18 b 8 -98 14 -63 8 -82 b 19 -132 8 -111 12 -122 b 80 -158 33 -149 54 -158 z m 71 11 b 183 198 119 136 157 198 b 190 196 185 198 188 197 b 215 105 207 186 215 155 b 214 76 215 96 214 86 b 71 11 159 66 111 44 z m 74 -120 b 50 -109 64 -120 56 -117 b 42 -83 45 -101 42 -92 b 53 -48 42 -72 45 -60 b 117 16 66 -25 87 -4 b 212 57 146 36 177 50 b 166 -60 203 7 188 -31 b 109 -112 144 -89 125 -106 b 74 -120 93 -117 81 -120 z "},"c":{"ha":226,"x_min":0,"x_max":0,"o":"m 77 -98 b 157 -58 102 -98 130 -85 b 239 68 189 -27 216 15 l 240 71 b 233 79 240 76 238 78 b 227 75 231 79 229 77 b 159 -28 210 37 187 2 b 80 -79 126 -62 100 -79 b 69 -77 77 -79 73 -78 b 34 -31 49 -68 37 -53 b 29 22 31 -8 29 9 b 37 89 29 44 32 66 b 77 162 45 124 58 149 b 88 166 81 165 85 166 b 109 146 94 166 101 159 b 133 125 116 132 124 125 b 143 131 137 125 140 127 b 151 157 148 137 151 146 b 131 201 151 173 144 188 b 88 220 117 214 102 220 b 58 211 78 220 68 217 b 5 146 33 197 15 176 b -9 67 -5 117 -9 91 b 0 -10 -9 43 -6 18 b 77 -98 14 -66 39 -96 z "},"d":{"ha":412,"x_min":0,"x_max":0,"o":"m 269 -168 b 303 -157 281 -168 292 -165 b 395 -5 326 -141 357 -90 b 427 69 416 41 427 66 b 420 75 427 73 425 75 b 412 71 416 75 414 73 b 325 -97 382 -3 353 -60 b 276 -133 307 -121 290 -133 b 267 -132 273 -133 271 -132 b 241 -83 250 -123 241 -106 l 241 -45 b 295 321 241 33 259 155 b 338 517 310 392 324 457 b 373 686 361 616 373 673 b 365 701 373 693 370 698 b 353 704 361 703 357 704 b 334 690 344 704 337 699 b 309 612 326 671 317 644 b 184 181 283 516 242 372 b 111 229 164 213 140 229 b 35 186 82 229 57 215 b -9 47 7 146 -7 99 b 13 -42 -9 9 -2 -20 b 47 -63 22 -56 34 -63 b 81 -51 57 -63 68 -59 b 173 102 109 -33 140 18 b 183 100 177 101 180 100 b 199 125 194 100 199 109 b 193 160 199 136 197 147 l 245 332 l 242 319 b 216 193 236 295 227 253 b 193 -19 193 72 193 -2 b 216 -137 193 -70 201 -109 b 248 -164 227 -153 237 -161 b 269 -168 258 -167 264 -168 z m 46 -45 b 31 -34 40 -45 35 -41 b 23 8 26 -23 23 -9 b 28 56 23 22 25 37 b 77 158 37 96 53 130 b 109 178 90 172 100 178 b 151 134 121 178 135 163 b 161 115 154 127 157 121 b 90 -15 144 67 121 24 b 46 -45 71 -35 57 -45 z "},"e":{"ha":265,"x_min":0,"x_max":0,"o":"m 96 -71 b 194 -28 129 -68 161 -54 b 276 70 227 -2 254 31 l 277 73 b 271 79 277 77 275 78 b 266 76 269 79 267 78 b 178 -20 237 29 208 -3 b 102 -45 147 -37 122 -45 b 37 37 59 -45 37 -18 b 60 35 45 35 53 35 b 118 54 80 35 99 41 b 170 113 144 73 161 92 b 182 159 178 132 182 148 b 168 203 182 175 178 189 b 121 227 154 219 138 227 b 101 224 115 227 109 226 b 32 168 76 215 53 196 b -5 93 11 140 -1 115 b -10 49 -8 71 -10 56 b 13 -28 -10 22 -3 -4 b 88 -71 34 -56 59 -71 z m 47 68 b 43 74 44 68 43 70 b 59 117 43 81 48 96 b 79 149 66 130 73 140 b 133 188 102 175 119 188 l 136 188 b 158 172 150 186 157 180 b 158 157 158 163 158 158 b 132 104 158 140 149 123 b 47 68 115 86 87 74 z "},"f":{"ha":229,"x_min":0,"x_max":0,"o":"m 68 -391 b 97 -372 79 -391 88 -385 b 133 -202 121 -338 133 -281 b 72 44 133 -102 113 -20 b 126 39 90 41 108 39 b 233 60 162 39 198 46 b 236 65 235 61 236 63 b 229 73 236 70 234 73 l 228 73 b 157 54 200 61 176 55 b 122 53 137 54 125 53 b 45 71 92 53 66 59 b 96 302 54 141 71 218 b 194 513 120 387 153 457 b 199 528 197 518 199 523 b 189 551 199 540 195 547 b 178 553 184 553 180 553 b 116 494 161 553 140 534 b 12 189 66 402 31 300 b -18 -113 -9 77 -18 -24 b 35 -373 -18 -246 -1 -333 b 68 -391 47 -385 58 -391 z m 67 -349 b 43 -308 58 -349 50 -336 b 31 -170 35 -280 31 -234 b 38 -2 31 -113 33 -57 b 44 51 40 31 42 49 b 86 -31 61 34 75 7 b 113 -187 104 -85 113 -138 b 111 -218 113 -197 112 -208 b 67 -349 105 -306 90 -349 z "},"g":{"ha":378,"x_min":0,"x_max":0,"o":"m 72 -444 b 145 -416 95 -444 119 -435 b 239 -269 180 -389 212 -340 b 288 29 266 -197 282 -98 b 386 67 319 46 351 58 b 393 76 391 68 393 71 b 379 83 393 81 388 83 b 288 50 363 83 332 73 l 288 58 b 271 183 288 126 282 168 b 251 194 265 191 258 194 b 158 105 233 194 202 164 b 106 44 140 82 123 62 b 60 14 87 24 72 14 b 33 50 42 14 33 26 b 43 92 33 63 37 77 b 104 158 56 121 76 144 b 127 165 113 163 121 165 b 138 159 132 165 136 163 b 142 149 139 155 140 151 l 143 146 l 143 142 b 155 132 143 135 147 132 b 180 147 165 132 173 137 b 185 164 184 152 185 158 b 163 205 185 181 178 195 b 127 216 153 212 141 216 l 112 214 b 31 166 79 208 52 192 b -5 100 9 140 -3 119 b -9 64 -8 82 -9 70 b 12 3 -9 40 -3 20 b 53 -14 22 -8 36 -14 b 123 27 75 -14 98 -1 b 178 92 145 52 163 74 b 229 151 208 130 225 150 l 233 151 b 240 124 238 151 240 142 b 239 96 240 117 239 107 b 237 38 237 77 237 58 b 220 10 237 17 231 16 b 131 -60 208 4 178 -19 b 5 -220 64 -122 22 -176 b -22 -328 -13 -264 -22 -300 b -16 -370 -22 -343 -20 -357 b 72 -444 0 -418 29 -442 z m 56 -399 b 4 -317 28 -395 11 -368 b 47 -187 4 -281 18 -238 b 234 -3 81 -128 144 -66 b 224 -96 232 -34 229 -65 b 147 -332 204 -208 178 -287 b 62 -400 116 -378 87 -400 z "},"h":{"ha":352,"x_min":0,"x_max":0,"o":"m 35 -144 b 52 -130 41 -144 46 -139 b 133 43 90 -53 117 4 b 184 136 153 90 165 117 b 186 119 185 136 185 130 b 193 44 186 100 189 75 b 217 -37 197 13 205 -14 b 265 -70 229 -59 244 -70 b 309 -45 283 -70 298 -62 b 345 17 319 -31 331 -10 b 370 64 352 31 360 47 b 372 69 371 66 372 68 b 362 79 372 75 368 79 b 353 75 359 79 355 78 l 333 42 b 286 -28 309 1 294 -22 b 269 -37 277 -35 271 -37 b 241 20 258 -37 248 -18 b 232 90 237 44 234 67 b 197 180 229 148 220 180 b 186 178 194 180 190 180 b 102 22 168 170 140 118 b 50 -91 74 -48 56 -86 b 42 -95 46 -94 43 -95 b 31 9 35 -95 31 -60 b 47 224 31 77 37 149 b 119 515 61 328 85 425 b 147 567 129 541 138 558 b 158 589 155 577 158 585 b 155 600 158 593 157 596 b 132 616 148 618 136 616 b 116 610 127 616 121 614 b 76 546 98 592 84 571 b -12 90 18 401 -12 250 b -10 40 -12 73 -11 56 b 10 -104 -7 -30 0 -78 b 35 -144 20 -131 28 -144 z "},"i":{"ha":176,"x_min":0,"x_max":0,"o":"m 46 227 b 58 230 50 227 54 228 b 71 252 74 238 71 250 b 57 275 71 260 66 268 b 42 279 52 277 47 279 b 28 274 37 279 32 277 b 20 254 22 269 20 262 b 33 230 20 244 24 236 b 46 227 38 228 42 227 z m 56 -41 b 88 -33 65 -41 76 -39 b 186 70 115 -20 147 14 b 188 74 187 71 188 73 b 181 80 188 77 186 79 b 176 77 179 80 177 79 b 130 17 165 58 149 38 b 70 -24 104 -10 84 -24 b 41 47 51 -24 41 0 b 43 85 41 59 42 72 b 54 157 46 114 50 138 b 60 162 55 157 55 156 b 67 183 64 170 67 176 b 65 193 67 186 66 189 b 43 209 60 203 54 209 b -4 126 20 209 5 181 b -7 87 -6 113 -7 100 b -3 39 -7 71 -5 55 b 56 -41 6 -20 33 -41 z "},"j":{"ha":138,"x_min":0,"x_max":0,"o":"m 18 307 b 41 333 33 307 40 316 b 14 359 39 351 30 359 b -3 352 8 359 2 357 b -10 332 -7 345 -10 338 b -9 325 -10 330 -9 327 b 18 307 -4 313 5 307 z m -149 -409 b -123 -405 -140 -409 -132 -408 b -35 -315 -93 -397 -64 -367 b 33 -68 -7 -262 16 -180 b 153 62 89 -26 129 18 l 155 67 b 146 75 155 72 152 75 b 139 71 143 75 141 74 b 36 -41 112 27 77 -10 b 45 149 42 8 45 71 b 30 272 45 222 40 263 b 8 282 20 279 13 282 b -12 270 1 282 -5 278 b -17 256 -16 265 -17 260 b -12 238 -17 251 -15 245 b -6 129 -8 231 -6 195 b -14 -77 -6 50 -9 -19 l -27 -86 b -153 -185 -72 -115 -114 -148 b -222 -317 -191 -222 -214 -266 l -222 -326 b -196 -389 -222 -351 -214 -372 b -149 -409 -182 -402 -167 -409 z m -148 -373 b -157 -372 -151 -373 -154 -372 b -191 -315 -180 -366 -191 -347 b -161 -232 -189 -286 -179 -258 b -17 -104 -123 -180 -66 -138 b -79 -317 -32 -208 -52 -279 b -148 -373 -104 -354 -127 -373 z "},"k":{"ha":345,"x_min":0,"x_max":0,"o":"m 27 -142 b 51 -123 37 -142 45 -136 b 85 -22 66 -81 78 -47 b 108 26 94 9 101 26 b 149 -19 115 26 128 12 b 157 -31 152 -22 155 -26 b 231 -84 182 -66 206 -84 l 236 -84 b 309 -24 262 -78 287 -58 b 355 72 332 11 347 43 l 355 73 b 349 79 355 76 353 78 b 345 76 347 79 346 78 b 313 18 338 60 328 41 b 229 -62 285 -27 251 -62 b 195 -40 218 -62 208 -54 b 159 7 187 -32 175 -16 b 130 39 144 24 135 35 b 129 40 130 39 129 39 l 132 40 b 191 81 137 40 157 40 b 226 159 214 112 226 138 b 224 170 226 162 225 166 b 203 192 221 184 214 192 b 99 62 171 192 136 149 l 87 62 b 75 49 79 62 75 58 b 83 37 75 42 77 38 b 85 33 84 36 85 35 b 67 -24 85 26 79 7 b 43 -83 53 -60 45 -80 b 37 -98 40 -90 37 -98 b 36 -87 36 -98 36 -94 l 37 -35 b 39 20 37 -20 38 -2 b 94 391 42 161 60 286 b 174 542 113 452 139 503 b 181 557 178 548 181 553 b 166 568 181 565 176 568 b 87 507 142 568 117 548 b 30 359 66 475 47 427 b -9 47 3 260 -9 155 b 2 -109 -9 -5 -5 -58 b 18 -141 7 -130 12 -140 b 27 -142 24 -142 26 -142 z m 118 66 b 175 161 144 123 163 155 b 196 170 186 167 193 170 b 201 163 199 170 201 168 b 192 136 201 158 198 149 b 118 66 174 99 149 76 z "},"l":{"ha":200,"x_min":0,"x_max":0,"o":"m 64 -102 b 90 -95 72 -102 81 -100 b 210 68 121 -79 161 -24 l 211 72 b 205 76 211 75 209 76 b 201 74 203 76 202 75 b 101 -59 175 24 141 -20 b 71 -75 90 -69 79 -75 b 44 -46 59 -75 50 -65 b 30 79 35 -16 30 26 b 45 300 30 146 35 220 b 85 516 55 377 68 449 b 94 554 91 535 94 548 b 89 569 94 560 92 565 b 87 570 88 569 88 570 b 73 581 84 577 79 581 b 21 488 53 581 36 550 b -14 174 -2 397 -14 292 b 15 -54 -14 66 -4 -9 b 64 -102 28 -85 45 -102 z "},"m":{"ha":536,"x_min":0,"x_max":0,"o":"m 390 -132 b 549 73 437 -132 490 -64 l 550 76 b 543 81 550 79 548 81 b 536 77 540 81 538 79 b 484 -21 525 49 507 16 b 405 -103 459 -58 433 -86 l 404 -104 b 393 -64 397 -104 393 -90 b 426 110 395 -10 406 48 b 452 234 440 151 449 192 b 436 277 452 259 447 274 b 412 282 425 281 417 282 b 305 197 382 282 347 254 b 252 121 286 171 269 146 b 192 45 221 71 201 45 b 186 50 189 45 187 47 b 151 89 172 76 161 89 b 102 29 140 89 123 69 b 52 -40 77 -17 60 -40 l 50 -40 b 42 33 45 -33 42 22 b 55 115 42 61 46 89 b 62 149 60 131 62 142 b 40 170 59 163 48 170 b 9 143 28 170 18 161 b -7 75 2 129 -3 106 b -10 35 -9 61 -10 47 b -1 -31 -10 10 -7 -12 b 28 -75 9 -60 18 -74 b 43 -75 38 -75 43 -75 b 108 -11 62 -75 84 -54 l 129 28 b 151 65 142 53 149 65 b 162 36 154 65 155 52 b 190 12 170 20 180 12 b 288 123 210 12 243 49 b 387 243 321 175 355 224 b 402 250 393 248 399 250 b 407 243 406 250 407 248 b 391 181 407 234 401 213 b 344 -45 359 79 344 4 b 353 -102 344 -68 347 -87 b 390 -132 362 -122 374 -132 z "},"n":{"ha":338,"x_min":0,"x_max":0,"o":"m 49 -89 b 89 -57 64 -89 78 -78 b 120 22 100 -35 110 -9 b 189 160 137 74 157 128 b 193 129 190 154 191 144 b 231 -29 196 42 209 -11 b 271 -51 247 -43 260 -51 b 304 -37 283 -51 294 -46 b 351 69 327 -18 342 18 b 345 77 351 75 349 77 b 338 73 342 77 340 76 b 321 26 335 59 329 43 b 279 -23 304 -9 288 -23 b 246 88 263 -23 252 14 b 220 186 241 144 233 176 b 199 197 210 194 203 197 b 171 176 189 197 180 191 b 100 26 142 123 119 73 b 55 -56 77 -29 62 -56 l 54 -56 b 47 -28 52 -54 50 -45 b 42 61 43 6 42 42 b 64 170 42 112 50 148 b 70 185 67 175 69 180 b 61 208 70 190 67 197 b 42 219 56 215 50 219 b -1 146 21 219 7 195 b -7 65 -5 119 -7 92 b 8 -48 -7 18 -2 -20 b 49 -89 17 -73 31 -87 z "},"o":{"ha":263,"x_min":0,"x_max":0,"o":"m 76 -41 b 166 30 108 -40 138 -16 b 271 66 205 31 239 43 b 273 70 272 66 273 68 b 268 76 273 74 271 76 l 265 75 b 174 45 237 56 207 45 b 192 124 186 74 192 100 b 183 170 192 140 189 155 b 109 233 171 205 146 227 b 49 186 87 233 66 217 b 30 161 45 178 39 170 b 1 116 19 151 9 136 b -10 56 -7 94 -10 74 b 3 3 -10 36 -6 18 b 73 -41 20 -26 43 -41 z m 156 47 b 104 71 136 50 119 58 b 72 123 77 96 72 115 b 79 135 72 131 75 135 l 80 136 l 78 136 b 100 159 92 138 100 151 b 77 180 100 170 92 177 b 115 208 88 199 100 208 b 130 204 119 208 125 207 b 176 117 161 190 176 161 b 156 47 176 96 169 72 z m 81 -11 b 62 -6 75 -11 68 -9 b 41 45 48 3 41 20 b 47 94 41 64 43 80 b 50 98 48 97 50 98 b 56 87 51 98 53 94 b 132 35 77 55 102 38 b 144 31 140 35 144 33 b 134 17 144 28 140 23 b 81 -11 115 -1 96 -11 z "},"p":{"ha":365,"x_min":0,"x_max":0,"o":"m -70 -441 b -56 -431 -63 -441 -58 -438 b 47 -93 -5 -271 30 -159 b 83 24 60 -46 72 -7 b 127 127 94 56 109 90 b 224 241 168 203 199 241 b 250 195 237 241 246 226 l 251 170 b 236 65 251 135 246 100 l 218 66 b 106 38 164 66 127 56 b 80 -14 89 22 80 5 b 82 -31 80 -20 81 -25 b 156 -94 90 -67 115 -88 b 281 53 208 -94 250 -45 l 304 52 b 362 61 331 52 351 55 b 374 73 370 64 374 68 b 370 77 374 76 372 77 l 366 76 b 297 61 343 66 321 61 l 283 62 b 297 159 292 99 297 132 b 290 213 297 180 294 198 b 229 272 278 248 258 268 b 168 230 207 272 186 258 b 72 45 124 160 92 98 b 18 -124 52 -9 34 -65 b -39 -311 4 -176 -15 -239 b -3 -125 -31 -261 -19 -199 b 93 186 38 60 70 164 b 106 209 102 193 106 201 b 84 233 106 222 98 233 b 18 148 62 233 40 204 b -37 -44 -3 95 -22 31 b -73 -257 -53 -119 -65 -190 b -85 -416 -81 -324 -85 -377 b -70 -441 -85 -442 -75 -441 z m 138 -60 b 110 -38 121 -56 112 -49 b 107 -17 108 -26 107 -20 b 132 31 107 0 115 16 b 227 56 149 47 181 56 l 233 56 b 195 -25 224 26 212 -1 b 144 -61 176 -49 159 -61 z "},"q":{"ha":343,"x_min":0,"x_max":0,"o":"m 153 -420 b 198 -392 168 -420 182 -411 b 248 -229 222 -363 239 -309 b 250 -175 250 -211 250 -193 b 222 -4 250 -117 241 -60 l 232 -4 b 300 14 256 -4 279 2 b 355 73 325 27 343 47 l 356 76 b 350 83 356 79 354 82 b 345 79 348 83 346 81 b 239 12 323 33 280 12 l 226 12 b 248 111 241 57 248 90 b 216 155 248 133 237 155 b 212 155 214 155 213 155 b 200 141 211 155 207 150 b 155 83 189 126 174 107 b 99 22 136 60 117 39 b 54 -3 81 5 65 -3 b 35 39 41 -3 35 11 b 58 130 35 72 43 102 b 87 166 70 151 80 163 b 103 171 95 170 100 171 b 125 147 112 171 119 163 l 124 148 l 123 146 b 123 138 123 146 123 143 b 136 125 123 130 127 125 b 147 129 139 125 142 127 b 168 162 161 135 168 146 b 165 181 168 168 167 174 b 106 222 155 208 136 222 b 5 140 65 222 32 195 b -12 62 -6 113 -12 87 b 0 1 -12 37 -8 16 b 42 -31 12 -20 26 -31 b 55 -29 46 -31 50 -31 b 174 83 87 -19 127 18 b 203 115 190 104 199 115 b 204 112 203 115 204 114 b 148 -52 204 103 185 48 b 95 -288 113 -149 95 -228 b 153 -420 95 -370 115 -414 z m 162 -387 b 136 -328 145 -387 136 -368 b 139 -285 136 -315 137 -301 b 205 -45 144 -231 167 -151 l 210 -33 b 231 -195 224 -94 231 -148 b 229 -236 231 -209 231 -223 b 199 -354 223 -292 213 -332 b 162 -387 184 -376 172 -387 z "},"r":{"ha":194,"x_min":0,"x_max":0,"o":"m 70 -74 b 126 66 98 -71 117 -24 l 139 157 b 149 186 141 176 144 186 b 161 180 152 186 156 184 b 206 162 178 168 193 162 b 230 179 218 163 226 169 b 231 184 231 181 231 183 b 229 191 231 186 231 189 b 218 196 227 194 223 196 b 201 184 212 196 209 184 l 201 184 b 175 195 194 184 185 188 b 155 202 169 200 163 202 b 132 179 145 202 137 195 b 115 92 124 157 119 127 b 100 12 111 64 106 37 b 72 -41 94 -14 85 -31 b 59 -11 70 -41 66 -31 b 45 52 52 9 47 30 b 41 101 42 73 41 90 b 54 181 41 141 45 168 b 60 200 58 188 60 194 b 54 216 60 205 58 210 b 33 227 46 223 39 227 b 8 204 24 227 16 219 b -11 101 -5 180 -11 145 b 24 -43 -11 51 1 3 b 70 -74 37 -64 52 -74 z "},"s":{"ha":155,"x_min":0,"x_max":0,"o":"m -6 -177 b 52 -140 18 -176 37 -163 b 73 -64 66 -116 73 -90 b 64 7 73 -43 70 -19 b 155 58 91 29 121 46 b 159 64 157 58 159 60 b 154 71 159 68 157 71 l 151 70 b 60 20 118 58 87 42 b 35 104 47 60 39 88 b 31 141 32 119 31 131 b 35 174 31 152 32 163 b 44 171 38 172 41 171 b 64 194 58 171 64 178 b 45 223 64 208 58 218 b 31 227 41 225 35 227 b 2 216 21 227 12 223 b -20 175 -12 201 -20 188 b -21 151 -21 161 -21 153 b 8 12 -21 116 -12 70 l 17 -20 b -46 -134 -25 -69 -46 -107 l -46 -139 b -8 -177 -43 -164 -31 -177 z m -14 -158 b -30 -136 -24 -158 -30 -151 b -9 -79 -30 -122 -23 -102 b 21 -35 1 -62 11 -47 b 26 -83 24 -53 26 -69 b 17 -130 26 -103 23 -118 b -14 -158 7 -149 -3 -158 z "},"t":{"ha":245,"x_min":0,"x_max":0,"o":"m 32 -238 b 256 67 85 -238 161 -136 l 257 71 b 252 77 257 75 255 77 l 250 77 b 245 74 248 77 246 76 b 114 -162 186 -50 142 -129 b 51 -212 85 -195 64 -212 b 33 -199 43 -212 37 -208 b 20 -127 24 -184 20 -160 b 24 -64 20 -109 21 -88 b 73 171 31 3 47 81 b 171 446 98 261 130 353 b 220 551 178 459 218 547 b 309 541 253 545 282 541 b 404 562 347 541 379 548 b 458 633 440 581 458 604 b 439 665 458 654 452 664 b 415 646 423 665 415 653 b 418 635 415 642 416 639 b 426 610 423 626 426 617 b 387 567 426 591 413 577 b 324 557 370 560 349 557 b 225 570 296 557 262 562 b 202 592 222 585 214 592 b 178 587 194 592 187 587 b 85 614 164 587 133 596 b -162 670 -15 651 -98 670 b -309 623 -218 670 -267 654 b -365 530 -346 593 -365 562 b -363 519 -365 526 -364 522 b -342 493 -359 502 -352 493 b -330 502 -337 493 -333 496 l -330 503 b -334 513 -331 503 -334 507 b -304 567 -334 525 -324 543 b -213 627 -274 603 -243 623 b -141 633 -182 631 -159 633 b 106 582 -85 633 -2 616 l 170 564 b 32 214 109 441 63 324 b -18 -18 1 104 -16 27 b -22 -103 -20 -64 -22 -92 b 4 -223 -22 -161 -13 -201 b 32 -238 12 -233 21 -238 z "},"u":{"ha":347,"x_min":0,"x_max":0,"o":"m 223 -141 b 358 68 267 -141 313 -71 l 358 69 b 350 76 358 74 355 76 b 346 71 348 75 347 74 b 305 -52 337 22 323 -19 b 260 -110 287 -85 272 -104 b 238 -117 249 -115 241 -117 b 210 -87 226 -117 216 -107 b 203 -37 205 -75 203 -58 b 226 132 203 7 211 63 b 234 189 231 154 234 173 b 219 212 234 200 228 212 b 197 191 212 212 205 205 b 181 149 193 182 187 168 b 105 38 160 110 135 73 b 56 -1 84 12 68 -1 b 39 58 45 -1 39 19 b 58 148 39 85 45 116 b 66 178 63 162 66 172 b 56 197 66 186 62 193 b 45 199 53 199 50 199 b 7 163 30 199 17 187 b -7 84 -2 143 -7 117 b 24 -19 -7 33 3 -2 b 48 -28 31 -25 39 -28 b 97 -2 63 -28 79 -20 b 167 91 125 28 148 60 b 158 4 161 60 158 31 b 163 -52 158 -16 159 -34 b 223 -141 173 -111 193 -140 z "},"v":{"ha":285,"x_min":0,"x_max":0,"o":"m 76 -117 b 111 -79 87 -117 98 -104 b 174 94 147 5 168 62 b 176 100 175 98 176 100 b 198 61 179 100 174 87 b 231 41 210 50 221 43 b 251 39 241 39 248 39 b 288 52 264 39 277 43 b 290 55 290 53 290 54 b 285 60 290 58 288 60 b 282 58 284 60 283 59 b 258 50 275 52 267 50 b 216 88 239 50 224 62 b 208 134 211 106 208 121 l 209 149 b 197 189 209 176 205 189 b 172 132 184 189 172 167 l 172 127 b 133 20 163 100 151 64 b 81 -81 115 -24 98 -58 b 45 68 75 -73 64 -22 l 34 126 b 0 191 26 169 16 191 b -11 189 -3 191 -7 190 b -25 165 -20 184 -25 176 b -17 116 -25 153 -22 136 l -13 100 b 54 -101 14 -14 35 -81 b 76 -117 64 -112 71 -117 z "},"w":{"ha":423,"x_min":0,"x_max":0,"o":"m 198 -102 b 315 -1 242 -102 281 -68 b 333 37 329 28 330 37 l 338 37 b 360 34 344 35 351 34 b 439 74 393 34 419 47 b 441 79 440 75 441 77 b 433 85 441 83 438 85 b 426 82 431 85 428 84 b 362 52 405 53 378 52 b 337 54 354 52 346 52 b 358 176 351 102 358 143 b 355 214 358 190 357 202 b 288 293 342 264 320 290 b 253 277 275 293 264 288 b 229 201 237 262 229 237 b 250 109 229 168 236 138 b 302 50 261 84 278 64 b 203 -68 274 -28 241 -68 b 127 50 168 -68 142 -28 b 115 60 125 56 121 60 b 102 50 109 60 104 56 b 56 2 92 12 68 2 b 36 24 43 2 36 9 l 36 28 b 64 124 45 87 60 124 b 77 104 71 118 75 112 b 79 103 78 104 78 103 l 79 103 b 96 139 90 116 96 127 b 76 183 96 153 89 168 b 59 192 71 189 65 192 b 45 186 54 192 50 190 b 15 145 33 177 24 163 b -7 52 -2 109 -7 77 b 4 5 -7 33 -3 16 b 45 -20 14 -12 28 -20 b 104 14 66 -20 85 -9 b 140 -77 109 -29 121 -59 b 198 -102 160 -94 179 -102 z m 307 66 b 243 199 264 94 243 138 b 248 235 243 212 245 223 b 283 269 254 258 266 269 b 317 222 302 269 313 254 b 321 168 320 197 321 179 b 307 66 321 136 317 102 z "},"x":{"ha":232,"x_min":0,"x_max":0,"o":"m -105 -206 b -71 -180 -93 -206 -81 -197 l -66 -175 b -88 -187 -75 -183 -82 -187 b -95 -186 -90 -187 -93 -186 b -106 -166 -102 -181 -106 -175 b -96 -136 -106 -158 -102 -148 b 16 5 -73 -92 -36 -45 b 123 -130 48 -85 84 -130 b 244 68 168 -130 209 -64 l 244 70 b 238 75 244 73 242 75 b 233 71 235 75 234 74 b 202 -21 225 37 215 7 b 130 -108 176 -79 151 -108 b 85 -52 113 -108 98 -90 b 60 34 76 -26 67 3 l 56 45 b 109 133 92 79 109 109 b 87 164 109 155 96 164 b 81 158 83 164 81 162 b 91 127 81 153 91 141 b 50 69 91 113 77 94 b 27 170 38 119 31 152 b 22 197 25 181 24 190 b -5 224 18 210 9 224 b -26 193 -19 224 -26 214 b -15 115 -26 174 -22 148 b 1 52 -8 85 -3 63 b 5 37 3 45 5 41 b -29 4 5 28 -3 26 b -125 -100 -80 -39 -112 -74 b -144 -161 -138 -126 -144 -146 b -140 -180 -144 -169 -142 -175 b -105 -206 -133 -197 -121 -205 z "},"y":{"ha":368,"x_min":0,"x_max":0,"o":"m 119 -421 b 222 -349 152 -421 186 -397 b 302 -87 259 -297 286 -210 b 309 -7 307 -51 309 -24 b 324 43 309 22 311 34 b 374 66 333 49 349 56 b 378 71 376 68 378 69 b 369 80 378 77 375 80 b 311 51 363 80 344 71 b 302 153 311 93 308 127 b 257 203 295 186 279 203 b 236 195 250 203 242 201 b 199 149 227 186 214 172 b 107 31 172 106 140 66 b 61 -1 86 9 71 -1 b 41 53 47 -1 41 17 b 54 141 41 83 45 113 l 60 154 b 62 163 61 157 62 161 b 60 176 62 167 61 171 b 37 193 54 195 42 193 b -1 140 19 193 6 175 b -8 77 -6 118 -8 97 b 12 -9 -8 40 -1 12 b 52 -34 22 -26 35 -34 b 123 13 73 -34 96 -18 b 184 91 144 38 165 64 b 238 157 212 130 231 152 b 248 163 243 161 245 163 b 254 134 252 163 254 153 l 256 94 b 258 37 257 76 258 57 l 258 18 b 71 -174 159 -54 97 -118 b 30 -309 43 -229 30 -274 b 36 -351 30 -323 32 -338 b 119 -421 47 -395 75 -419 z m 108 -380 b 93 -378 103 -380 98 -380 b 56 -335 71 -370 58 -355 b 54 -298 54 -314 54 -302 b 95 -172 54 -263 67 -221 b 258 -2 125 -118 180 -61 b 238 -168 256 -58 249 -113 b 173 -338 219 -252 197 -309 b 108 -380 148 -366 126 -380 z "},"z":{"ha":218,"x_min":0,"x_max":0,"o":"m -68 -133 b -24 -68 -58 -133 -43 -111 b 14 -55 -10 -59 3 -55 b 60 -70 27 -55 43 -60 b 108 -83 77 -79 92 -83 b 232 62 144 -83 185 -35 b 233 67 233 64 233 66 b 224 74 233 70 229 74 b 218 68 220 73 219 72 b 166 -28 210 31 193 -1 b 125 -62 146 -50 133 -62 b 112 -62 118 -62 113 -62 b 72 -47 99 -62 86 -58 b 30 -31 52 -37 37 -31 b 15 -31 22 -31 17 -31 b -4 -33 6 -31 0 -31 l -7 -33 l -7 -32 b 11 7 -1 -19 5 -6 b 67 119 29 48 48 85 b 126 190 85 152 105 176 b 131 199 130 192 131 195 b 121 206 131 204 127 206 b 93 199 114 206 104 203 b 46 208 81 200 66 203 b -58 224 3 218 -32 224 b -116 205 -83 224 -102 218 b -131 175 -126 195 -131 184 b -128 163 -131 171 -130 167 b -108 142 -122 150 -115 143 b -94 139 -100 140 -96 139 b -71 158 -84 139 -76 145 l -71 159 b -80 166 -71 161 -74 163 b 3 182 -75 177 -47 182 l 66 181 l 60 176 b -55 -41 37 153 -1 80 b -85 -118 -75 -87 -85 -113 b -68 -133 -85 -125 -79 -133 z "},"{":{"ha":334,"x_min":0,"x_max":0,"o":"m 151 -433 b 186 -408 163 -433 176 -425 b 189 -395 188 -403 189 -399 b 178 -378 189 -380 180 -378 b 170 -384 176 -378 173 -380 b 148 -399 162 -394 155 -399 b 79 -120 122 -399 99 -307 b 58 7 72 -55 65 -12 b 47 29 55 18 51 25 b 45 33 46 30 45 31 b 47 45 45 35 46 39 b 100 362 59 92 77 197 b 151 625 114 469 131 557 b 193 698 163 669 177 694 b 216 663 201 698 210 686 b 232 590 223 640 229 615 b 237 534 235 564 237 545 l 237 530 b 237 528 237 528 237 528 b 257 572 242 528 248 543 b 266 637 263 592 266 614 b 235 758 266 691 256 731 b 197 782 224 774 211 782 b 87 600 153 782 117 721 b 43 257 68 506 54 392 b 7 28 37 157 29 76 b 0 8 2 20 0 14 b 13 -12 0 -6 8 -12 l 16 -11 b 23 -73 18 -20 20 -40 b 112 -420 35 -266 65 -382 b 148 -433 123 -429 135 -433 z "},"|":{"ha":124,"x_min":0,"x_max":0,"o":"m 37 -176 b 56 -158 49 -176 55 -170 l 53 490 b 52 502 52 493 52 497 b 43 575 52 541 50 565 b 28 586 39 583 34 586 b 7 573 18 586 11 582 b 0 497 2 564 0 538 b 4 334 0 477 1 422 b 15 -51 12 123 15 -5 b 26 -173 15 -129 19 -170 b 37 -176 31 -175 35 -176 z "},"}":{"ha":199,"x_min":0,"x_max":0,"o":"m 66 -431 b 104 -380 81 -431 93 -414 b 123 -258 113 -355 119 -314 b 131 -64 128 -183 131 -119 b 127 18 131 -28 130 -1 b 117 54 123 39 121 50 b 109 58 114 56 111 58 b 92 32 102 58 96 49 l 90 32 b 75 87 80 32 75 50 b 88 283 75 122 79 187 b 107 584 101 410 107 511 b 92 728 107 642 102 690 b 64 775 83 755 74 770 b 42 781 54 779 47 781 b 19 770 34 781 26 778 b 0 710 6 759 0 739 b 11 660 0 696 3 679 b 22 637 16 644 20 637 l 21 651 b 24 683 21 663 22 673 b 36 709 26 701 31 709 b 46 692 39 709 43 704 b 56 590 53 665 56 631 b 45 373 56 538 52 466 b 33 155 37 275 33 203 b 41 54 33 116 36 83 b 85 -9 48 18 62 -3 b 77 -167 80 -58 77 -111 l 77 -193 b 74 -319 77 -242 76 -284 b 55 -380 72 -353 65 -374 b 44 -399 47 -384 44 -390 b 66 -431 44 -420 58 -431 z "},"~":{"ha":405,"x_min":0,"x_max":0,"o":"m 17 -8 b 51 20 26 -8 43 9 l 52 22 b 77 37 60 32 68 37 b 132 22 84 37 102 32 b 225 5 164 11 195 5 b 256 7 235 5 245 6 b 337 71 296 12 323 33 l 337 74 b 322 88 337 81 331 88 b 311 81 317 88 314 86 b 252 37 296 52 276 37 b 161 61 227 37 197 45 b 73 86 123 78 93 86 b 29 71 58 86 43 81 b 0 16 0 46 0 26 b 17 -8 0 3 6 -8 z "},"":{"ha":182,"x_min":0,"x_max":0,"o":"m 90 226 b 103 230 94 226 98 227 b 115 251 111 234 114 241 b 89 277 110 276 96 277 b 75 273 84 277 80 275 b 64 251 68 269 64 261 b 90 226 67 234 75 226 z m 9 -192 b 31 -149 16 -192 24 -178 b 93 98 60 -25 81 58 b 107 159 102 131 107 151 b 100 176 107 166 104 172 b 81 186 93 182 87 186 b 54 148 70 186 61 173 b 17 -47 42 109 30 44 b 0 -170 5 -115 0 -156 b 9 -192 0 -184 3 -192 z "},"":{"ha":222,"x_min":0,"x_max":0,"o":"m 45 -184 b 62 -96 47 -184 53 -155 b 123 -36 87 -94 111 -68 b 124 -28 123 -33 124 -31 b 115 -15 124 -21 121 -16 b 106 -22 111 -15 108 -18 b 67 -64 97 -45 84 -58 b 104 182 72 -29 84 53 b 115 151 111 165 115 155 l 116 149 b 124 129 117 136 120 130 l 131 129 b 149 146 138 129 144 134 b 154 174 153 153 154 162 b 118 258 154 214 142 242 b 119 264 119 261 119 263 b 121 261 120 262 121 261 b 125 274 123 261 124 265 b 127 313 127 293 127 306 b 115 338 127 337 120 338 b 104 326 110 338 106 334 b 96 263 101 305 98 284 b 24 186 64 257 41 231 b 0 36 8 140 0 90 b 31 -82 1 -16 11 -56 b 44 -93 34 -87 39 -90 b 49 -98 47 -94 49 -96 l 46 -119 b 39 -177 44 -131 42 -151 b 44 -184 39 -182 41 -184 z m 54 -62 b 34 10 41 -52 34 -28 b 86 180 34 75 52 131 z "},"":{"ha":351,"x_min":0,"x_max":0,"o":"m 195 -165 b 240 -150 211 -165 226 -160 b 274 -94 258 -136 269 -117 l 274 -92 b 264 -84 274 -89 271 -84 b 260 -87 262 -84 261 -85 b 209 -124 250 -112 233 -124 b 162 -111 196 -124 180 -120 b 110 -94 141 -100 124 -94 b 73 -107 98 -94 85 -98 l 91 -35 b 108 31 96 -12 102 9 b 140 23 118 26 129 23 b 186 49 161 23 177 32 l 186 52 b 181 60 186 57 184 60 l 178 60 b 174 57 176 60 175 59 b 145 41 165 47 156 41 b 113 49 134 41 123 44 b 168 235 125 109 144 172 b 218 294 183 274 199 294 b 241 278 228 294 236 288 b 247 261 245 272 247 266 b 240 239 247 259 242 250 l 239 236 l 245 235 b 269 252 254 235 262 241 b 283 288 278 262 283 274 b 277 309 283 296 281 302 b 245 342 269 328 258 339 b 218 347 232 346 222 347 b 163 325 201 347 183 340 b 72 70 123 286 93 201 b 28 80 58 77 43 80 b 1 66 16 80 7 75 b 0 61 1 64 0 62 b 6 57 0 58 2 57 b 31 62 14 57 26 62 b 68 51 44 61 57 58 l 54 -36 b 36 -143 42 -106 36 -142 b 50 -159 36 -156 49 -159 b 58 -155 53 -159 56 -158 b 97 -130 73 -138 86 -130 b 133 -143 108 -130 120 -134 b 195 -165 154 -158 175 -165 z "},"":{"ha":210,"x_min":0,"x_max":0,"o":"m 26 -37 b 35 -23 28 -37 31 -32 b 41 -13 37 -17 39 -14 b 57 -16 41 -13 47 -16 b 95 -1 71 -16 83 -11 b 109 -12 100 -8 104 -12 b 116 -3 114 -12 116 -9 b 111 14 116 1 114 7 b 136 63 126 35 135 51 b 137 84 136 75 137 82 b 122 135 137 104 132 121 b 115 145 119 140 115 143 l 115 146 b 125 166 117 150 121 157 l 132 180 b 142 195 140 200 142 191 b 138 197 142 196 140 197 b 112 164 130 197 122 186 l 106 153 b 86 165 100 157 94 161 b 69 175 83 171 77 174 b 30 162 53 175 35 168 b 23 142 24 156 32 155 b 8 146 16 145 12 146 b 1 139 3 146 1 144 l 3 139 b 13 123 9 136 7 130 b 0 64 4 104 0 84 b 29 -7 0 31 9 7 l 20 -30 l 20 -32 b 26 -37 20 -35 22 -37 z m 62 92 b 56 104 58 97 56 101 b 77 141 56 109 63 121 l 78 141 b 96 133 81 141 90 136 l 70 82 z m 100 33 b 80 71 83 62 80 64 b 92 100 80 76 84 85 l 104 125 b 120 86 115 113 120 100 b 100 33 120 68 113 50 z m 45 28 b 43 52 43 35 43 43 b 47 73 43 66 44 73 b 55 64 49 73 52 68 b 58 58 58 61 58 59 b 45 28 58 56 54 46 z m 64 12 b 53 16 60 12 56 13 l 66 46 l 73 36 b 82 18 79 27 82 22 b 68 12 82 15 77 12 z "},"":{"ha":545,"x_min":0,"x_max":0,"o":"m 130 -165 b 159 -151 146 -165 159 -159 b 153 -144 159 -146 157 -144 b 142 -150 145 -144 142 -145 b 137 -152 142 -151 140 -152 b 132 -152 134 -152 132 -152 b 127 -143 129 -151 127 -148 b 157 -76 127 -130 138 -107 b 193 -26 178 -43 190 -26 b 246 -15 225 -20 243 -16 b 250 -9 249 -13 250 -12 b 239 -2 250 -5 246 -2 l 220 -6 b 208 -7 214 -7 210 -7 b 205 -7 207 -7 206 -7 l 222 16 l 250 18 b 268 22 266 18 268 20 b 254 26 267 25 262 26 b 231 25 248 26 240 26 l 230 25 b 368 170 274 77 320 125 b 477 299 440 239 477 282 b 455 315 477 308 469 313 b 380 287 435 315 411 305 b 282 222 350 269 317 247 b 83 117 186 152 121 117 b 76 118 81 117 78 117 b 43 141 54 121 43 129 b 41 161 42 153 41 159 b 58 227 41 181 47 203 b 106 296 71 254 86 277 b 168 325 125 315 146 325 l 174 325 b 176 323 174 324 176 323 l 178 324 b 181 330 180 326 181 328 b 177 338 181 333 180 336 b 139 350 167 346 155 350 b 87 332 122 350 105 344 b 23 261 60 313 39 290 b 0 178 7 232 0 204 b 1 155 0 170 1 162 b 37 104 7 125 20 109 b 77 98 54 100 67 98 b 212 151 113 98 158 115 b 287 203 237 167 262 184 b 427 291 344 245 391 275 b 360 220 415 273 393 250 b 246 109 330 194 292 157 b 184 39 214 73 193 50 b 166 20 176 27 170 21 b 151 18 162 19 157 18 b 117 9 129 16 117 12 b 132 3 117 1 129 3 b 157 7 138 3 146 4 l 159 7 l 160 8 l 159 7 b 146 -12 157 3 153 -3 b 140 -20 143 -17 141 -20 b 136 -20 139 -20 138 -20 b 127 -28 130 -21 127 -24 b 132 -33 127 -30 128 -31 b 97 -102 111 -66 99 -89 b 93 -130 94 -115 93 -123 b 99 -152 93 -139 95 -146 b 130 -165 113 -168 127 -165 z "},"":{"ha":161,"x_min":0,"x_max":0,"o":"m 30 102 b 51 146 39 102 46 117 b 59 205 54 164 56 184 b 74 281 66 256 72 281 b 77 266 75 281 77 276 l 87 303 b 93 342 91 319 93 332 b 77 370 93 361 87 370 b 50 354 64 370 56 364 b 30 254 43 341 37 308 b 20 146 24 209 20 173 b 30 102 20 117 24 102 z m 13 -231 b 24 -224 16 -231 20 -229 b 45 -106 30 -215 37 -176 b 56 3 53 -45 56 -8 b 41 16 54 12 50 16 b 12 -54 31 16 21 -7 b 0 -176 4 -98 0 -138 b 13 -231 0 -213 4 -231 z "},"":{"ha":316,"x_min":0,"x_max":0,"o":"m 53 -191 b 111 -138 83 -186 102 -168 b 113 -122 113 -132 113 -127 b 86 -62 113 -105 104 -85 b 51 7 71 -44 59 -21 b 94 0 64 2 78 0 b 157 26 127 0 149 9 b 168 64 164 41 168 53 b 151 136 168 83 162 107 b 119 266 130 191 119 234 l 119 278 b 138 328 123 311 130 328 b 153 330 147 329 153 330 b 211 256 174 330 193 305 b 227 231 216 239 221 231 b 245 250 235 231 241 237 b 249 271 248 257 249 264 b 246 294 249 278 248 286 b 155 382 233 353 203 382 b 122 375 144 382 133 380 b 78 326 97 363 83 347 b 71 280 73 304 71 289 b 100 167 71 250 81 212 b 77 173 92 171 84 173 b 41 158 64 173 52 168 b 0 58 14 134 0 101 b 54 -79 0 18 18 -28 b 81 -132 73 -102 81 -120 b 48 -156 81 -142 71 -151 b 36 -174 40 -158 36 -164 b 52 -191 36 -185 41 -191 z m 115 43 b 51 60 100 43 79 48 b 50 63 50 60 50 61 b 58 94 50 71 53 81 b 88 124 66 114 76 124 l 90 124 b 104 121 95 123 97 123 l 106 119 l 107 119 b 117 134 112 123 115 127 b 140 67 132 105 140 83 b 115 43 140 51 132 43 z "},"":{"ha":191,"x_min":0,"x_max":0,"o":"m 93 431 b 118 442 104 431 113 435 b 123 454 121 446 123 450 b 113 473 123 463 119 469 b 99 478 108 477 104 478 b 87 475 96 478 92 477 b 71 452 77 471 71 463 b 73 443 71 448 72 446 b 93 431 77 435 83 431 z m 24 424 b 48 450 40 424 48 433 b 24 477 48 468 40 477 b 0 456 13 477 5 471 l 0 452 b 24 424 0 433 8 424 z "},"":{"ha":334,"x_min":0,"x_max":0,"o":"m 109 -134 b 157 -122 125 -134 141 -130 b 231 -52 186 -106 211 -83 b 264 27 251 -20 262 6 b 266 64 265 48 266 60 b 235 158 266 98 256 129 b 214 195 234 176 227 189 b 177 205 201 201 189 205 b 66 149 138 205 102 186 b 0 -9 22 100 0 47 b 68 -126 0 -65 22 -104 b 109 -134 81 -132 95 -134 z m 102 -107 b 46 -68 69 -102 50 -89 b 39 -22 41 -47 39 -31 b 58 60 39 3 45 31 b 140 152 75 98 102 130 b 176 163 153 159 165 163 b 199 157 184 163 192 161 b 233 113 214 148 226 133 b 244 54 241 94 244 73 b 195 -63 241 5 224 -34 b 108 -107 166 -92 137 -107 z m 137 -43 b 155 -39 143 -43 149 -41 b 171 -16 165 -33 171 -26 b 166 -12 171 -13 170 -12 b 162 -14 164 -12 163 -12 b 138 -30 153 -24 145 -30 b 129 -27 135 -30 132 -29 b 113 -4 119 -22 113 -14 b 111 14 112 6 111 12 b 133 72 111 31 119 50 b 143 80 138 77 141 80 b 145 77 144 80 145 79 b 142 60 145 75 144 69 b 137 37 138 50 137 42 b 143 28 137 31 139 28 b 153 31 145 28 149 29 b 186 82 175 45 186 62 l 186 85 b 146 132 184 117 170 132 b 104 106 133 132 119 123 b 82 30 90 86 82 60 b 117 -39 82 -1 94 -24 b 137 -43 125 -41 131 -43 z "},"":{"ha":210,"x_min":0,"x_max":0,"o":"m 24 435 b 70 473 37 435 52 448 b 107 446 78 455 90 446 b 142 469 124 446 136 454 l 142 472 b 130 484 142 478 137 484 b 107 470 120 484 121 470 b 100 472 104 470 102 471 b 87 498 92 477 87 486 b 79 516 87 509 85 515 b 58 534 72 528 65 534 b 47 535 52 535 47 535 b 19 524 37 535 27 532 b 0 475 -1 503 0 483 b 24 435 0 456 7 435 z m 27 458 b 24 461 25 458 24 459 b 31 480 24 466 26 473 b 46 495 37 490 41 495 b 50 494 47 495 49 494 b 53 487 52 492 53 489 b 43 471 53 484 50 478 l 40 469 b 27 458 34 462 29 458 z "},"":{"ha":286,"x_min":0,"x_max":0,"o":"m 93 -28 b 112 -12 109 -28 112 -16 b 75 41 112 -1 100 17 b 30 73 59 56 44 67 b 68 103 41 79 54 89 b 75 110 71 105 73 108 b 117 164 102 136 115 155 b 118 182 117 174 118 180 b 104 198 118 193 113 198 b 66 165 92 198 80 187 b 7 78 36 114 16 85 b 0 68 2 73 0 71 b 5 64 0 67 1 66 b 46 18 21 51 35 36 b 81 -24 56 3 68 -12 b 93 -28 85 -26 90 -28 z m 189 -1 b 203 18 198 3 203 9 b 197 31 203 22 201 26 b 140 77 168 58 149 73 b 134 82 136 79 134 81 b 203 144 134 86 153 85 b 218 174 213 157 218 167 b 205 184 218 181 214 184 b 176 172 197 184 188 180 b 134 125 159 157 146 141 b 102 94 121 107 111 97 b 98 89 99 94 98 92 b 102 81 98 84 99 81 b 123 59 109 78 115 71 b 170 4 132 45 147 26 b 184 -1 175 1 179 -1 z "},"":{"ha":350,"x_min":0,"x_max":0,"o":"m 262 -5 b 282 45 275 -5 282 16 b 273 92 282 66 279 82 b 262 103 269 100 265 103 b 248 94 258 103 253 100 b 64 99 168 98 107 99 b 20 98 47 99 33 98 b 0 76 7 96 0 89 b 20 57 0 63 7 57 b 59 62 28 57 41 58 b 216 75 110 71 162 75 l 243 75 b 241 47 241 71 241 62 b 243 14 241 33 241 22 b 262 -5 246 1 252 -5 z "},"":{"ha":350,"x_min":0,"x_max":0,"o":"m 125 -85 b 149 -83 132 -85 140 -85 b 245 -17 188 -73 220 -52 b 282 65 269 18 281 45 b 282 96 282 85 282 96 b 233 197 282 136 266 170 b 183 233 214 220 198 232 b 159 233 168 233 160 233 b 78 209 131 233 104 225 b 18 143 50 191 30 170 b 0 67 6 117 0 91 b 54 -60 0 9 18 -33 b 125 -85 77 -77 100 -85 z m 119 -67 b 41 6 83 -67 57 -43 b 37 44 38 18 37 31 b 84 161 37 92 52 130 b 162 190 104 180 130 190 l 164 190 b 184 178 167 185 174 181 b 235 147 205 172 222 162 b 262 79 254 125 262 102 b 258 49 262 68 261 59 b 201 -35 248 14 229 -14 b 119 -67 173 -56 146 -67 z m 111 -17 b 138 15 119 -17 129 -6 b 153 47 147 37 152 47 b 153 47 153 47 153 47 b 200 28 170 42 185 35 b 207 26 202 27 205 26 b 214 28 209 26 212 27 b 220 41 218 32 220 36 b 186 64 220 47 208 55 b 209 98 200 78 208 90 b 210 113 210 106 210 111 b 197 130 210 125 205 130 b 165 102 189 130 178 121 b 140 55 155 86 147 71 b 122 20 134 42 128 31 b 125 75 123 44 124 62 b 130 97 126 90 127 97 b 132 92 130 96 131 95 l 139 107 b 148 130 145 116 148 123 b 146 140 148 133 147 136 b 131 159 143 151 138 158 b 118 160 123 159 119 160 b 88 139 107 160 97 153 b 74 75 79 119 74 98 b 75 53 74 68 75 60 b 111 -17 81 6 92 -17 z m 167 79 b 166 81 166 79 166 80 b 178 101 166 83 170 90 b 192 116 186 111 190 115 b 167 79 182 92 167 77 z "},"":{"ha":281,"x_min":0,"x_max":0,"o":"m 30 434 b 119 448 41 434 54 445 l 144 448 b 205 451 180 448 200 449 b 214 458 211 453 214 456 b 186 473 214 467 204 471 l 147 476 b 51 484 106 478 73 481 b 23 486 42 485 33 486 b 0 463 7 486 0 473 b 30 434 0 444 19 434 z "},"":{"ha":170,"x_min":0,"x_max":0,"o":"m 48 404 b 92 427 65 404 80 412 b 102 456 99 437 102 446 b 101 465 102 459 102 462 b 68 494 95 484 84 494 b 52 488 63 494 58 492 b 37 498 47 494 43 498 b 10 482 27 498 18 492 b 0 460 3 473 0 467 l 0 451 b 16 417 0 439 5 429 b 48 404 26 408 37 404 z m 60 427 b 37 450 45 427 37 435 b 45 469 37 459 40 465 b 51 466 47 467 49 466 b 70 477 56 466 62 475 b 87 469 81 477 86 474 b 87 459 87 464 87 460 b 79 436 87 451 85 444 b 60 427 74 430 68 427 z "},"":{"ha":195,"x_min":0,"x_max":0,"o":"m 56 38 b 87 102 71 38 72 60 b 126 107 112 103 125 105 b 127 112 127 109 127 111 b 119 120 127 117 124 120 l 98 121 b 95 122 94 121 95 121 b 98 140 95 124 98 130 b 74 165 98 159 81 165 b 47 119 58 165 49 149 b 13 113 33 119 22 117 b 11 108 12 112 11 110 b 14 104 12 106 12 104 b 30 100 20 102 26 100 b 43 102 39 100 41 102 b 47 94 45 102 47 99 l 43 56 b 54 38 43 45 47 39 z m 87 -22 b 104 -21 94 -22 99 -22 b 117 -5 113 -19 117 -14 b 62 18 117 10 99 18 b 24 17 47 18 35 18 b 2 7 11 15 3 12 b 0 -3 1 2 0 -1 b 9 -18 0 -9 3 -14 b 26 -21 12 -20 18 -21 l 74 -22 z "},"":{"ha":178,"x_min":0,"x_max":0,"o":"m 10 378 b 32 382 12 378 20 379 b 46 385 46 384 44 385 l 96 387 b 111 403 106 388 111 393 b 76 419 111 414 99 419 l 77 422 b 96 453 81 425 87 435 b 111 498 105 470 110 485 b 87 528 111 511 102 520 b 64 532 79 530 72 532 b 8 492 48 532 24 524 b 5 476 6 486 5 481 b 6 467 5 473 5 470 b 27 451 10 456 17 451 b 45 461 33 451 39 454 b 75 492 60 481 71 492 b 82 494 79 493 81 494 b 87 488 85 494 87 492 b 77 456 87 481 83 471 b 32 410 65 431 50 416 b 3 395 22 408 12 403 b 0 387 1 393 0 391 b 10 378 2 381 5 378 z "},"":{"ha":172,"x_min":0,"x_max":0,"o":"m 55 363 b 78 369 64 363 71 365 b 100 395 93 378 100 387 l 100 408 b 76 437 100 422 92 432 b 104 492 95 460 104 479 l 104 499 b 85 522 100 513 94 521 b 67 524 76 524 70 524 b 17 485 43 524 17 510 b 41 458 17 467 25 458 b 58 463 50 458 56 459 l 60 465 b 52 469 60 467 57 468 b 64 483 52 472 56 477 b 75 488 69 486 73 488 b 77 485 77 488 77 487 b 65 459 77 479 73 471 b 41 431 58 449 50 439 b 38 424 39 429 38 426 b 49 414 38 416 45 414 l 54 415 b 66 418 59 417 63 418 b 71 416 69 418 71 418 b 62 411 71 414 68 412 l 60 411 b 20 419 51 411 36 419 b 2 404 13 419 7 414 b 0 395 1 401 0 398 b 12 374 0 385 4 378 b 55 363 28 366 43 363 z "},"":{"ha":131,"x_min":0,"x_max":0,"o":"m 14 462 b 46 478 26 462 37 467 b 63 516 58 494 63 506 b 62 524 63 519 62 522 b 42 540 58 534 52 540 b 21 519 32 540 25 533 b 18 500 20 511 19 505 b 0 475 14 488 0 483 l 1 471 b 14 462 3 465 8 462 z "},"":{"ha":302,"x_min":0,"x_max":0,"o":"m 16 -142 b 26 -133 22 -142 25 -139 l 28 -73 b 33 3 30 -31 31 -6 b 37 11 33 8 35 11 b 42 9 39 11 40 10 b 58 5 46 7 52 5 b 176 106 97 5 136 39 b 173 46 174 87 173 67 b 196 -130 173 -9 180 -68 b 207 -139 198 -136 201 -139 b 220 -127 216 -139 220 -135 b 232 145 222 14 226 104 b 235 195 234 165 235 182 b 212 226 235 216 228 226 b 195 216 205 226 199 222 b 184 176 189 200 185 186 b 172 140 184 164 180 153 b 130 79 162 122 148 102 b 58 28 102 45 79 28 b 37 52 45 28 39 37 l 37 66 b 43 132 37 84 39 106 b 51 205 52 183 51 203 b 36 244 51 224 46 238 b 20 250 30 248 24 250 b 2 224 10 250 4 241 b 0 172 1 211 0 194 b 2 92 0 150 1 123 b 7 -133 5 33 7 -42 b 16 -142 7 -139 10 -142 z "},"":{"ha":362,"x_min":0,"x_max":0,"o":"m 146 -121 b 160 -75 155 -121 160 -106 b 165 -58 160 -64 162 -58 b 207 -54 173 -56 184 -56 b 208 -57 208 -54 208 -55 l 207 -66 b 205 -111 206 -77 205 -92 b 214 -120 205 -117 208 -120 b 230 -54 222 -120 227 -98 l 231 -52 b 251 -44 244 -51 251 -48 b 241 -39 251 -41 248 -39 b 237 -40 239 -39 238 -39 b 232 -33 231 -40 232 -36 b 234 -9 232 -28 233 -20 b 243 90 236 9 239 41 b 294 185 271 100 294 138 l 294 197 b 250 286 288 240 273 270 b 179 309 226 301 202 309 b 38 229 127 309 79 282 b 0 129 13 193 0 159 b 37 44 0 92 12 63 b 106 20 58 28 81 20 b 132 22 115 20 123 21 l 132 -26 b 86 -45 105 -35 90 -41 b 81 -54 83 -49 81 -52 b 107 -63 81 -60 90 -63 b 125 -62 117 -63 123 -62 b 131 -63 129 -62 131 -62 l 131 -75 b 137 -118 131 -101 133 -115 b 146 -121 140 -120 144 -121 z m 168 -43 b 162 -42 164 -43 163 -43 b 163 -26 162 -38 163 -33 l 176 -16 l 168 -18 b 165 -14 166 -18 165 -17 b 166 14 165 -8 165 1 l 169 35 b 189 53 182 43 189 49 b 186 56 189 54 188 56 l 183 56 b 172 52 178 54 174 52 b 170 56 171 52 170 54 b 172 70 170 59 171 64 b 182 174 176 85 179 119 l 183 184 b 163 225 183 212 176 225 b 134 174 146 225 137 208 b 131 93 132 144 131 118 l 132 44 b 45 83 90 44 62 57 b 35 123 38 95 35 109 b 54 191 35 143 41 165 b 116 257 71 220 91 241 b 187 279 141 272 165 279 b 262 231 220 279 245 263 b 274 183 270 215 274 199 b 272 164 274 177 273 170 b 245 112 268 142 259 124 b 250 195 248 153 250 181 b 225 220 249 212 241 220 b 199 195 214 220 199 212 l 200 188 b 208 98 203 148 206 118 b 210 27 209 72 210 48 b 208 -41 210 6 209 -16 b 168 -43 186 -43 172 -43 z "},"":{"ha":119,"x_min":0,"x_max":0,"o":"m 24 20 b 40 25 30 20 35 22 b 51 46 47 30 50 37 b 25 71 50 63 42 71 b 10 67 20 71 15 70 b 0 47 3 63 0 56 l 1 39 b 24 20 7 19 20 20 z "},"":{"ha":171,"x_min":0,"x_max":0,"o":"m 39 -145 b 66 -139 48 -145 58 -143 b 99 -113 86 -130 97 -121 b 101 -96 100 -103 101 -98 b 60 -52 101 -81 87 -66 b 54 -35 56 -50 54 -43 l 55 -22 b 37 2 55 -8 49 0 l 35 2 b 13 -33 20 2 13 -9 b 31 -68 13 -50 19 -62 b 66 -85 49 -79 66 -82 b 12 -100 66 -90 48 -95 b -2 -120 3 -102 -2 -109 b 7 -138 -2 -127 1 -133 b 39 -145 18 -142 28 -145 z "},"":{"ha":121,"x_min":0,"x_max":0,"o":"m 35 400 b 51 412 43 400 49 404 b 54 464 53 423 54 440 l 52 508 b 31 535 50 526 43 535 b 16 524 22 535 18 531 b 10 514 15 522 13 518 b 0 492 3 505 0 498 b 10 479 0 484 5 479 b 16 481 12 479 14 480 b 16 479 16 481 16 481 l 16 458 b 18 412 16 439 16 424 b 35 400 20 404 26 400 z "},"":{"ha":153,"x_min":0,"x_max":0,"o":"m 37 415 b 72 435 50 415 62 422 b 85 473 81 446 85 459 b 82 493 85 479 84 486 b 46 527 74 515 62 527 b 34 521 41 527 37 525 b 8 501 22 520 13 513 b 0 467 3 489 0 477 b 29 416 0 441 9 425 z m 45 440 b 37 457 41 440 37 446 b 48 507 37 486 48 498 b 66 475 61 503 66 486 b 45 440 66 458 54 440 z "},"":{"ha":276,"x_min":0,"x_max":0,"o":"m 96 -109 b 114 -87 101 -109 107 -101 b 147 -31 119 -77 130 -59 b 181 19 161 -10 172 6 b 208 70 199 45 208 62 b 190 100 208 76 202 86 b 157 142 174 118 163 132 b 126 173 142 163 132 173 b 114 155 118 173 114 163 b 113 153 113 155 113 154 b 144 101 113 144 123 127 b 181 62 155 86 167 73 l 167 41 b 104 -60 144 7 123 -26 b 84 -99 91 -83 84 -96 b 94 -109 84 -104 88 -109 z m 9 -94 b 22 -88 13 -94 18 -92 b 62 -39 27 -83 40 -67 l 64 -36 b 113 35 93 3 109 26 b 115 47 115 40 115 43 b 105 69 115 52 112 59 b 56 142 78 111 62 135 l 55 143 b 39 149 53 146 48 149 b 19 127 26 149 19 141 b 55 67 19 111 31 92 b 86 43 70 53 80 45 b 92 39 90 42 92 41 b 86 29 92 37 90 33 l 85 26 b 28 -46 65 -1 46 -25 b 0 -83 9 -66 0 -79 b 9 -94 0 -89 4 -94 z "},"":{"ha":422,"x_min":0,"x_max":0,"o":"m 14 -182 b 146 56 26 -182 71 -103 b 267 329 191 152 232 243 b 323 494 302 414 321 469 b 307 510 323 505 318 510 b 294 505 302 510 298 508 b 148 170 293 500 244 389 b 0 -171 50 -55 0 -169 b 14 -182 0 -176 5 -182 z m 85 234 b 107 250 96 234 102 239 b 130 416 112 267 120 323 b 137 486 135 458 137 481 b 119 507 137 500 127 507 b 100 492 109 507 103 502 b 54 455 92 473 76 460 b 51 454 52 454 51 454 b 40 445 43 451 40 448 l 40 439 b 51 425 40 433 43 429 b 62 423 54 424 57 423 b 87 429 68 423 77 425 b 75 345 87 423 82 395 b 63 258 67 295 63 266 b 85 234 63 239 77 234 z m 321 -192 b 342 -172 334 -192 340 -185 b 344 -127 343 -158 344 -143 l 344 -117 b 354 12 344 -87 347 -43 l 354 14 b 349 25 354 18 353 22 b 343 28 347 27 345 28 b 336 26 341 28 338 27 b 281 12 319 17 300 12 l 268 12 b 289 41 275 21 282 31 b 290 36 289 38 290 36 l 292 37 b 304 67 294 47 298 57 b 324 125 313 81 319 100 b 326 132 325 127 326 130 b 321 142 326 136 324 139 b 307 149 317 146 313 149 b 291 140 300 149 295 146 b 277 113 286 132 281 123 b 191 -14 261 76 233 34 b 180 -34 184 -22 180 -28 b 195 -50 180 -44 185 -50 b 225 -32 201 -50 212 -43 l 236 -22 b 268 -12 246 -12 254 -12 b 304 -9 284 -11 296 -9 b 315 -7 309 -8 313 -7 b 320 -12 318 -7 320 -9 b 317 -23 320 -14 319 -18 b 306 -77 314 -33 310 -51 b 300 -142 302 -98 300 -120 b 302 -178 300 -154 301 -166 b 321 -192 304 -187 311 -192 z "},"":{"ha":427,"x_min":0,"x_max":0,"o":"m 16 -176 b 28 -168 21 -176 25 -173 b 132 66 35 -155 69 -77 b 309 492 250 332 309 474 b 308 494 309 493 309 494 b 299 515 307 508 304 515 b 203 349 285 515 252 459 b 39 -52 149 229 94 96 b 0 -161 13 -119 0 -156 b 16 -176 0 -168 6 -176 z m 39 176 b 58 191 48 176 54 181 b 81 338 60 200 68 249 b 100 487 94 432 100 481 b 81 505 100 499 93 505 b 64 492 72 505 66 500 b 21 425 50 457 36 435 b 15 415 17 422 15 418 b 26 406 15 409 19 406 b 42 412 31 406 36 408 b 47 414 44 414 46 414 b 47 412 47 414 47 414 b 45 394 47 411 47 405 b 33 323 43 383 39 359 b 20 195 24 261 20 218 b 39 176 21 182 27 176 z m 203 -124 b 296 -119 229 -121 260 -119 b 354 -115 327 -119 347 -117 b 359 -106 357 -113 359 -110 b 354 -94 359 -101 357 -97 b 323 -89 348 -91 337 -90 l 278 -89 l 252 -90 b 256 -85 252 -89 254 -87 b 313 -6 273 -71 292 -45 b 345 100 334 33 345 68 b 328 140 345 117 339 131 b 313 146 323 144 317 146 b 298 139 308 146 302 144 b 281 101 279 122 281 104 b 298 69 281 89 287 78 b 254 -25 286 28 271 -3 b 188 -95 237 -47 216 -71 b 182 -106 184 -98 182 -102 b 203 -124 182 -117 193 -124 z "},"":{"ha":457,"x_min":0,"x_max":0,"o":"m 97 -156 b 111 -149 102 -156 106 -153 b 252 158 124 -127 171 -26 b 376 479 334 347 376 454 l 376 480 b 373 482 374 480 374 481 b 363 492 368 489 366 492 b 300 391 354 492 333 458 b 134 5 267 320 211 192 l 92 -100 b 80 -138 84 -118 80 -131 b 97 -156 80 -150 85 -156 z m 79 254 b 117 267 94 254 106 258 b 142 317 134 281 142 298 b 104 366 142 340 130 356 b 119 391 109 374 113 382 b 144 449 136 416 144 435 b 132 477 144 459 140 468 b 100 490 122 486 111 490 b 87 488 96 490 92 489 b 42 441 54 480 42 456 b 68 408 42 428 52 408 b 82 412 73 408 77 409 b 85 414 83 413 85 414 l 86 414 l 85 410 b 73 382 83 405 79 396 b 67 366 69 373 67 368 b 94 337 67 343 81 340 b 119 313 111 335 119 327 b 115 300 119 309 117 304 b 81 284 107 290 96 284 b 39 302 68 284 54 290 b 12 317 27 312 18 317 b 0 304 4 317 0 313 b 46 260 0 288 16 273 b 79 254 58 256 68 254 z m 94 429 b 88 434 94 429 96 432 b 96 441 92 439 94 441 b 98 439 97 441 98 440 b 96 433 98 439 97 436 z m 345 -144 b 355 -140 349 -144 351 -142 b 369 -98 364 -134 369 -119 b 389 53 371 -52 378 -1 l 389 55 b 374 71 389 65 385 71 b 366 66 371 71 368 69 b 296 19 347 45 323 29 b 359 131 338 72 359 109 b 350 141 359 138 356 141 b 325 120 338 141 333 134 b 228 1 307 91 275 51 b 223 -11 224 -3 223 -7 b 226 -20 223 -14 224 -17 b 241 -28 229 -26 235 -28 l 245 -28 b 343 13 286 -18 319 -5 b 321 -90 329 -31 321 -66 b 345 -144 321 -125 330 -144 z "},"":{"ha":336,"x_min":0,"x_max":0,"o":"m 245 231 b 255 234 248 231 252 232 b 268 255 264 239 268 246 b 256 275 268 262 264 269 b 243 279 252 277 248 279 b 233 276 240 279 237 278 b 220 255 224 271 220 264 b 232 235 220 248 224 241 b 245 231 237 233 241 231 z m 77 -203 b 201 -129 122 -203 163 -178 b 248 -38 236 -79 248 -52 b 237 -26 247 -24 240 -26 b 229 -28 235 -26 232 -26 b 176 -81 212 -39 195 -56 b 85 -153 140 -130 108 -153 b 52 -142 75 -153 63 -150 b 49 -140 51 -142 50 -142 b 41 -113 44 -136 41 -127 b 48 -76 41 -102 43 -90 b 167 83 70 -9 118 40 b 256 196 208 120 243 155 l 257 201 b 241 216 257 212 249 216 b 223 201 231 216 225 211 b 136 80 215 147 179 115 b 44 -12 104 56 73 26 b 0 -125 15 -58 0 -95 b 77 -203 0 -177 26 -203 z "},"":{"ha":675,"x_min":0,"x_max":0,"o":"m 608 795 b 619 802 615 795 619 798 b 609 814 619 806 616 810 b 605 824 606 817 605 821 b 607 841 605 827 607 830 b 590 859 607 853 602 859 b 570 842 577 859 570 854 l 570 841 b 601 795 575 808 593 795 z m 571 -274 b 581 -272 574 -274 578 -273 b 595 -216 587 -269 591 -250 b 604 -13 598 -175 601 -107 l 611 254 l 765 257 b 772 264 770 258 772 260 b 771 268 772 266 772 267 b 765 272 770 271 768 272 b 612 271 696 272 646 272 l 617 456 b 622 665 621 570 622 640 l 620 637 b 615 585 618 602 616 585 l 616 746 b 601 762 615 757 610 762 b 583 751 592 762 587 758 b 366 266 515 587 442 426 b 264 261 317 264 283 262 b 244 260 255 260 248 260 b 239 261 241 260 239 260 b 256 268 239 262 244 264 b 341 302 273 274 302 286 l 293 286 b 205 258 269 277 240 268 b 39 235 126 252 71 245 b 1 212 14 227 1 219 l 1 211 b 16 201 1 205 10 201 b 109 221 53 208 84 215 b 172 233 129 226 150 230 b 355 243 210 236 271 239 b 258 41 316 161 283 94 b 139 -215 210 -56 170 -142 b 138 -220 138 -217 138 -218 b 140 -228 138 -223 138 -226 b 152 -234 144 -232 147 -234 b 161 -228 155 -234 159 -232 b 393 245 231 -102 309 56 b 559 252 448 248 504 250 b 549 -174 553 43 549 -99 b 555 -260 549 -219 551 -248 b 568 -273 557 -269 562 -273 b 568 -274 568 -273 568 -273 z m 404 267 b 516 526 453 377 491 464 b 571 639 547 601 565 639 b 575 610 574 639 575 629 b 570 516 575 589 574 558 b 559 270 567 456 563 374 z "},"":{"ha":675,"x_min":0,"x_max":0,"o":"m 588 796 b 622 814 600 796 612 802 b 631 843 628 821 631 831 b 612 867 631 859 625 867 b 595 848 601 865 595 859 l 595 836 b 585 812 595 827 592 820 b 578 802 581 808 578 804 b 588 796 578 798 582 796 z m 571 -274 b 581 -272 574 -274 578 -273 b 595 -216 587 -269 591 -250 b 604 -13 598 -175 601 -107 l 611 254 l 765 257 b 772 264 770 258 772 260 b 771 268 772 266 772 267 b 765 272 770 271 768 272 b 612 271 696 272 646 272 l 617 456 b 622 665 621 570 622 640 l 620 637 b 615 585 618 602 616 585 l 616 746 b 601 762 615 757 610 762 b 583 751 592 762 587 758 b 366 266 515 587 442 426 b 264 261 317 264 283 262 b 244 260 255 260 248 260 b 239 261 241 260 239 260 b 256 268 239 262 244 264 b 341 302 273 274 302 286 l 293 286 b 205 258 269 277 240 268 b 39 235 126 252 71 245 b 1 212 14 227 1 219 l 1 211 b 16 201 1 205 10 201 b 109 221 53 208 84 215 b 172 233 129 226 150 230 b 355 243 210 236 271 239 b 258 41 316 161 283 94 b 139 -215 210 -56 170 -142 b 138 -220 138 -217 138 -218 b 140 -228 138 -223 138 -226 b 152 -234 144 -232 147 -234 b 161 -228 155 -234 159 -232 b 393 245 231 -102 309 56 b 559 252 448 248 504 250 b 549 -174 553 43 549 -99 b 555 -260 549 -219 551 -248 b 568 -273 557 -269 562 -273 b 568 -274 568 -273 568 -273 z m 404 267 b 516 526 453 377 491 464 b 571 639 547 601 565 639 b 575 610 574 639 575 629 b 570 516 575 589 574 558 b 559 270 567 456 563 374 z "},"":{"ha":675,"x_min":0,"x_max":0,"o":"m 576 791 b 592 801 583 791 587 795 b 606 825 600 812 604 820 l 606 827 b 612 821 607 827 609 824 b 634 809 623 813 629 809 b 642 817 640 809 642 812 b 616 840 642 823 627 827 b 612 847 614 842 612 844 b 604 854 611 852 608 854 b 587 845 600 854 594 851 b 563 805 571 831 563 817 b 576 791 563 797 571 791 z m 571 -274 b 581 -272 574 -274 578 -273 b 595 -216 587 -269 591 -250 b 604 -13 598 -175 601 -107 l 611 254 l 765 257 b 772 264 770 258 772 260 b 771 268 772 266 772 267 b 765 272 770 271 768 272 b 612 271 696 272 646 272 l 617 456 b 622 665 621 570 622 640 l 620 637 b 615 585 618 602 616 585 l 616 746 b 601 762 615 757 610 762 b 583 751 592 762 587 758 b 366 266 515 587 442 426 b 264 261 317 264 283 262 b 244 260 255 260 248 260 b 239 261 241 260 239 260 b 256 268 239 262 244 264 b 341 302 273 274 302 286 l 293 286 b 205 258 269 277 240 268 b 39 235 126 252 71 245 b 1 212 14 227 1 219 l 1 211 b 16 201 1 205 10 201 b 109 221 53 208 84 215 b 172 233 129 226 150 230 b 355 243 210 236 271 239 b 258 41 316 161 283 94 b 139 -215 210 -56 170 -142 b 138 -220 138 -217 138 -218 b 140 -228 138 -223 138 -226 b 152 -234 144 -232 147 -234 b 161 -228 155 -234 159 -232 b 393 245 231 -102 309 56 b 559 252 448 248 504 250 b 549 -174 553 43 549 -99 b 555 -260 549 -219 551 -248 b 568 -273 557 -269 562 -273 b 568 -274 568 -273 568 -273 z m 404 267 b 516 526 453 377 491 464 b 571 639 547 601 565 639 b 575 610 574 639 575 629 b 570 516 575 589 574 558 b 559 270 567 456 563 374 z "},"":{"ha":675,"x_min":0,"x_max":0,"o":"m 566 793 b 579 804 571 793 576 797 b 586 816 583 810 585 814 b 587 819 587 819 587 819 l 587 820 b 591 821 589 821 590 821 b 610 815 593 821 600 819 b 637 810 619 812 629 810 b 656 825 645 810 652 815 l 658 829 b 648 835 658 833 654 835 b 643 829 645 834 644 833 b 634 822 642 825 639 822 b 606 833 629 822 620 825 b 574 843 592 840 582 843 b 564 840 571 843 568 842 l 563 840 l 564 841 l 563 840 b 543 826 551 836 544 831 b 542 815 543 821 542 817 b 547 803 542 810 543 806 b 559 793 551 797 555 794 z m 571 -274 b 581 -272 574 -274 578 -273 b 595 -216 587 -269 591 -250 b 604 -13 598 -175 601 -107 l 611 254 l 765 257 b 772 264 770 258 772 260 b 771 268 772 266 772 267 b 765 272 770 271 768 272 b 612 271 696 272 646 272 l 617 456 b 622 665 621 570 622 640 l 620 637 b 615 585 618 602 616 585 l 616 746 b 601 762 615 757 610 762 b 583 751 592 762 587 758 b 366 266 515 587 442 426 b 264 261 317 264 283 262 b 244 260 255 260 248 260 b 239 261 241 260 239 260 b 256 268 239 262 244 264 b 341 302 273 274 302 286 l 293 286 b 205 258 269 277 240 268 b 39 235 126 252 71 245 b 1 212 14 227 1 219 l 1 211 b 16 201 1 205 10 201 b 109 221 53 208 84 215 b 172 233 129 226 150 230 b 355 243 210 236 271 239 b 258 41 316 161 283 94 b 139 -215 210 -56 170 -142 b 138 -220 138 -217 138 -218 b 140 -228 138 -223 138 -226 b 152 -234 144 -232 147 -234 b 161 -228 155 -234 159 -232 b 393 245 231 -102 309 56 b 559 252 448 248 504 250 b 549 -174 553 43 549 -99 b 555 -260 549 -219 551 -248 b 568 -273 557 -269 562 -273 b 568 -274 568 -273 568 -273 z m 404 267 b 516 526 453 377 491 464 b 571 639 547 601 565 639 b 575 610 574 639 575 629 b 570 516 575 589 574 558 b 559 270 567 456 563 374 z "},"":{"ha":675,"x_min":0,"x_max":0,"o":"m 627 803 b 652 822 644 803 652 809 b 642 844 652 832 648 840 b 633 846 638 846 635 846 b 621 842 629 846 625 845 b 608 821 612 834 608 827 l 609 816 b 627 803 612 808 618 804 z m 568 795 b 597 825 584 795 597 807 b 575 846 595 839 588 846 b 547 810 562 846 547 838 b 566 795 551 800 558 795 z m 571 -274 b 581 -272 574 -274 578 -273 b 595 -216 587 -269 591 -250 b 604 -13 598 -175 601 -107 l 611 254 l 765 257 b 772 264 770 258 772 260 b 771 268 772 266 772 267 b 765 272 770 271 768 272 b 612 271 696 272 646 272 l 617 456 b 622 665 621 570 622 640 l 620 637 b 615 585 618 602 616 585 l 616 746 b 601 762 615 757 610 762 b 583 751 592 762 587 758 b 366 266 515 587 442 426 b 264 261 317 264 283 262 b 244 260 255 260 248 260 b 239 261 241 260 239 260 b 256 268 239 262 244 264 b 341 302 273 274 302 286 l 293 286 b 205 258 269 277 240 268 b 39 235 126 252 71 245 b 1 212 14 227 1 219 l 1 211 b 16 201 1 205 10 201 b 109 221 53 208 84 215 b 172 233 129 226 150 230 b 355 243 210 236 271 239 b 258 41 316 161 283 94 b 139 -215 210 -56 170 -142 b 138 -220 138 -217 138 -218 b 140 -228 138 -223 138 -226 b 152 -234 144 -232 147 -234 b 161 -228 155 -234 159 -232 b 393 245 231 -102 309 56 b 559 252 448 248 504 250 b 549 -174 553 43 549 -99 b 555 -260 549 -219 551 -248 b 568 -273 557 -269 562 -273 b 568 -274 568 -273 568 -273 z m 404 267 b 516 526 453 377 491 464 b 571 639 547 601 565 639 b 575 610 574 639 575 629 b 570 516 575 589 574 558 b 559 270 567 456 563 374 z "},"":{"ha":675,"x_min":0,"x_max":0,"o":"m 598 803 b 634 840 617 803 634 821 b 622 867 634 850 630 859 b 604 875 614 872 608 875 l 595 876 b 566 861 581 876 569 869 b 564 843 565 854 564 848 b 570 819 564 833 566 825 b 598 803 578 808 587 803 z m 606 820 b 602 821 605 820 604 820 b 593 836 596 824 593 829 b 611 856 593 846 598 856 b 623 843 618 855 623 850 b 606 820 623 834 615 820 z m 571 -274 b 581 -272 574 -274 578 -273 b 595 -216 587 -269 591 -250 b 604 -13 598 -175 601 -107 l 611 254 l 765 257 b 772 264 770 258 772 260 b 771 268 772 266 772 267 b 765 272 770 271 768 272 b 612 271 696 272 646 272 l 617 456 b 622 665 621 570 622 640 l 620 637 b 615 585 618 602 616 585 l 616 746 b 601 762 615 757 610 762 b 583 751 592 762 587 758 b 366 266 515 587 442 426 b 264 261 317 264 283 262 b 244 260 255 260 248 260 b 239 261 241 260 239 260 b 256 268 239 262 244 264 b 341 302 273 274 302 286 l 293 286 b 205 258 269 277 240 268 b 39 235 126 252 71 245 b 1 212 14 227 1 219 l 1 211 b 16 201 1 205 10 201 b 109 221 53 208 84 215 b 172 233 129 226 150 230 b 355 243 210 236 271 239 b 258 41 316 161 283 94 b 139 -215 210 -56 170 -142 b 138 -220 138 -217 138 -218 b 140 -228 138 -223 138 -226 b 152 -234 144 -232 147 -234 b 161 -228 155 -234 159 -232 b 393 245 231 -102 309 56 b 559 252 448 248 504 250 b 549 -174 553 43 549 -99 b 555 -260 549 -219 551 -248 b 568 -273 557 -269 562 -273 b 568 -274 568 -273 568 -273 z m 404 267 b 516 526 453 377 491 464 b 571 639 547 601 565 639 b 575 610 574 639 575 629 b 570 516 575 589 574 558 b 559 270 567 456 563 374 z "},"":{"ha":1122,"x_min":0,"x_max":0,"o":"m 789 -324 b 1138 83 880 -324 996 -189 l 1139 86 b 1132 93 1139 90 1137 92 b 1126 90 1130 93 1128 92 b 943 -204 1062 -40 1001 -138 b 798 -302 886 -270 837 -302 b 725 -233 755 -302 731 -279 b 715 -129 719 -186 715 -151 b 752 152 715 -58 728 36 b 792 162 769 157 782 160 b 841 182 824 170 840 176 b 826 191 841 185 840 191 b 778 184 805 191 789 189 b 766 182 773 183 769 182 b 760 189 762 182 760 184 b 774 243 760 194 764 212 b 784 275 777 252 781 263 b 899 529 825 409 863 493 b 922 581 911 543 919 554 b 1046 603 952 587 994 595 b 1223 618 1107 613 1166 618 b 1335 601 1267 618 1305 612 l 1339 600 b 1345 606 1343 600 1345 602 b 1326 623 1345 612 1339 617 b 1230 636 1306 631 1274 636 b 920 602 1152 636 1049 625 b 896 621 916 615 907 621 b 869 601 888 621 879 614 b 861 590 865 595 864 590 b 616 528 829 590 748 569 b 618 627 617 568 618 601 b 616 738 618 683 617 720 b 614 765 615 745 614 754 b 600 781 614 775 610 781 b 582 769 591 781 585 777 b 444 455 538 664 492 559 b 415 412 425 439 415 425 b 418 399 415 408 416 404 b 364 284 401 361 382 323 b 263 279 317 282 283 281 b 243 278 254 279 248 278 b 237 279 239 278 237 279 b 254 286 237 280 243 283 b 340 321 273 292 301 304 l 290 303 b 205 277 267 294 238 286 b 38 253 127 271 71 263 b 0 230 13 245 0 237 b 15 220 0 222 9 220 b 108 239 55 227 85 233 b 171 251 127 245 149 249 b 354 262 204 254 265 258 b 256 59 315 180 283 113 b 138 -197 209 -38 170 -123 l 137 -202 b 140 -210 137 -205 138 -208 b 151 -216 142 -214 146 -216 b 161 -210 155 -216 158 -214 b 393 263 231 -84 308 74 b 558 270 448 266 503 268 b 549 -129 552 56 549 -77 b 550 -212 549 -169 549 -197 b 559 -253 552 -236 555 -250 b 571 -256 562 -255 566 -256 b 589 -236 581 -256 587 -249 b 596 -153 593 -220 595 -193 l 597 -141 b 603 34 600 -60 602 -2 b 625 115 604 109 606 113 b 640 119 629 116 634 117 b 669 130 652 123 662 126 b 691 136 680 134 687 136 b 697 127 695 136 697 133 b 694 102 697 121 696 113 b 682 -6 689 81 685 45 b 680 -71 680 -28 680 -50 b 724 -286 680 -170 694 -242 b 789 -324 742 -311 764 -324 z m 491 484 b 541 598 512 532 529 570 b 572 663 558 642 568 663 b 574 652 573 663 574 660 b 571 614 574 644 573 631 b 566 511 569 589 568 554 b 491 484 541 503 515 494 z m 611 290 b 616 491 613 357 614 424 b 848 564 702 524 779 548 b 734 290 799 471 761 380 z m 402 285 b 449 387 429 342 440 372 b 460 393 451 391 455 393 b 526 431 479 396 501 409 b 538 444 534 439 538 443 l 538 444 b 490 431 526 437 497 431 b 486 432 488 431 486 431 b 564 471 486 437 512 450 l 558 288 z m 610 271 l 730 275 b 712 201 720 240 714 216 b 676 163 707 169 705 168 b 607 145 662 161 639 155 z "},"":{"ha":625,"x_min":0,"x_max":0,"o":"m 256 -407 b 267 -405 259 -407 263 -406 b 294 -388 283 -399 292 -393 b 296 -376 296 -383 296 -379 b 279 -346 296 -368 290 -357 b 271 -336 275 -341 272 -338 l 331 -322 b 555 -139 418 -297 492 -236 b 639 88 592 -83 620 -7 b 632 96 639 93 637 96 b 627 92 629 96 627 94 b 540 -136 611 3 582 -73 b 404 -271 498 -199 452 -243 b 267 -312 354 -298 309 -312 b 105 -223 200 -312 146 -282 b 44 3 69 -172 49 -97 l 43 31 b 82 307 43 130 56 221 b 188 549 110 401 145 482 b 303 684 231 616 269 661 b 382 719 336 707 363 719 b 452 591 429 719 452 676 b 450 552 452 579 451 566 l 450 551 b 456 545 450 547 452 545 b 493 593 469 545 481 561 b 500 640 498 608 500 624 b 482 709 500 664 494 687 b 417 768 462 746 440 766 b 376 772 393 770 380 772 b 236 696 335 772 288 747 b 87 474 175 634 125 560 b 16 240 50 388 26 310 b 0 68 5 170 0 113 b 87 -248 0 -67 29 -173 b 251 -334 127 -300 182 -329 b 250 -347 250 -340 250 -344 b 261 -363 250 -355 254 -360 b 275 -376 269 -367 273 -371 b 273 -377 275 -376 275 -377 l 267 -378 b 260 -376 263 -378 261 -377 l 261 -376 b 248 -374 256 -375 252 -374 b 234 -388 239 -374 234 -379 b 256 -407 234 -401 248 -407 z "},"":{"ha":714,"x_min":0,"x_max":0,"o":"m 519 636 b 530 644 526 636 530 639 b 520 656 530 647 527 651 b 516 665 517 659 516 662 b 518 682 516 668 518 671 b 501 701 518 694 513 701 b 481 684 488 701 481 695 l 481 682 b 512 636 486 650 505 636 z m 380 -342 b 729 65 471 -342 587 -207 l 730 68 b 724 75 730 71 727 75 b 718 71 722 75 720 73 b 534 -222 654 -58 592 -157 b 389 -321 477 -288 428 -321 b 317 -251 347 -321 323 -298 b 307 -146 311 -204 307 -169 b 343 134 307 -75 319 18 b 428 158 394 146 407 148 b 432 163 431 159 432 161 b 424 172 432 169 429 172 l 417 172 b 369 166 396 172 380 170 b 357 164 364 165 360 164 b 351 170 353 164 351 166 b 366 225 351 176 356 195 b 441 432 395 323 420 392 b 488 509 460 469 476 494 b 513 563 502 528 511 541 b 814 600 630 587 731 600 b 926 583 859 600 896 594 l 930 582 b 937 587 935 582 937 584 b 918 604 937 593 930 599 b 821 618 897 613 865 618 b 511 584 745 618 641 606 b 487 603 507 597 498 603 b 455 573 477 603 466 593 b 220 513 368 555 290 535 b 79 464 151 491 104 475 b 12 414 38 444 16 427 b 7 391 9 401 7 394 b 34 370 7 376 16 370 b 130 425 56 370 88 388 l 130 425 l 108 418 b 80 412 93 414 83 412 b 78 412 79 412 78 412 b 100 427 78 414 85 420 b 224 479 132 444 173 461 b 355 523 274 498 317 512 l 376 530 b 435 545 411 540 431 545 b 437 543 437 545 437 545 b 433 533 437 541 436 538 l 428 524 b 305 194 366 401 325 291 b 290 151 299 166 294 152 b 196 127 260 144 228 136 b 151 100 160 116 151 110 b 166 82 151 87 160 82 b 205 92 170 82 183 85 b 232 101 218 97 231 100 b 261 111 243 104 254 108 b 283 118 271 116 278 118 b 288 110 286 118 288 115 b 285 84 288 104 287 96 b 273 -24 281 63 277 26 b 271 -88 271 -47 271 -68 b 315 -304 271 -188 286 -260 b 380 -342 333 -330 355 -342 z "},"":{"ha":714,"x_min":0,"x_max":0,"o":"m 481 637 b 515 655 494 637 505 644 b 525 684 522 663 525 673 b 506 709 525 701 519 709 b 488 689 494 707 488 700 l 489 677 b 478 654 489 669 486 661 b 472 643 474 649 472 646 b 481 637 472 640 475 637 z m 380 -342 b 729 65 471 -342 587 -207 l 730 68 b 724 75 730 71 727 75 b 718 71 722 75 720 73 b 534 -222 654 -58 592 -157 b 389 -321 477 -288 428 -321 b 317 -251 347 -321 323 -298 b 307 -146 311 -204 307 -169 b 343 134 307 -75 319 18 b 428 158 394 146 407 148 b 432 163 431 159 432 161 b 424 172 432 169 429 172 l 417 172 b 369 166 396 172 380 170 b 357 164 364 165 360 164 b 351 170 353 164 351 166 b 366 225 351 176 356 195 b 441 432 395 323 420 392 b 488 509 460 469 476 494 b 513 563 502 528 511 541 b 814 600 630 587 731 600 b 926 583 859 600 896 594 l 930 582 b 937 587 935 582 937 584 b 918 604 937 593 930 599 b 821 618 897 613 865 618 b 511 584 745 618 641 606 b 487 603 507 597 498 603 b 455 573 477 603 466 593 b 220 513 368 555 290 535 b 79 464 151 491 104 475 b 12 414 38 444 16 427 b 7 391 9 401 7 394 b 34 370 7 376 16 370 b 130 425 56 370 88 388 l 130 425 l 108 418 b 80 412 93 414 83 412 b 78 412 79 412 78 412 b 100 427 78 414 85 420 b 224 479 132 444 173 461 b 355 523 274 498 317 512 l 376 530 b 435 545 411 540 431 545 b 437 543 437 545 437 545 b 433 533 437 541 436 538 l 428 524 b 305 194 366 401 325 291 b 290 151 299 166 294 152 b 196 127 260 144 228 136 b 151 100 160 116 151 110 b 166 82 151 87 160 82 b 205 92 170 82 183 85 b 232 101 218 97 231 100 b 261 111 243 104 254 108 b 283 118 271 116 278 118 b 288 110 286 118 288 115 b 285 84 288 104 287 96 b 273 -24 281 63 277 26 b 271 -88 271 -47 271 -68 b 315 -304 271 -188 286 -260 b 380 -342 333 -330 355 -342 z "},"":{"ha":714,"x_min":0,"x_max":0,"o":"m 467 633 b 482 643 473 633 477 637 b 496 667 490 654 494 662 l 496 669 b 503 663 497 669 499 666 b 524 651 513 655 519 651 b 532 659 530 651 532 654 b 506 682 532 665 517 669 b 502 689 504 684 503 686 b 494 696 501 694 498 696 b 477 687 490 696 484 693 b 453 647 461 673 453 659 b 467 633 453 639 461 633 z m 380 -342 b 729 65 471 -342 587 -207 l 730 68 b 724 75 730 71 727 75 b 718 71 722 75 720 73 b 534 -222 654 -58 592 -157 b 389 -321 477 -288 428 -321 b 317 -251 347 -321 323 -298 b 307 -146 311 -204 307 -169 b 343 134 307 -75 319 18 b 428 158 394 146 407 148 b 432 163 431 159 432 161 b 424 172 432 169 429 172 l 417 172 b 369 166 396 172 380 170 b 357 164 364 165 360 164 b 351 170 353 164 351 166 b 366 225 351 176 356 195 b 441 432 395 323 420 392 b 488 509 460 469 476 494 b 513 563 502 528 511 541 b 814 600 630 587 731 600 b 926 583 859 600 896 594 l 930 582 b 937 587 935 582 937 584 b 918 604 937 593 930 599 b 821 618 897 613 865 618 b 511 584 745 618 641 606 b 487 603 507 597 498 603 b 455 573 477 603 466 593 b 220 513 368 555 290 535 b 79 464 151 491 104 475 b 12 414 38 444 16 427 b 7 391 9 401 7 394 b 34 370 7 376 16 370 b 130 425 56 370 88 388 l 130 425 l 108 418 b 80 412 93 414 83 412 b 78 412 79 412 78 412 b 100 427 78 414 85 420 b 224 479 132 444 173 461 b 355 523 274 498 317 512 l 376 530 b 435 545 411 540 431 545 b 437 543 437 545 437 545 b 433 533 437 541 436 538 l 428 524 b 305 194 366 401 325 291 b 290 151 299 166 294 152 b 196 127 260 144 228 136 b 151 100 160 116 151 110 b 166 82 151 87 160 82 b 205 92 170 82 183 85 b 232 101 218 97 231 100 b 261 111 243 104 254 108 b 283 118 271 116 278 118 b 288 110 286 118 288 115 b 285 84 288 104 287 96 b 273 -24 281 63 277 26 b 271 -88 271 -47 271 -68 b 315 -304 271 -188 286 -260 b 380 -342 333 -330 355 -342 z "},"":{"ha":714,"x_min":0,"x_max":0,"o":"m 521 648 b 545 667 537 648 545 654 b 535 688 545 677 542 684 b 526 691 532 690 528 691 b 514 686 523 691 519 690 b 501 666 505 679 501 672 l 503 661 b 521 648 505 652 511 648 z m 461 640 b 490 670 477 640 490 652 b 469 690 489 684 481 690 b 440 655 456 690 440 683 b 460 640 445 645 452 640 z m 380 -342 b 729 65 471 -342 587 -207 l 730 68 b 724 75 730 71 727 75 b 718 71 722 75 720 73 b 534 -222 654 -58 592 -157 b 389 -321 477 -288 428 -321 b 317 -251 347 -321 323 -298 b 307 -146 311 -204 307 -169 b 343 134 307 -75 319 18 b 428 158 394 146 407 148 b 432 163 431 159 432 161 b 424 172 432 169 429 172 l 417 172 b 369 166 396 172 380 170 b 357 164 364 165 360 164 b 351 170 353 164 351 166 b 366 225 351 176 356 195 b 441 432 395 323 420 392 b 488 509 460 469 476 494 b 513 563 502 528 511 541 b 814 600 630 587 731 600 b 926 583 859 600 896 594 l 930 582 b 937 587 935 582 937 584 b 918 604 937 593 930 599 b 821 618 897 613 865 618 b 511 584 745 618 641 606 b 487 603 507 597 498 603 b 455 573 477 603 466 593 b 220 513 368 555 290 535 b 79 464 151 491 104 475 b 12 414 38 444 16 427 b 7 391 9 401 7 394 b 34 370 7 376 16 370 b 130 425 56 370 88 388 l 130 425 l 108 418 b 80 412 93 414 83 412 b 78 412 79 412 78 412 b 100 427 78 414 85 420 b 224 479 132 444 173 461 b 355 523 274 498 317 512 l 376 530 b 435 545 411 540 431 545 b 437 543 437 545 437 545 b 433 533 437 541 436 538 l 428 524 b 305 194 366 401 325 291 b 290 151 299 166 294 152 b 196 127 260 144 228 136 b 151 100 160 116 151 110 b 166 82 151 87 160 82 b 205 92 170 82 183 85 b 232 101 218 97 231 100 b 261 111 243 104 254 108 b 283 118 271 116 278 118 b 288 110 286 118 288 115 b 285 84 288 104 287 96 b 273 -24 281 63 277 26 b 271 -88 271 -47 271 -68 b 315 -304 271 -188 286 -260 b 380 -342 333 -330 355 -342 z "},"":{"ha":397,"x_min":0,"x_max":0,"o":"m 352 732 b 363 739 359 732 363 734 b 353 751 363 743 360 747 b 349 761 351 754 349 758 b 351 778 349 764 351 767 b 334 796 351 790 346 796 b 315 779 321 796 315 791 l 315 778 b 345 732 319 745 338 732 z m 168 -380 b 208 -258 175 -380 188 -340 b 260 -71 224 -193 242 -131 b 327 161 283 -1 304 77 b 373 419 349 246 364 332 b 375 475 374 439 375 458 b 344 634 375 544 365 597 b 244 703 319 680 286 703 b 115 632 200 703 157 679 b 16 425 73 585 40 515 b 3 297 7 387 3 345 b 42 162 3 224 16 180 b 65 156 50 158 58 156 b 77 158 69 156 73 157 b 100 177 88 162 96 168 b 103 188 102 180 103 184 b 101 197 103 191 102 195 l 100 197 b 85 180 100 187 92 180 b 65 201 78 180 71 186 b 53 300 57 220 53 253 b 132 576 53 398 79 490 b 240 665 172 635 208 665 b 250 665 243 665 247 665 b 322 572 286 658 309 627 b 329 492 327 547 329 521 b 241 41 329 393 300 242 l 240 35 b 159 -349 186 -160 159 -288 b 163 -378 159 -366 160 -376 b 168 -380 165 -380 168 -380 z "},"":{"ha":397,"x_min":0,"x_max":0,"o":"m 342 730 b 376 747 355 730 366 736 b 386 777 382 755 386 765 b 367 801 386 793 380 801 b 349 781 355 799 349 792 l 350 770 b 339 746 350 761 347 753 b 333 735 335 741 333 738 b 342 730 333 732 336 730 z m 168 -380 b 208 -258 175 -380 188 -340 b 260 -71 224 -193 242 -131 b 327 161 283 -1 304 77 b 373 419 349 246 364 332 b 375 475 374 439 375 458 b 344 634 375 544 365 597 b 244 703 319 680 286 703 b 115 632 200 703 157 679 b 16 425 73 585 40 515 b 3 297 7 387 3 345 b 42 162 3 224 16 180 b 65 156 50 158 58 156 b 77 158 69 156 73 157 b 100 177 88 162 96 168 b 103 188 102 180 103 184 b 101 197 103 191 102 195 l 100 197 b 85 180 100 187 92 180 b 65 201 78 180 71 186 b 53 300 57 220 53 253 b 132 576 53 398 79 490 b 240 665 172 635 208 665 b 250 665 243 665 247 665 b 322 572 286 658 309 627 b 329 492 327 547 329 521 b 241 41 329 393 300 242 l 240 35 b 159 -349 186 -160 159 -288 b 163 -378 159 -366 160 -376 b 168 -380 165 -380 168 -380 z "},"":{"ha":397,"x_min":0,"x_max":0,"o":"m 307 728 b 322 738 313 728 317 732 b 336 762 330 749 334 757 l 336 764 b 342 758 337 764 339 761 b 364 746 353 750 359 746 b 372 753 370 746 372 749 b 346 777 372 760 357 764 b 342 784 344 779 342 781 b 334 791 341 789 338 791 b 317 782 330 791 324 788 b 293 742 301 768 293 754 b 307 728 293 734 301 728 z m 168 -380 b 208 -258 175 -380 188 -340 b 260 -71 224 -193 242 -131 b 327 161 283 -1 304 77 b 373 419 349 246 364 332 b 375 475 374 439 375 458 b 344 634 375 544 365 597 b 244 703 319 680 286 703 b 115 632 200 703 157 679 b 16 425 73 585 40 515 b 3 297 7 387 3 345 b 42 162 3 224 16 180 b 65 156 50 158 58 156 b 77 158 69 156 73 157 b 100 177 88 162 96 168 b 103 188 102 180 103 184 b 101 197 103 191 102 195 l 100 197 b 85 180 100 187 92 180 b 65 201 78 180 71 186 b 53 300 57 220 53 253 b 132 576 53 398 79 490 b 240 665 172 635 208 665 b 250 665 243 665 247 665 b 322 572 286 658 309 627 b 329 492 327 547 329 521 b 241 41 329 393 300 242 l 240 35 b 159 -349 186 -160 159 -288 b 163 -378 159 -366 160 -376 b 168 -380 165 -380 168 -380 z "},"":{"ha":397,"x_min":0,"x_max":0,"o":"m 361 736 b 385 755 377 736 385 742 b 375 777 385 765 382 772 b 366 779 372 779 368 779 b 354 774 363 779 359 778 b 341 754 345 767 341 760 l 342 749 b 361 736 345 741 351 736 z m 301 728 b 330 758 317 728 330 740 b 309 779 329 772 321 779 b 280 743 296 779 280 771 b 300 728 285 733 292 728 z m 168 -380 b 208 -258 175 -380 188 -340 b 260 -71 224 -193 242 -131 b 327 161 283 -1 304 77 b 373 419 349 246 364 332 b 375 475 374 439 375 458 b 344 634 375 544 365 597 b 244 703 319 680 286 703 b 115 632 200 703 157 679 b 16 425 73 585 40 515 b 3 297 7 387 3 345 b 42 162 3 224 16 180 b 65 156 50 158 58 156 b 77 158 69 156 73 157 b 100 177 88 162 96 168 b 103 188 102 180 103 184 b 101 197 103 191 102 195 l 100 197 b 85 180 100 187 92 180 b 65 201 78 180 71 186 b 53 300 57 220 53 253 b 132 576 53 398 79 490 b 240 665 172 635 208 665 b 250 665 243 665 247 665 b 322 572 286 658 309 627 b 329 492 327 547 329 521 b 241 41 329 393 300 242 l 240 35 b 159 -349 186 -160 159 -288 b 163 -378 159 -366 160 -376 b 168 -380 165 -380 168 -380 z "},"":{"ha":865,"x_min":0,"x_max":0,"o":"m 221 -305 b 278 -300 239 -305 258 -303 b 496 -203 351 -286 423 -254 b 693 -16 568 -152 634 -90 b 823 206 752 59 795 132 b 865 408 851 280 865 347 b 863 460 865 426 865 444 b 752 663 853 538 817 606 b 602 740 693 712 643 738 b 529 743 560 742 536 743 b 332 694 460 743 395 726 b 172 539 263 659 210 608 b 137 413 149 496 137 454 b 190 307 137 361 155 326 b 220 301 198 303 208 301 b 292 354 261 301 291 319 b 290 358 292 357 291 358 b 281 353 289 358 286 356 b 243 336 268 341 256 336 b 208 353 232 336 220 341 b 185 414 193 370 185 390 b 203 501 185 442 191 471 b 328 654 229 566 271 616 b 470 713 386 691 433 711 b 533 715 507 715 528 715 b 706 665 595 715 652 699 b 815 532 768 622 804 578 b 831 418 826 485 831 447 b 814 293 831 378 825 336 b 713 73 793 218 760 145 b 549 -119 666 1 611 -63 b 372 -239 487 -176 428 -215 b 222 -273 315 -262 265 -273 b 161 -267 201 -273 181 -271 b 44 -193 98 -250 58 -226 b 22 -109 29 -161 22 -132 b 36 -35 22 -85 26 -60 b 146 102 56 16 92 62 b 353 177 199 142 269 167 b 343 5 350 115 347 57 b 340 -64 342 -14 340 -37 b 352 -76 340 -72 344 -76 b 362 -68 357 -76 361 -73 b 370 -2 365 -50 368 -28 b 391 179 373 29 380 90 l 398 179 b 648 101 490 179 573 153 b 654 99 650 100 652 99 b 658 100 655 99 656 100 b 663 110 661 102 663 106 b 658 118 663 113 661 116 b 416 198 579 172 498 198 l 412 198 b 394 200 400 198 394 199 l 397 231 b 559 233 451 232 505 233 l 600 233 b 606 239 604 233 606 236 b 600 247 606 243 604 246 b 399 244 532 247 466 246 b 412 351 404 281 408 316 b 422 466 419 418 422 457 b 422 469 422 468 422 469 b 397 495 420 486 412 495 b 372 469 382 495 374 486 b 357 267 362 372 357 304 l 357 260 b 353 243 357 249 358 243 l 289 241 b 167 235 236 239 195 237 l 105 229 b 100 222 102 227 100 225 b 106 217 100 220 102 218 b 159 220 113 217 130 218 b 355 229 207 223 273 226 l 355 226 l 353 196 b 153 130 275 187 208 165 b 35 10 98 94 58 54 b 0 -112 12 -34 0 -75 b 82 -264 0 -174 27 -224 b 221 -305 125 -292 171 -305 z "},"":{"ha":644,"x_min":0,"x_max":0,"o":"m 373 773 b 387 783 378 773 383 777 b 393 795 390 790 393 794 b 395 799 395 798 394 799 l 395 800 b 399 800 396 800 397 800 b 417 795 401 800 407 798 b 445 789 427 791 436 789 b 464 805 452 789 459 795 l 465 808 b 456 814 465 812 462 814 b 450 809 452 814 451 812 b 441 802 450 804 446 802 b 414 812 437 802 427 805 b 382 823 399 819 389 823 b 372 820 378 823 375 822 l 370 819 l 371 821 l 370 820 b 351 806 358 815 351 810 b 349 795 350 801 349 797 b 354 783 349 790 351 786 b 366 773 359 777 363 774 z m 13 -398 b 26 -389 20 -398 24 -395 b 94 -100 40 -301 63 -205 b 208 214 125 5 163 110 b 531 686 307 447 415 604 b 595 714 559 705 581 714 b 626 656 616 714 626 695 b 576 405 626 616 609 532 b 501 38 532 236 507 113 b 495 -54 497 -5 495 -35 b 508 -170 495 -96 499 -134 b 583 -262 524 -233 553 -262 b 606 -258 591 -262 598 -260 b 612 -248 610 -256 612 -253 b 605 -239 612 -242 610 -239 l 602 -240 b 589 -242 597 -241 593 -242 b 558 -215 575 -242 565 -233 b 543 -142 549 -193 545 -168 b 541 -78 542 -115 541 -94 b 566 136 541 -14 549 58 b 613 334 581 202 596 268 b 673 645 653 485 673 589 b 670 684 673 659 672 673 b 610 749 664 723 644 745 l 604 749 b 473 667 572 749 529 722 b 277 393 412 610 347 518 b 77 -88 207 269 140 108 b 41 -220 64 -132 52 -176 b 96 151 55 -92 74 32 b 157 444 119 269 138 367 b 185 564 175 521 184 561 b 186 570 186 566 186 568 b 166 594 186 586 176 594 b 140 567 155 594 146 585 b 47 150 104 451 73 312 b 0 -385 22 -12 6 -191 b 13 -398 0 -394 4 -398 z "},"":{"ha":702,"x_min":0,"x_max":0,"o":"m 411 804 b 422 812 418 804 422 807 b 412 824 422 815 419 819 b 408 833 410 827 408 830 b 410 850 408 836 410 840 b 393 869 410 863 405 869 b 374 852 380 869 374 863 l 374 850 b 404 804 378 818 397 804 z m 264 -309 b 465 -198 330 -306 397 -269 b 632 119 532 -127 587 -22 b 675 384 661 218 675 306 b 669 467 675 413 673 440 b 574 688 654 563 623 637 b 412 767 526 739 472 766 b 222 702 343 766 279 745 b 78 535 163 659 115 604 b 15 363 40 467 19 409 b 9 273 11 316 9 286 b 50 88 9 210 22 148 b 49 37 50 71 49 54 b 103 -213 49 -72 67 -155 b 258 -309 143 -277 195 -309 z m 269 -276 b 190 -245 239 -276 212 -266 b 126 -136 162 -219 140 -183 b 100 15 111 -90 102 -39 b 208 -36 137 -19 173 -36 b 237 -32 218 -36 227 -35 b 353 50 281 -19 320 8 b 414 160 385 92 406 128 b 427 229 423 191 427 214 b 412 278 427 250 422 266 b 404 281 409 280 406 281 b 393 275 399 281 395 279 b 392 269 393 273 392 271 b 395 262 392 267 393 264 b 406 227 402 254 406 242 b 401 193 406 217 404 205 b 362 96 393 161 380 128 b 220 -7 323 27 276 -7 b 100 61 175 -7 135 16 b 144 289 104 144 119 220 b 216 411 170 357 193 398 b 229 414 221 413 226 414 b 250 410 237 414 241 410 b 266 395 258 406 263 395 b 268 397 267 395 267 395 b 272 415 271 404 272 409 b 221 459 272 436 251 459 b 201 456 215 459 209 458 b 129 380 177 450 153 425 b 60 172 93 307 70 237 b 55 154 58 160 56 154 b 48 186 54 154 52 165 l 45 207 b 39 281 41 232 39 257 b 64 433 39 334 47 385 b 170 616 88 504 123 565 b 302 715 216 667 260 699 b 404 738 343 730 378 738 b 609 583 493 738 562 686 b 649 380 635 520 649 452 b 646 323 649 361 648 342 b 580 53 638 230 616 140 b 450 -168 544 -35 500 -108 b 269 -276 388 -240 328 -276 z "},"":{"ha":702,"x_min":0,"x_max":0,"o":"m 386 799 b 420 817 398 799 410 805 b 429 846 426 824 429 834 b 410 870 429 862 423 870 b 393 850 399 868 393 861 l 393 839 b 382 815 393 830 390 823 b 376 804 378 810 376 807 b 386 799 376 801 380 799 z m 264 -309 b 465 -198 330 -306 397 -269 b 632 119 532 -127 587 -22 b 675 384 661 218 675 306 b 669 467 675 413 673 440 b 574 688 654 563 623 637 b 412 767 526 739 472 766 b 222 702 343 766 279 745 b 78 535 163 659 115 604 b 15 363 40 467 19 409 b 9 273 11 316 9 286 b 50 88 9 210 22 148 b 49 37 50 71 49 54 b 103 -213 49 -72 67 -155 b 258 -309 143 -277 195 -309 z m 269 -276 b 190 -245 239 -276 212 -266 b 126 -136 162 -219 140 -183 b 100 15 111 -90 102 -39 b 208 -36 137 -19 173 -36 b 237 -32 218 -36 227 -35 b 353 50 281 -19 320 8 b 414 160 385 92 406 128 b 427 229 423 191 427 214 b 412 278 427 250 422 266 b 404 281 409 280 406 281 b 393 275 399 281 395 279 b 392 269 393 273 392 271 b 395 262 392 267 393 264 b 406 227 402 254 406 242 b 401 193 406 217 404 205 b 362 96 393 161 380 128 b 220 -7 323 27 276 -7 b 100 61 175 -7 135 16 b 144 289 104 144 119 220 b 216 411 170 357 193 398 b 229 414 221 413 226 414 b 250 410 237 414 241 410 b 266 395 258 406 263 395 b 268 397 267 395 267 395 b 272 415 271 404 272 409 b 221 459 272 436 251 459 b 201 456 215 459 209 458 b 129 380 177 450 153 425 b 60 172 93 307 70 237 b 55 154 58 160 56 154 b 48 186 54 154 52 165 l 45 207 b 39 281 41 232 39 257 b 64 433 39 334 47 385 b 170 616 88 504 123 565 b 302 715 216 667 260 699 b 404 738 343 730 378 738 b 609 583 493 738 562 686 b 649 380 635 520 649 452 b 646 323 649 361 648 342 b 580 53 638 230 616 140 b 450 -168 544 -35 500 -108 b 269 -276 388 -240 328 -276 z "},"":{"ha":702,"x_min":0,"x_max":0,"o":"m 374 798 b 390 808 380 798 385 802 b 404 832 397 819 402 827 l 404 833 b 410 828 405 833 407 831 b 432 816 420 820 427 816 b 440 823 437 816 440 819 b 414 846 440 829 425 833 b 410 854 412 848 410 851 b 402 861 409 859 406 861 b 385 852 397 861 392 858 b 361 812 369 838 361 824 b 374 798 361 804 369 798 z m 264 -309 b 465 -198 330 -306 397 -269 b 632 119 532 -127 587 -22 b 675 384 661 218 675 306 b 669 467 675 413 673 440 b 574 688 654 563 623 637 b 412 767 526 739 472 766 b 222 702 343 766 279 745 b 78 535 163 659 115 604 b 15 363 40 467 19 409 b 9 273 11 316 9 286 b 50 88 9 210 22 148 b 49 37 50 71 49 54 b 103 -213 49 -72 67 -155 b 258 -309 143 -277 195 -309 z m 269 -276 b 190 -245 239 -276 212 -266 b 126 -136 162 -219 140 -183 b 100 15 111 -90 102 -39 b 208 -36 137 -19 173 -36 b 237 -32 218 -36 227 -35 b 353 50 281 -19 320 8 b 414 160 385 92 406 128 b 427 229 423 191 427 214 b 412 278 427 250 422 266 b 404 281 409 280 406 281 b 393 275 399 281 395 279 b 392 269 393 273 392 271 b 395 262 392 267 393 264 b 406 227 402 254 406 242 b 401 193 406 217 404 205 b 362 96 393 161 380 128 b 220 -7 323 27 276 -7 b 100 61 175 -7 135 16 b 144 289 104 144 119 220 b 216 411 170 357 193 398 b 229 414 221 413 226 414 b 250 410 237 414 241 410 b 266 395 258 406 263 395 b 268 397 267 395 267 395 b 272 415 271 404 272 409 b 221 459 272 436 251 459 b 201 456 215 459 209 458 b 129 380 177 450 153 425 b 60 172 93 307 70 237 b 55 154 58 160 56 154 b 48 186 54 154 52 165 l 45 207 b 39 281 41 232 39 257 b 64 433 39 334 47 385 b 170 616 88 504 123 565 b 302 715 216 667 260 699 b 404 738 343 730 378 738 b 609 583 493 738 562 686 b 649 380 635 520 649 452 b 646 323 649 361 648 342 b 580 53 638 230 616 140 b 450 -168 544 -35 500 -108 b 269 -276 388 -240 328 -276 z "},"":{"ha":702,"x_min":0,"x_max":0,"o":"m 374 799 b 388 809 380 799 385 802 b 395 821 391 816 394 820 b 396 825 396 824 395 825 l 396 825 b 400 826 397 826 399 826 b 418 821 402 826 408 824 b 446 815 428 817 437 815 b 465 831 454 815 460 821 l 467 834 b 457 840 467 838 463 840 b 452 835 454 840 452 838 b 443 827 451 830 448 827 b 415 838 438 827 429 831 b 383 848 401 845 391 848 b 373 846 380 848 376 848 l 372 845 l 372 846 l 372 846 b 352 831 359 841 353 836 b 351 821 351 827 351 823 b 355 808 351 816 352 812 b 368 799 360 802 364 800 z m 264 -309 b 465 -198 330 -306 397 -269 b 632 119 532 -127 587 -22 b 675 384 661 218 675 306 b 669 467 675 413 673 440 b 574 688 654 563 623 637 b 412 767 526 739 472 766 b 222 702 343 766 279 745 b 78 535 163 659 115 604 b 15 363 40 467 19 409 b 9 273 11 316 9 286 b 50 88 9 210 22 148 b 49 37 50 71 49 54 b 103 -213 49 -72 67 -155 b 258 -309 143 -277 195 -309 z m 269 -276 b 190 -245 239 -276 212 -266 b 126 -136 162 -219 140 -183 b 100 15 111 -90 102 -39 b 208 -36 137 -19 173 -36 b 237 -32 218 -36 227 -35 b 353 50 281 -19 320 8 b 414 160 385 92 406 128 b 427 229 423 191 427 214 b 412 278 427 250 422 266 b 404 281 409 280 406 281 b 393 275 399 281 395 279 b 392 269 393 273 392 271 b 395 262 392 267 393 264 b 406 227 402 254 406 242 b 401 193 406 217 404 205 b 362 96 393 161 380 128 b 220 -7 323 27 276 -7 b 100 61 175 -7 135 16 b 144 289 104 144 119 220 b 216 411 170 357 193 398 b 229 414 221 413 226 414 b 250 410 237 414 241 410 b 266 395 258 406 263 395 b 268 397 267 395 267 395 b 272 415 271 404 272 409 b 221 459 272 436 251 459 b 201 456 215 459 209 458 b 129 380 177 450 153 425 b 60 172 93 307 70 237 b 55 154 58 160 56 154 b 48 186 54 154 52 165 l 45 207 b 39 281 41 232 39 257 b 64 433 39 334 47 385 b 170 616 88 504 123 565 b 302 715 216 667 260 699 b 404 738 343 730 378 738 b 609 583 493 738 562 686 b 649 380 635 520 649 452 b 646 323 649 361 648 342 b 580 53 638 230 616 140 b 450 -168 544 -35 500 -108 b 269 -276 388 -240 328 -276 z "},"":{"ha":702,"x_min":0,"x_max":0,"o":"m 436 808 b 460 827 452 808 460 814 b 450 849 460 838 457 845 b 441 852 447 851 444 852 b 429 847 438 852 434 850 b 416 827 420 840 416 833 l 418 821 b 436 808 420 813 427 809 z m 376 800 b 406 831 393 800 406 812 b 384 851 404 844 397 851 b 355 816 371 851 355 844 b 375 800 360 806 367 800 z m 264 -309 b 465 -198 330 -306 397 -269 b 632 119 532 -127 587 -22 b 675 384 661 218 675 306 b 669 467 675 413 673 440 b 574 688 654 563 623 637 b 412 767 526 739 472 766 b 222 702 343 766 279 745 b 78 535 163 659 115 604 b 15 363 40 467 19 409 b 9 273 11 316 9 286 b 50 88 9 210 22 148 b 49 37 50 71 49 54 b 103 -213 49 -72 67 -155 b 258 -309 143 -277 195 -309 z m 269 -276 b 190 -245 239 -276 212 -266 b 126 -136 162 -219 140 -183 b 100 15 111 -90 102 -39 b 208 -36 137 -19 173 -36 b 237 -32 218 -36 227 -35 b 353 50 281 -19 320 8 b 414 160 385 92 406 128 b 427 229 423 191 427 214 b 412 278 427 250 422 266 b 404 281 409 280 406 281 b 393 275 399 281 395 279 b 392 269 393 273 392 271 b 395 262 392 267 393 264 b 406 227 402 254 406 242 b 401 193 406 217 404 205 b 362 96 393 161 380 128 b 220 -7 323 27 276 -7 b 100 61 175 -7 135 16 b 144 289 104 144 119 220 b 216 411 170 357 193 398 b 229 414 221 413 226 414 b 250 410 237 414 241 410 b 266 395 258 406 263 395 b 268 397 267 395 267 395 b 272 415 271 404 272 409 b 221 459 272 436 251 459 b 201 456 215 459 209 458 b 129 380 177 450 153 425 b 60 172 93 307 70 237 b 55 154 58 160 56 154 b 48 186 54 154 52 165 l 45 207 b 39 281 41 232 39 257 b 64 433 39 334 47 385 b 170 616 88 504 123 565 b 302 715 216 667 260 699 b 404 738 343 730 378 738 b 609 583 493 738 562 686 b 649 380 635 520 649 452 b 646 323 649 361 648 342 b 580 53 638 230 616 140 b 450 -168 544 -35 500 -108 b 269 -276 388 -240 328 -276 z "},"":{"ha":208,"x_min":0,"x_max":0,"o":"m 117 -33 b 136 -22 125 -33 132 -30 b 140 -11 139 -18 140 -14 b 137 1 140 -7 139 -3 b 97 51 119 28 105 45 b 90 62 92 56 90 59 b 101 82 90 64 94 71 b 120 125 114 102 120 116 b 108 138 120 134 116 138 b 55 99 96 138 79 125 b 20 123 37 115 26 123 b 17 118 18 123 17 121 b 32 78 17 111 22 98 l 33 76 b 19 52 33 73 28 65 b 0 13 6 35 0 22 b 22 -12 0 -3 11 -12 b 51 8 31 -12 41 -5 b 64 26 58 20 62 26 b 69 19 65 26 67 24 b 102 -26 73 10 83 -5 b 117 -33 106 -31 111 -33 z "},"":{"ha":669,"x_min":0,"x_max":0,"o":"m 93 -381 b 100 -376 96 -381 98 -379 b 155 -256 119 -336 137 -296 b 256 -291 188 -279 222 -291 b 309 -282 273 -291 291 -288 b 462 -170 362 -264 413 -227 b 587 34 510 -114 552 -45 b 655 248 623 113 645 184 b 669 395 665 310 669 359 b 634 606 669 475 658 545 b 604 659 624 633 614 650 b 598 667 600 662 598 665 b 610 697 598 672 602 682 b 638 766 629 740 638 763 b 628 777 638 771 633 777 b 610 757 621 777 614 770 b 578 696 599 736 589 716 b 403 785 530 753 471 783 b 233 730 345 785 288 767 b 81 570 174 690 123 637 b 9 396 39 503 16 445 b 0 297 3 347 0 314 b 44 106 0 233 15 170 b 43 62 43 92 43 77 b 109 -207 43 -52 64 -142 b 127 -229 116 -217 122 -224 b 136 -243 133 -235 136 -239 b 117 -290 136 -249 130 -264 b 81 -369 93 -338 81 -364 b 93 -381 81 -380 92 -381 z m 214 12 b 95 79 168 12 125 38 b 140 308 99 163 114 239 b 210 429 165 376 189 416 b 224 433 216 431 220 433 b 244 429 231 432 236 429 b 260 413 252 424 258 413 b 262 416 260 413 262 414 b 267 433 265 422 267 427 b 216 477 267 454 246 477 b 195 474 210 477 203 476 b 123 398 172 468 147 442 b 52 172 86 324 62 249 b 33 302 39 216 33 260 b 43 395 33 334 37 365 b 128 588 59 467 87 532 b 262 714 168 644 213 686 b 401 756 310 742 357 756 b 565 669 465 756 519 727 b 323 157 443 416 362 245 b 229 12 258 14 258 12 z m 269 -256 b 174 -215 235 -256 204 -243 b 277 5 208 -141 243 -68 b 364 91 311 24 339 53 b 412 188 389 128 404 161 b 422 248 418 215 422 235 b 412 289 422 264 418 278 b 583 642 455 380 512 497 b 642 404 623 571 642 492 b 594 123 642 309 626 216 b 475 -111 563 34 523 -44 b 349 -233 427 -177 385 -218 b 269 -256 313 -249 286 -256 z m 399 262 b 401 252 400 259 401 256 b 393 203 401 240 398 224 b 357 113 385 174 374 144 b 292 36 340 81 318 56 z m 159 -197 b 95 33 119 -142 97 -66 b 165 -13 125 5 149 -11 b 202 -16 182 -15 194 -16 b 227 -12 212 -16 220 -14 b 237 -11 231 -12 235 -11 b 243 -14 241 -11 243 -12 b 217 -75 243 -18 234 -38 b 159 -197 203 -102 184 -142 z "},"":{"ha":552,"x_min":0,"x_max":0,"o":"m 361 709 b 372 716 368 709 372 711 b 362 728 372 720 369 724 b 358 738 359 731 358 734 b 360 755 358 741 360 744 b 343 773 360 767 355 773 b 323 756 330 773 323 768 l 323 755 b 354 709 328 722 347 709 z m 522 -387 b 549 -379 532 -387 541 -385 b 569 -345 562 -372 569 -361 b 559 -336 568 -339 565 -336 b 551 -346 554 -336 551 -340 b 531 -363 551 -358 540 -363 b 503 -343 519 -363 510 -357 b 488 -276 498 -331 493 -309 b 477 -107 481 -228 477 -172 b 532 382 477 11 495 174 b 566 639 555 511 566 596 b 553 690 566 671 562 688 b 544 692 550 692 547 692 b 524 678 534 692 527 688 b 489 589 517 657 505 628 b 396 363 473 555 442 479 b 298 128 367 284 334 206 b 165 -91 261 50 217 -23 b 87 -149 135 -128 109 -148 b 56 -121 70 -149 59 -140 b 50 7 52 -107 50 -64 b 75 272 50 78 58 166 b 170 607 92 377 123 489 b 184 576 178 598 182 588 l 186 575 b 191 582 186 575 189 577 b 199 616 196 590 199 607 b 178 667 199 635 192 652 b 163 673 173 671 168 673 b 131 643 153 673 142 663 b 45 387 102 594 74 509 b 0 33 15 259 0 141 b 3 -43 0 5 1 -20 b 79 -178 10 -127 35 -173 b 201 -77 112 -178 153 -144 b 389 293 256 -2 319 121 b 470 492 412 349 438 416 b 511 582 495 552 509 582 b 511 578 511 582 511 581 l 508 557 b 496 482 506 541 502 515 b 428 -119 450 220 428 19 b 438 -264 428 -172 431 -221 b 509 -385 448 -331 472 -372 b 522 -387 513 -387 517 -387 z "},"":{"ha":552,"x_min":0,"x_max":0,"o":"m 335 704 b 369 722 347 704 359 710 b 378 751 375 729 378 739 b 359 775 378 767 372 775 b 342 755 348 773 342 766 l 342 744 b 332 720 342 735 339 728 b 326 709 328 715 326 712 b 335 704 326 706 329 704 z m 522 -387 b 549 -379 532 -387 541 -385 b 569 -345 562 -372 569 -361 b 559 -336 568 -339 565 -336 b 551 -346 554 -336 551 -340 b 531 -363 551 -358 540 -363 b 503 -343 519 -363 510 -357 b 488 -276 498 -331 493 -309 b 477 -107 481 -228 477 -172 b 532 382 477 11 495 174 b 566 639 555 511 566 596 b 553 690 566 671 562 688 b 544 692 550 692 547 692 b 524 678 534 692 527 688 b 489 589 517 657 505 628 b 396 363 473 555 442 479 b 298 128 367 284 334 206 b 165 -91 261 50 217 -23 b 87 -149 135 -128 109 -148 b 56 -121 70 -149 59 -140 b 50 7 52 -107 50 -64 b 75 272 50 78 58 166 b 170 607 92 377 123 489 b 184 576 178 598 182 588 l 186 575 b 191 582 186 575 189 577 b 199 616 196 590 199 607 b 178 667 199 635 192 652 b 163 673 173 671 168 673 b 131 643 153 673 142 663 b 45 387 102 594 74 509 b 0 33 15 259 0 141 b 3 -43 0 5 1 -20 b 79 -178 10 -127 35 -173 b 201 -77 112 -178 153 -144 b 389 293 256 -2 319 121 b 470 492 412 349 438 416 b 511 582 495 552 509 582 b 511 578 511 582 511 581 l 508 557 b 496 482 506 541 502 515 b 428 -119 450 220 428 19 b 438 -264 428 -172 431 -221 b 509 -385 448 -331 472 -372 b 522 -387 513 -387 517 -387 z "},"":{"ha":552,"x_min":0,"x_max":0,"o":"m 328 714 b 344 724 334 714 339 718 b 357 748 351 734 356 743 l 358 749 b 364 744 359 749 361 747 b 386 732 374 736 381 732 b 394 739 391 732 394 734 b 368 762 394 745 378 749 b 363 770 366 764 364 767 b 356 777 363 774 360 777 b 339 768 351 777 346 774 b 315 728 323 753 315 740 b 328 714 315 720 323 714 z m 522 -387 b 549 -379 532 -387 541 -385 b 569 -345 562 -372 569 -361 b 559 -336 568 -339 565 -336 b 551 -346 554 -336 551 -340 b 531 -363 551 -358 540 -363 b 503 -343 519 -363 510 -357 b 488 -276 498 -331 493 -309 b 477 -107 481 -228 477 -172 b 532 382 477 11 495 174 b 566 639 555 511 566 596 b 553 690 566 671 562 688 b 544 692 550 692 547 692 b 524 678 534 692 527 688 b 489 589 517 657 505 628 b 396 363 473 555 442 479 b 298 128 367 284 334 206 b 165 -91 261 50 217 -23 b 87 -149 135 -128 109 -148 b 56 -121 70 -149 59 -140 b 50 7 52 -107 50 -64 b 75 272 50 78 58 166 b 170 607 92 377 123 489 b 184 576 178 598 182 588 l 186 575 b 191 582 186 575 189 577 b 199 616 196 590 199 607 b 178 667 199 635 192 652 b 163 673 173 671 168 673 b 131 643 153 673 142 663 b 45 387 102 594 74 509 b 0 33 15 259 0 141 b 3 -43 0 5 1 -20 b 79 -178 10 -127 35 -173 b 201 -77 112 -178 153 -144 b 389 293 256 -2 319 121 b 470 492 412 349 438 416 b 511 582 495 552 509 582 b 511 578 511 582 511 581 l 508 557 b 496 482 506 541 502 515 b 428 -119 450 220 428 19 b 438 -264 428 -172 431 -221 b 509 -385 448 -331 472 -372 b 522 -387 513 -387 517 -387 z "},"":{"ha":552,"x_min":0,"x_max":0,"o":"m 388 720 b 412 739 404 720 412 726 b 402 761 412 749 409 757 b 393 764 399 763 395 764 b 381 759 390 764 386 762 b 368 739 372 751 368 745 l 370 733 b 388 720 372 725 378 721 z m 328 712 b 357 743 345 712 357 724 b 336 763 356 756 349 763 b 307 728 323 763 307 755 b 327 712 312 718 319 712 z m 522 -387 b 549 -379 532 -387 541 -385 b 569 -345 562 -372 569 -361 b 559 -336 568 -339 565 -336 b 551 -346 554 -336 551 -340 b 531 -363 551 -358 540 -363 b 503 -343 519 -363 510 -357 b 488 -276 498 -331 493 -309 b 477 -107 481 -228 477 -172 b 532 382 477 11 495 174 b 566 639 555 511 566 596 b 553 690 566 671 562 688 b 544 692 550 692 547 692 b 524 678 534 692 527 688 b 489 589 517 657 505 628 b 396 363 473 555 442 479 b 298 128 367 284 334 206 b 165 -91 261 50 217 -23 b 87 -149 135 -128 109 -148 b 56 -121 70 -149 59 -140 b 50 7 52 -107 50 -64 b 75 272 50 78 58 166 b 170 607 92 377 123 489 b 184 576 178 598 182 588 l 186 575 b 191 582 186 575 189 577 b 199 616 196 590 199 607 b 178 667 199 635 192 652 b 163 673 173 671 168 673 b 131 643 153 673 142 663 b 45 387 102 594 74 509 b 0 33 15 259 0 141 b 3 -43 0 5 1 -20 b 79 -178 10 -127 35 -173 b 201 -77 112 -178 153 -144 b 389 293 256 -2 319 121 b 470 492 412 349 438 416 b 511 582 495 552 509 582 b 511 578 511 582 511 581 l 508 557 b 496 482 506 541 502 515 b 428 -119 450 220 428 19 b 438 -264 428 -172 431 -221 b 509 -385 448 -331 472 -372 b 522 -387 513 -387 517 -387 z "},"":{"ha":817,"x_min":0,"x_max":0,"o":"m 418 757 b 452 774 431 757 442 763 b 462 804 458 782 462 792 b 443 828 462 820 456 828 b 425 808 431 826 425 819 l 426 797 b 415 773 426 788 422 781 b 409 762 411 768 409 765 b 418 757 409 759 412 757 z m 305 -446 b 355 -439 321 -446 337 -444 b 521 -309 408 -425 463 -381 b 671 24 578 -236 628 -125 b 829 68 724 40 777 55 b 836 76 833 69 836 72 b 828 85 836 82 833 85 b 677 45 821 85 770 71 b 739 528 718 206 739 367 b 739 569 739 542 739 556 b 728 689 736 632 732 672 b 689 738 718 722 705 738 b 608 673 669 738 642 716 b 511 538 579 636 547 591 b 390 366 474 481 434 425 b 248 206 346 307 298 253 b 114 130 191 155 146 130 b 54 170 81 130 61 143 b 43 243 46 197 43 221 b 109 498 43 317 64 402 b 142 562 115 511 125 533 b 236 675 184 637 216 675 b 251 668 241 675 246 673 b 256 659 254 665 256 662 l 255 653 b 258 649 255 650 256 649 b 262 650 260 649 261 650 b 273 672 269 656 273 664 b 269 688 273 677 271 682 b 243 712 262 703 254 711 b 225 714 233 713 227 714 b 165 680 208 714 187 703 b 53 496 118 626 81 565 b 5 336 25 428 9 374 b 0 257 2 296 0 270 b 23 146 0 213 7 176 b 106 97 40 113 68 97 b 259 181 151 97 202 125 b 532 528 332 253 423 368 b 629 661 571 584 603 628 b 674 699 649 686 664 699 b 680 697 676 699 678 698 b 695 659 690 692 694 679 b 695 615 695 638 695 624 b 618 26 695 410 669 214 b 308 -135 477 -22 374 -76 b 193 -332 242 -194 203 -260 b 229 -419 193 -368 205 -397 b 305 -446 250 -437 275 -446 z m 294 -410 b 241 -385 271 -410 254 -401 b 225 -335 231 -372 225 -355 b 349 -136 225 -273 267 -206 b 612 5 409 -85 496 -38 b 471 -293 579 -117 532 -216 b 351 -398 418 -355 378 -391 b 294 -410 323 -406 304 -410 z "},"":{"ha":222,"x_min":0,"x_max":0,"o":"m 79 -101 b 98 -84 87 -101 94 -96 b 104 -26 102 -62 104 -43 b 103 -5 104 -19 104 -12 b 102 26 102 5 102 15 b 104 35 102 31 103 34 b 121 33 106 35 110 33 b 190 75 145 33 168 47 b 222 156 211 103 222 130 b 214 183 222 166 219 176 b 182 201 204 195 193 201 b 148 186 171 201 159 196 b 89 88 123 165 103 132 b 84 74 87 79 85 74 b 80 83 83 74 82 77 b 70 92 78 89 75 92 b 56 76 61 92 56 83 b 79 44 56 66 64 55 b 75 -5 76 22 75 5 b 73 -31 75 -14 74 -22 b 54 54 60 0 54 28 b 54 99 54 79 54 94 b 62 210 54 138 56 175 b 98 304 73 273 85 304 b 115 281 104 304 109 296 l 115 294 b 111 317 115 305 113 313 b 86 333 106 328 98 333 b 41 298 69 333 54 321 b 0 104 14 245 0 180 b 8 6 0 73 3 40 b 47 -85 20 -45 33 -75 b 79 -101 62 -96 73 -101 z m 122 54 b 109 69 113 54 109 59 b 133 136 109 82 117 104 b 166 176 146 159 157 172 b 184 180 175 179 181 180 b 201 169 192 180 197 176 b 203 158 202 165 203 162 b 188 111 203 146 198 131 b 122 54 163 66 134 54 z "},"":{"ha":351,"x_min":0,"x_max":0,"o":"m 121 -164 b 222 -126 159 -164 192 -151 b 292 -31 255 -98 278 -66 b 312 62 305 5 312 36 b 239 176 312 120 288 158 l 232 178 b 225 182 227 180 225 181 b 229 186 225 182 227 184 b 274 265 244 198 260 224 b 284 323 281 288 284 307 b 276 360 284 337 281 350 b 216 395 264 383 243 395 b 99 334 170 395 132 374 b 24 189 65 292 40 243 b 0 46 8 135 0 87 b 39 -45 0 -9 13 -39 b 28 -85 32 -59 28 -72 b 40 -123 28 -98 33 -111 b 121 -164 58 -151 85 -164 z m 123 -127 b 87 -117 109 -127 97 -123 b 65 -80 73 -108 65 -96 b 144 1 65 -50 92 -23 b 227 18 170 12 198 18 l 233 18 b 246 30 241 18 246 22 b 233 44 246 39 242 43 b 208 45 224 45 216 45 b 122 28 172 45 144 39 b 66 -12 96 14 77 1 b 51 -23 58 -20 53 -23 b 46 -7 48 -23 47 -18 b 83 211 47 81 59 154 b 158 328 106 268 132 307 b 221 360 184 349 205 360 b 254 319 243 360 254 347 b 249 281 254 309 252 296 b 161 164 231 226 202 187 b 149 149 153 159 149 153 b 163 133 149 136 158 133 b 170 135 165 133 168 134 b 215 149 187 144 202 149 b 245 140 227 149 236 146 b 276 92 264 125 275 110 b 278 60 277 74 278 64 b 250 -35 278 31 269 -1 b 174 -115 222 -80 197 -107 b 123 -127 152 -123 134 -127 z "},"":{"ha":357,"x_min":0,"x_max":0,"o":"m 165 233 b 177 240 173 233 177 235 b 167 252 177 243 174 248 b 163 262 164 255 163 258 b 165 279 163 264 165 268 b 148 297 165 291 159 297 b 128 280 135 297 128 292 l 128 279 b 159 233 133 246 151 233 z m 206 -162 b 300 -80 237 -162 269 -135 b 368 62 311 -62 333 -14 l 369 64 b 363 71 369 68 367 71 b 357 68 361 71 359 70 l 342 42 b 293 -41 328 18 312 -10 b 216 -126 255 -102 229 -126 b 203 -117 210 -126 206 -123 b 194 -66 197 -101 194 -84 b 208 28 194 -43 199 -12 b 218 96 214 59 218 81 b 212 120 218 106 216 114 b 229 137 223 122 229 128 b 227 147 229 140 228 144 b 193 187 221 162 210 176 b 136 205 175 199 156 205 b 119 203 131 205 125 204 b 35 149 92 200 64 182 b -12 29 5 109 -12 68 b 26 -26 -12 -3 1 -22 l 31 -26 b 143 53 57 -26 94 1 b 175 86 162 75 173 86 l 175 85 b 170 66 175 83 173 77 b 144 -62 153 20 144 -23 l 144 -67 b 206 -162 147 -126 168 -158 z m 39 -3 b 26 14 31 -3 26 3 b 74 116 27 39 45 83 b 135 152 94 140 114 152 b 168 143 146 152 157 149 b 189 128 182 136 189 130 b 143 84 181 126 166 111 b 43 -2 100 35 67 6 z "},"":{"ha":357,"x_min":0,"x_max":0,"o":"m 140 233 b 174 251 152 233 163 239 b 183 280 180 258 183 269 b 164 304 183 296 177 304 b 146 285 153 302 146 296 l 147 273 b 136 250 147 264 144 257 b 130 239 132 245 130 241 b 140 233 130 235 134 233 z m 206 -162 b 300 -80 237 -162 269 -135 b 368 62 311 -62 333 -14 l 369 64 b 363 71 369 68 367 71 b 357 68 361 71 359 70 l 342 42 b 293 -41 328 18 312 -10 b 216 -126 255 -102 229 -126 b 203 -117 210 -126 206 -123 b 194 -66 197 -101 194 -84 b 208 28 194 -43 199 -12 b 218 96 214 59 218 81 b 212 120 218 106 216 114 b 229 137 223 122 229 128 b 227 147 229 140 228 144 b 193 187 221 162 210 176 b 136 205 175 199 156 205 b 119 203 131 205 125 204 b 35 149 92 200 64 182 b -12 29 5 109 -12 68 b 26 -26 -12 -3 1 -22 l 31 -26 b 143 53 57 -26 94 1 b 175 86 162 75 173 86 l 175 85 b 170 66 175 83 173 77 b 144 -62 153 20 144 -23 l 144 -67 b 206 -162 147 -126 168 -158 z m 39 -3 b 26 14 31 -3 26 3 b 74 116 27 39 45 83 b 135 152 94 140 114 152 b 168 143 146 152 157 149 b 189 128 182 136 189 130 b 143 84 181 126 166 111 b 43 -2 100 35 67 6 z "},"":{"ha":357,"x_min":0,"x_max":0,"o":"m 126 228 b 142 237 132 228 137 231 b 155 262 149 248 154 256 l 156 263 b 162 258 157 263 159 260 b 184 245 172 250 179 245 b 192 253 189 245 192 248 b 165 276 192 259 176 263 b 161 283 163 278 162 281 b 154 290 161 288 158 290 b 137 281 149 290 144 288 b 113 241 121 267 113 254 b 126 228 113 233 121 228 z m 206 -162 b 300 -80 237 -162 269 -135 b 368 62 311 -62 333 -14 l 369 64 b 363 71 369 68 367 71 b 357 68 361 71 359 70 l 342 42 b 293 -41 328 18 312 -10 b 216 -126 255 -102 229 -126 b 203 -117 210 -126 206 -123 b 194 -66 197 -101 194 -84 b 208 28 194 -43 199 -12 b 218 96 214 59 218 81 b 212 120 218 106 216 114 b 229 137 223 122 229 128 b 227 147 229 140 228 144 b 193 187 221 162 210 176 b 136 205 175 199 156 205 b 119 203 131 205 125 204 b 35 149 92 200 64 182 b -12 29 5 109 -12 68 b 26 -26 -12 -3 1 -22 l 31 -26 b 143 53 57 -26 94 1 b 175 86 162 75 173 86 l 175 85 b 170 66 175 83 173 77 b 144 -62 153 20 144 -23 l 144 -67 b 206 -162 147 -126 168 -158 z m 39 -3 b 26 14 31 -3 26 3 b 74 116 27 39 45 83 b 135 152 94 140 114 152 b 168 143 146 152 157 149 b 189 128 182 136 189 130 b 143 84 181 126 166 111 b 43 -2 100 35 67 6 z "},"":{"ha":357,"x_min":0,"x_max":0,"o":"m 124 226 b 138 236 130 226 134 229 b 144 248 141 243 144 247 b 146 252 146 251 145 252 l 146 252 b 150 253 147 253 149 253 b 168 248 152 253 158 251 b 196 242 178 244 187 242 b 215 258 203 242 210 248 l 216 261 b 207 267 216 265 213 267 b 201 262 203 267 202 265 b 193 254 201 257 197 254 b 165 265 188 254 178 258 b 133 275 151 272 140 275 b 123 273 130 275 126 275 l 121 272 l 122 273 l 121 273 b 102 258 109 268 102 263 b 100 248 101 254 100 250 b 105 235 100 243 102 239 b 117 226 110 229 114 227 z m 206 -162 b 300 -80 237 -162 269 -135 b 368 62 311 -62 333 -14 l 369 64 b 363 71 369 68 367 71 b 357 68 361 71 359 70 l 342 42 b 293 -41 328 18 312 -10 b 216 -126 255 -102 229 -126 b 203 -117 210 -126 206 -123 b 194 -66 197 -101 194 -84 b 208 28 194 -43 199 -12 b 218 96 214 59 218 81 b 212 120 218 106 216 114 b 229 137 223 122 229 128 b 227 147 229 140 228 144 b 193 187 221 162 210 176 b 136 205 175 199 156 205 b 119 203 131 205 125 204 b 35 149 92 200 64 182 b -12 29 5 109 -12 68 b 26 -26 -12 -3 1 -22 l 31 -26 b 143 53 57 -26 94 1 b 175 86 162 75 173 86 l 175 85 b 170 66 175 83 173 77 b 144 -62 153 20 144 -23 l 144 -67 b 206 -162 147 -126 168 -158 z m 39 -3 b 26 14 31 -3 26 3 b 74 116 27 39 45 83 b 135 152 94 140 114 152 b 168 143 146 152 157 149 b 189 128 182 136 189 130 b 143 84 181 126 166 111 b 43 -2 100 35 67 6 z "},"":{"ha":357,"x_min":0,"x_max":0,"o":"m 183 243 b 208 262 199 243 208 249 b 197 283 208 272 204 279 b 189 286 194 286 191 286 b 176 281 185 286 181 285 b 163 261 168 274 163 267 l 165 256 b 183 243 168 248 174 243 z m 123 235 b 153 265 140 235 153 247 b 131 286 151 279 144 286 b 102 250 118 286 102 278 b 122 235 107 240 114 235 z m 206 -162 b 300 -80 237 -162 269 -135 b 368 62 311 -62 333 -14 l 369 64 b 363 71 369 68 367 71 b 357 68 361 71 359 70 l 342 42 b 293 -41 328 18 312 -10 b 216 -126 255 -102 229 -126 b 203 -117 210 -126 206 -123 b 194 -66 197 -101 194 -84 b 208 28 194 -43 199 -12 b 218 96 214 59 218 81 b 212 120 218 106 216 114 b 229 137 223 122 229 128 b 227 147 229 140 228 144 b 193 187 221 162 210 176 b 136 205 175 199 156 205 b 119 203 131 205 125 204 b 35 149 92 200 64 182 b -12 29 5 109 -12 68 b 26 -26 -12 -3 1 -22 l 31 -26 b 143 53 57 -26 94 1 b 175 86 162 75 173 86 l 175 85 b 170 66 175 83 173 77 b 144 -62 153 20 144 -23 l 144 -67 b 206 -162 147 -126 168 -158 z m 39 -3 b 26 14 31 -3 26 3 b 74 116 27 39 45 83 b 135 152 94 140 114 152 b 168 143 146 152 157 149 b 189 128 182 136 189 130 b 143 84 181 126 166 111 b 43 -2 100 35 67 6 z "},"":{"ha":357,"x_min":0,"x_max":0,"o":"m 155 228 b 191 265 174 228 191 245 b 179 292 191 275 187 283 b 161 300 172 297 165 300 l 152 300 b 123 286 138 300 126 294 b 121 268 122 279 121 273 b 127 244 121 258 123 250 b 155 228 135 233 144 228 z m 163 245 b 159 245 162 245 161 245 b 151 260 153 249 151 254 b 168 281 151 271 155 281 b 180 268 176 280 180 275 b 163 245 180 259 172 245 z m 206 -162 b 300 -80 237 -162 269 -135 b 368 62 311 -62 333 -14 l 369 64 b 363 71 369 68 367 71 b 357 68 361 71 359 70 l 342 42 b 293 -41 328 18 312 -10 b 216 -126 255 -102 229 -126 b 203 -117 210 -126 206 -123 b 194 -66 197 -101 194 -84 b 208 28 194 -43 199 -12 b 218 96 214 59 218 81 b 212 120 218 106 216 114 b 229 137 223 122 229 128 b 227 147 229 140 228 144 b 193 187 221 162 210 176 b 136 205 175 199 156 205 b 119 203 131 205 125 204 b 35 149 92 200 64 182 b -12 29 5 109 -12 68 b 26 -26 -12 -3 1 -22 l 31 -26 b 143 53 57 -26 94 1 b 175 86 162 75 173 86 l 175 85 b 170 66 175 83 173 77 b 144 -62 153 20 144 -23 l 144 -67 b 206 -162 147 -126 168 -158 z m 39 -3 b 26 14 31 -3 26 3 b 74 116 27 39 45 83 b 135 152 94 140 114 152 b 168 143 146 152 157 149 b 189 128 182 136 189 130 b 143 84 181 126 166 111 b 43 -2 100 35 67 6 z "},"":{"ha":253,"x_min":0,"x_max":0,"o":"m 190 -32 b 218 -22 208 -32 217 -28 b 220 -14 220 -18 220 -16 b 216 -1 220 -9 219 -5 b 201 9 213 5 208 8 b 166 28 186 9 174 16 b 152 75 157 43 152 58 b 153 86 152 81 153 85 b 168 89 155 87 159 87 b 230 130 190 96 210 109 b 264 195 252 155 264 176 b 240 238 264 214 256 228 b 212 246 231 243 222 246 b 114 150 172 246 140 214 b 96 210 112 184 106 203 b 72 218 86 216 78 218 b 43 208 63 218 54 215 b 1 151 26 197 12 177 b -12 91 -7 131 -12 111 b 23 33 -12 54 0 35 b 77 92 37 33 54 53 b 99 132 91 116 98 130 b 103 112 100 122 102 115 l 103 108 b 100 83 102 106 101 97 b 129 -5 100 43 110 14 b 190 -32 147 -23 168 -32 z m 154 104 b 222 211 168 176 191 211 b 238 203 229 211 233 208 b 241 191 240 199 241 195 b 234 167 241 184 239 176 b 199 127 226 153 214 139 b 154 104 184 114 170 106 z m 31 71 b 44 125 31 86 35 104 b 76 169 52 146 63 161 b 87 148 81 161 82 156 b 33 69 64 106 46 81 b 31 67 32 68 31 68 z "},"":{"ha":176,"x_min":0,"x_max":0,"o":"m 45 -123 b 92 -96 64 -123 80 -114 b 100 -67 97 -87 100 -77 b 67 -16 100 -45 89 -28 l 67 -16 l 68 -3 b 142 60 99 1 123 23 l 143 65 b 136 73 143 69 141 72 l 133 75 b 127 71 132 75 130 73 b 68 30 102 43 83 30 b 41 50 52 30 43 37 b 36 80 37 62 36 73 b 41 116 36 92 38 103 b 71 167 47 137 56 154 b 81 172 75 170 78 172 b 97 127 87 172 93 157 l 97 129 b 104 121 98 124 100 121 b 124 140 112 121 118 127 b 134 172 131 151 134 161 b 124 199 134 182 131 191 b 77 223 113 215 96 223 b 3 162 49 223 24 203 b -14 94 -8 138 -14 115 b -8 60 -14 82 -12 71 b 40 1 1 29 17 9 b 34 -29 36 -12 34 -22 b 47 -43 34 -37 38 -41 b 64 -63 55 -45 61 -52 l 64 -66 b 61 -77 64 -70 63 -74 b 47 -84 56 -85 49 -84 b 35 -79 43 -84 39 -83 b 18 -73 29 -75 24 -73 b 1 -90 7 -73 1 -78 b 45 -123 1 -111 23 -123 z m 98 132 b 98 133 98 132 98 133 z "},"":{"ha":265,"x_min":0,"x_max":0,"o":"m 120 254 b 132 261 127 254 132 256 b 121 273 132 264 128 269 b 117 283 119 276 117 279 b 119 300 117 286 119 289 b 102 318 119 312 114 318 b 83 301 90 318 83 313 l 83 300 b 113 254 87 267 106 254 z m 96 -71 b 194 -28 129 -68 161 -54 b 276 70 227 -2 254 31 l 277 73 b 271 79 277 77 275 78 b 266 76 269 79 267 78 b 178 -20 237 29 208 -3 b 102 -45 147 -37 122 -45 b 37 37 59 -45 37 -18 b 60 35 45 35 53 35 b 118 54 80 35 99 41 b 170 113 144 73 161 92 b 182 159 178 132 182 148 b 168 203 182 175 178 189 b 121 227 154 219 138 227 b 101 224 115 227 109 226 b 32 168 76 215 53 196 b -5 93 11 140 -1 115 b -10 49 -8 71 -10 56 b 13 -28 -10 22 -3 -4 b 88 -71 34 -56 59 -71 z m 47 68 b 43 74 44 68 43 70 b 59 117 43 81 48 96 b 79 149 66 130 73 140 b 133 188 102 175 119 188 l 136 188 b 158 172 150 186 157 180 b 158 157 158 163 158 158 b 132 104 158 140 149 123 b 47 68 115 86 87 74 z "},"":{"ha":265,"x_min":0,"x_max":0,"o":"m 101 250 b 135 268 113 250 125 256 b 144 297 141 275 144 286 b 125 321 144 313 138 321 b 108 302 114 319 108 313 l 109 290 b 98 267 109 281 105 274 b 92 256 94 262 92 258 b 101 250 92 252 95 250 z m 96 -71 b 194 -28 129 -68 161 -54 b 276 70 227 -2 254 31 l 277 73 b 271 79 277 77 275 78 b 266 76 269 79 267 78 b 178 -20 237 29 208 -3 b 102 -45 147 -37 122 -45 b 37 37 59 -45 37 -18 b 60 35 45 35 53 35 b 118 54 80 35 99 41 b 170 113 144 73 161 92 b 182 159 178 132 182 148 b 168 203 182 175 178 189 b 121 227 154 219 138 227 b 101 224 115 227 109 226 b 32 168 76 215 53 196 b -5 93 11 140 -1 115 b -10 49 -8 71 -10 56 b 13 -28 -10 22 -3 -4 b 88 -71 34 -56 59 -71 z m 47 68 b 43 74 44 68 43 70 b 59 117 43 81 48 96 b 79 149 66 130 73 140 b 133 188 102 175 119 188 l 136 188 b 158 172 150 186 157 180 b 158 157 158 163 158 158 b 132 104 158 140 149 123 b 47 68 115 86 87 74 z "},"":{"ha":265,"x_min":0,"x_max":0,"o":"m 89 246 b 104 256 95 246 100 250 b 118 280 112 267 117 275 l 119 281 b 125 276 119 281 121 279 b 146 264 135 268 142 264 b 155 271 152 264 155 267 b 128 294 155 277 139 281 b 124 302 126 296 125 299 b 117 309 123 307 121 309 b 100 300 112 309 106 306 b 75 260 83 286 75 272 b 89 246 75 252 83 246 z m 96 -71 b 194 -28 129 -68 161 -54 b 276 70 227 -2 254 31 l 277 73 b 271 79 277 77 275 78 b 266 76 269 79 267 78 b 178 -20 237 29 208 -3 b 102 -45 147 -37 122 -45 b 37 37 59 -45 37 -18 b 60 35 45 35 53 35 b 118 54 80 35 99 41 b 170 113 144 73 161 92 b 182 159 178 132 182 148 b 168 203 182 175 178 189 b 121 227 154 219 138 227 b 101 224 115 227 109 226 b 32 168 76 215 53 196 b -5 93 11 140 -1 115 b -10 49 -8 71 -10 56 b 13 -28 -10 22 -3 -4 b 88 -71 34 -56 59 -71 z m 47 68 b 43 74 44 68 43 70 b 59 117 43 81 48 96 b 79 149 66 130 73 140 b 133 188 102 175 119 188 l 136 188 b 158 172 150 186 157 180 b 158 157 158 163 158 158 b 132 104 158 140 149 123 b 47 68 115 86 87 74 z "},"":{"ha":265,"x_min":0,"x_max":0,"o":"m 141 259 b 165 278 157 259 165 265 b 155 300 165 288 162 296 b 146 302 152 302 149 302 b 134 298 143 302 139 301 b 121 277 125 290 121 283 l 123 272 b 141 259 125 264 132 260 z m 81 251 b 111 281 98 251 111 263 b 89 302 109 295 102 302 b 60 267 76 302 60 294 b 80 251 65 256 72 251 z m 96 -71 b 194 -28 129 -68 161 -54 b 276 70 227 -2 254 31 l 277 73 b 271 79 277 77 275 78 b 266 76 269 79 267 78 b 178 -20 237 29 208 -3 b 102 -45 147 -37 122 -45 b 37 37 59 -45 37 -18 b 60 35 45 35 53 35 b 118 54 80 35 99 41 b 170 113 144 73 161 92 b 182 159 178 132 182 148 b 168 203 182 175 178 189 b 121 227 154 219 138 227 b 101 224 115 227 109 226 b 32 168 76 215 53 196 b -5 93 11 140 -1 115 b -10 49 -8 71 -10 56 b 13 -28 -10 22 -3 -4 b 88 -71 34 -56 59 -71 z m 47 68 b 43 74 44 68 43 70 b 59 117 43 81 48 96 b 79 149 66 130 73 140 b 133 188 102 175 119 188 l 136 188 b 158 172 150 186 157 180 b 158 157 158 163 158 158 b 132 104 158 140 149 123 b 47 68 115 86 87 74 z "},"":{"ha":176,"x_min":0,"x_max":0,"o":"m 56 239 b 67 246 63 239 67 241 b 57 258 67 250 64 254 b 53 268 54 261 53 264 b 55 285 53 271 55 274 b 38 303 55 297 50 303 b 18 286 25 303 18 298 l 18 285 b 49 239 23 252 41 239 z m 56 -41 b 88 -33 65 -41 76 -39 b 186 70 115 -20 147 14 b 188 74 187 71 188 73 b 181 80 188 77 186 79 b 176 77 179 80 177 79 b 130 17 165 58 149 38 b 70 -24 104 -10 84 -24 b 41 47 51 -24 41 0 b 43 85 41 59 42 72 b 54 157 46 114 50 138 b 60 162 55 157 55 156 b 67 183 64 170 67 176 b 65 193 67 186 66 189 b 43 209 60 203 54 209 b -4 126 20 209 5 181 b -7 87 -6 113 -7 100 b -3 39 -7 71 -5 55 b 56 -41 6 -20 33 -41 z "},"":{"ha":176,"x_min":0,"x_max":0,"o":"m 34 235 b 68 253 46 235 58 241 b 77 282 74 260 77 271 b 58 307 77 298 71 307 b 41 287 47 304 41 298 l 41 275 b 31 252 41 267 38 259 b 24 241 26 247 24 243 b 34 235 24 237 28 235 z m 56 -41 b 88 -33 65 -41 76 -39 b 186 70 115 -20 147 14 b 188 74 187 71 188 73 b 181 80 188 77 186 79 b 176 77 179 80 177 79 b 130 17 165 58 149 38 b 70 -24 104 -10 84 -24 b 41 47 51 -24 41 0 b 43 85 41 59 42 72 b 54 157 46 114 50 138 b 60 162 55 157 55 156 b 67 183 64 170 67 176 b 65 193 67 186 66 189 b 43 209 60 203 54 209 b -4 126 20 209 5 181 b -7 87 -6 113 -7 100 b -3 39 -7 71 -5 55 b 56 -41 6 -20 33 -41 z "},"":{"ha":176,"x_min":0,"x_max":0,"o":"m 17 233 b 33 242 23 233 28 236 b 46 267 40 253 45 261 l 47 268 b 53 262 47 268 50 265 b 75 250 63 254 70 250 b 83 258 80 250 83 253 b 56 281 83 264 67 268 b 52 288 54 283 53 286 b 45 295 52 293 49 295 b 28 286 40 295 35 292 b 3 246 12 272 3 258 b 17 233 3 238 12 233 z m 56 -41 b 88 -33 65 -41 76 -39 b 186 70 115 -20 147 14 b 188 74 187 71 188 73 b 181 80 188 77 186 79 b 176 77 179 80 177 79 b 130 17 165 58 149 38 b 70 -24 104 -10 84 -24 b 41 47 51 -24 41 0 b 43 85 41 59 42 72 b 54 157 46 114 50 138 b 60 162 55 157 55 156 b 67 183 64 170 67 176 b 65 193 67 186 66 189 b 43 209 60 203 54 209 b -4 126 20 209 5 181 b -7 87 -6 113 -7 100 b -3 39 -7 71 -5 55 b 56 -41 6 -20 33 -41 z "},"":{"ha":176,"x_min":0,"x_max":0,"o":"m 77 255 b 102 274 94 255 102 261 b 92 296 102 284 98 292 b 83 298 88 298 85 298 b 71 294 79 298 75 297 b 58 273 62 286 58 279 l 59 268 b 77 255 62 260 68 256 z m 18 247 b 47 277 34 247 47 259 b 25 298 45 291 38 298 b -3 262 12 298 -3 290 b 16 247 1 252 8 247 z m 56 -41 b 88 -33 65 -41 76 -39 b 186 70 115 -20 147 14 b 188 74 187 71 188 73 b 181 80 188 77 186 79 b 176 77 179 80 177 79 b 130 17 165 58 149 38 b 70 -24 104 -10 84 -24 b 41 47 51 -24 41 0 b 43 85 41 59 42 72 b 54 157 46 114 50 138 b 60 162 55 157 55 156 b 67 183 64 170 67 176 b 65 193 67 186 66 189 b 43 209 60 203 54 209 b -4 126 20 209 5 181 b -7 87 -6 113 -7 100 b -3 39 -7 71 -5 55 b 56 -41 6 -20 33 -41 z "},"":{"ha":412,"x_min":0,"x_max":0,"o":"m 102 -214 b 194 -157 142 -209 172 -190 b 233 -58 216 -124 229 -91 b 239 25 237 -24 239 4 b 233 103 239 51 237 77 b 298 106 255 105 277 106 b 401 99 332 106 366 104 b 412 110 408 99 412 102 b 401 123 412 117 408 122 b 305 127 361 125 329 127 b 269 125 290 127 278 126 l 253 125 b 222 157 228 125 227 135 b 184 276 220 178 207 217 b 252 372 229 296 252 328 b 245 406 252 383 250 394 b 233 414 243 411 239 414 b 223 404 227 414 223 410 l 224 385 b 216 342 224 368 221 354 b 171 307 210 326 195 315 b 73 439 125 404 90 439 b 63 429 66 439 63 435 b 74 401 63 422 66 413 l 96 362 b 126 301 116 328 126 307 b 112 295 126 298 121 296 b 34 260 85 295 59 283 b 1 191 12 239 1 216 b 9 173 1 179 3 173 b 20 181 15 173 20 179 l 18 181 l 20 184 b 69 244 35 214 51 234 b 143 265 87 254 112 260 b 188 117 161 225 176 176 b 0 -91 63 85 6 9 b 25 -178 0 -125 8 -154 b 94 -214 41 -202 64 -214 z m 91 -179 b 48 -155 74 -179 60 -171 b 29 -85 35 -136 29 -112 b 73 29 29 -45 44 -7 b 192 96 99 60 138 82 b 199 9 197 64 199 35 b 182 -92 199 -31 193 -65 b 129 -170 165 -137 147 -163 b 91 -179 111 -176 98 -179 z "},"":{"ha":338,"x_min":0,"x_max":0,"o":"m 108 243 b 121 254 113 243 118 247 b 128 266 125 260 127 264 b 130 269 130 269 129 269 l 130 270 b 134 271 131 271 132 271 b 152 265 136 271 142 269 b 180 260 161 262 171 260 b 199 275 187 260 194 265 l 200 279 b 191 285 200 283 197 285 b 185 279 187 284 186 283 b 176 272 184 275 181 272 b 149 283 172 272 162 275 b 117 293 134 290 124 293 b 106 290 113 293 110 292 l 105 290 l 106 291 l 105 290 b 85 276 93 286 86 281 b 84 265 85 271 84 267 b 89 253 84 260 85 256 b 101 243 94 247 98 244 z m 49 -89 b 89 -57 64 -89 78 -78 b 120 22 100 -35 110 -9 b 189 160 137 74 157 128 b 193 129 190 154 191 144 b 231 -29 196 42 209 -11 b 271 -51 247 -43 260 -51 b 304 -37 283 -51 294 -46 b 351 69 327 -18 342 18 b 345 77 351 75 349 77 b 338 73 342 77 340 76 b 321 26 335 59 329 43 b 279 -23 304 -9 288 -23 b 246 88 263 -23 252 14 b 220 186 241 144 233 176 b 199 197 210 194 203 197 b 171 176 189 197 180 191 b 100 26 142 123 119 73 b 55 -56 77 -29 62 -56 l 54 -56 b 47 -28 52 -54 50 -45 b 42 61 43 6 42 42 b 64 170 42 112 50 148 b 70 185 67 175 69 180 b 61 208 70 190 67 197 b 42 219 56 215 50 219 b -1 146 21 219 7 195 b -7 65 -5 119 -7 92 b 8 -48 -7 18 -2 -20 b 49 -89 17 -73 31 -87 z "},"":{"ha":263,"x_min":0,"x_max":0,"o":"m 125 265 b 137 273 133 265 137 268 b 127 285 137 276 134 280 b 123 294 124 288 123 291 b 125 311 123 297 125 300 b 108 330 125 323 119 330 b 88 313 95 330 88 324 l 88 311 b 119 265 93 279 111 265 z m 76 -41 b 166 30 108 -40 138 -16 b 271 66 205 31 239 43 b 273 70 272 66 273 68 b 268 76 273 74 271 76 l 265 75 b 174 45 237 56 207 45 b 192 124 186 74 192 100 b 183 170 192 140 189 155 b 109 233 171 205 146 227 b 49 186 87 233 66 217 b 30 161 45 178 39 170 b 1 116 19 151 9 136 b -10 56 -7 94 -10 74 b 3 3 -10 36 -6 18 b 73 -41 20 -26 43 -41 z m 156 47 b 104 71 136 50 119 58 b 72 123 77 96 72 115 b 79 135 72 131 75 135 l 80 136 l 78 136 b 100 159 92 138 100 151 b 77 180 100 170 92 177 b 115 208 88 199 100 208 b 130 204 119 208 125 207 b 176 117 161 190 176 161 b 156 47 176 96 169 72 z m 81 -11 b 62 -6 75 -11 68 -9 b 41 45 48 3 41 20 b 47 94 41 64 43 80 b 50 98 48 97 50 98 b 56 87 51 98 53 94 b 132 35 77 55 102 38 b 144 31 140 35 144 33 b 134 17 144 28 140 23 b 81 -11 115 -1 96 -11 z "},"":{"ha":263,"x_min":0,"x_max":0,"o":"m 113 266 b 146 283 125 266 136 272 b 156 313 153 291 156 301 b 137 337 156 329 150 337 b 119 317 125 335 119 328 l 120 306 b 109 282 120 297 117 290 b 103 271 105 277 103 274 b 113 266 103 268 106 266 z m 76 -41 b 166 30 108 -40 138 -16 b 271 66 205 31 239 43 b 273 70 272 66 273 68 b 268 76 273 74 271 76 l 265 75 b 174 45 237 56 207 45 b 192 124 186 74 192 100 b 183 170 192 140 189 155 b 109 233 171 205 146 227 b 49 186 87 233 66 217 b 30 161 45 178 39 170 b 1 116 19 151 9 136 b -10 56 -7 94 -10 74 b 3 3 -10 36 -6 18 b 73 -41 20 -26 43 -41 z m 156 47 b 104 71 136 50 119 58 b 72 123 77 96 72 115 b 79 135 72 131 75 135 l 80 136 l 78 136 b 100 159 92 138 100 151 b 77 180 100 170 92 177 b 115 208 88 199 100 208 b 130 204 119 208 125 207 b 176 117 161 190 176 161 b 156 47 176 96 169 72 z m 81 -11 b 62 -6 75 -11 68 -9 b 41 45 48 3 41 20 b 47 94 41 64 43 80 b 50 98 48 97 50 98 b 56 87 51 98 53 94 b 132 35 77 55 102 38 b 144 31 140 35 144 33 b 134 17 144 28 140 23 b 81 -11 115 -1 96 -11 z "},"":{"ha":263,"x_min":0,"x_max":0,"o":"m 98 260 b 114 269 104 260 109 263 b 127 294 121 280 126 288 l 128 295 b 134 290 129 295 131 292 b 156 277 144 281 151 277 b 164 285 161 277 164 280 b 138 308 164 291 149 295 b 134 315 136 310 134 313 b 126 322 133 320 130 322 b 109 313 121 322 116 319 b 85 273 93 299 85 286 b 98 260 85 265 93 260 z m 76 -41 b 166 30 108 -40 138 -16 b 271 66 205 31 239 43 b 273 70 272 66 273 68 b 268 76 273 74 271 76 l 265 75 b 174 45 237 56 207 45 b 192 124 186 74 192 100 b 183 170 192 140 189 155 b 109 233 171 205 146 227 b 49 186 87 233 66 217 b 30 161 45 178 39 170 b 1 116 19 151 9 136 b -10 56 -7 94 -10 74 b 3 3 -10 36 -6 18 b 73 -41 20 -26 43 -41 z m 156 47 b 104 71 136 50 119 58 b 72 123 77 96 72 115 b 79 135 72 131 75 135 l 80 136 l 78 136 b 100 159 92 138 100 151 b 77 180 100 170 92 177 b 115 208 88 199 100 208 b 130 204 119 208 125 207 b 176 117 161 190 176 161 b 156 47 176 96 169 72 z m 81 -11 b 62 -6 75 -11 68 -9 b 41 45 48 3 41 20 b 47 94 41 64 43 80 b 50 98 48 97 50 98 b 56 87 51 98 53 94 b 132 35 77 55 102 38 b 144 31 140 35 144 33 b 134 17 144 28 140 23 b 81 -11 115 -1 96 -11 z "},"":{"ha":263,"x_min":0,"x_max":0,"o":"m 90 256 b 104 266 96 256 100 259 b 111 278 107 273 110 277 b 112 281 112 281 111 281 l 112 282 b 116 283 113 283 115 283 b 134 277 118 283 124 281 b 162 272 144 274 153 272 b 181 288 170 272 176 277 l 182 291 b 173 297 182 295 179 297 b 168 292 170 296 168 295 b 159 284 167 287 163 284 b 131 295 154 284 144 288 b 99 305 117 302 106 305 b 89 302 96 305 92 304 l 87 302 l 88 303 l 87 302 b 68 288 75 298 68 293 b 66 277 67 283 66 279 b 71 265 66 273 68 269 b 83 256 76 259 80 256 z m 76 -41 b 166 30 108 -40 138 -16 b 271 66 205 31 239 43 b 273 70 272 66 273 68 b 268 76 273 74 271 76 l 265 75 b 174 45 237 56 207 45 b 192 124 186 74 192 100 b 183 170 192 140 189 155 b 109 233 171 205 146 227 b 49 186 87 233 66 217 b 30 161 45 178 39 170 b 1 116 19 151 9 136 b -10 56 -7 94 -10 74 b 3 3 -10 36 -6 18 b 73 -41 20 -26 43 -41 z m 156 47 b 104 71 136 50 119 58 b 72 123 77 96 72 115 b 79 135 72 131 75 135 l 80 136 l 78 136 b 100 159 92 138 100 151 b 77 180 100 170 92 177 b 115 208 88 199 100 208 b 130 204 119 208 125 207 b 176 117 161 190 176 161 b 156 47 176 96 169 72 z m 81 -11 b 62 -6 75 -11 68 -9 b 41 45 48 3 41 20 b 47 94 41 64 43 80 b 50 98 48 97 50 98 b 56 87 51 98 53 94 b 132 35 77 55 102 38 b 144 31 140 35 144 33 b 134 17 144 28 140 23 b 81 -11 115 -1 96 -11 z "},"":{"ha":263,"x_min":0,"x_max":0,"o":"m 155 261 b 179 280 171 261 179 267 b 169 302 179 290 176 298 b 160 304 165 304 162 304 b 148 300 157 304 153 303 b 135 279 139 292 135 286 l 136 274 b 155 261 139 266 145 262 z m 95 253 b 124 283 111 253 124 265 b 102 304 123 297 115 304 b 74 269 90 304 74 296 b 94 253 79 258 85 253 z m 76 -41 b 166 30 108 -40 138 -16 b 271 66 205 31 239 43 b 273 70 272 66 273 68 b 268 76 273 74 271 76 l 265 75 b 174 45 237 56 207 45 b 192 124 186 74 192 100 b 183 170 192 140 189 155 b 109 233 171 205 146 227 b 49 186 87 233 66 217 b 30 161 45 178 39 170 b 1 116 19 151 9 136 b -10 56 -7 94 -10 74 b 3 3 -10 36 -6 18 b 73 -41 20 -26 43 -41 z m 156 47 b 104 71 136 50 119 58 b 72 123 77 96 72 115 b 79 135 72 131 75 135 l 80 136 l 78 136 b 100 159 92 138 100 151 b 77 180 100 170 92 177 b 115 208 88 199 100 208 b 130 204 119 208 125 207 b 176 117 161 190 176 161 b 156 47 176 96 169 72 z m 81 -11 b 62 -6 75 -11 68 -9 b 41 45 48 3 41 20 b 47 94 41 64 43 80 b 50 98 48 97 50 98 b 56 87 51 98 53 94 b 132 35 77 55 102 38 b 144 31 140 35 144 33 b 134 17 144 28 140 23 b 81 -11 115 -1 96 -11 z "},"":{"ha":328,"x_min":0,"x_max":0,"o":"m 153 132 b 166 137 159 132 163 134 b 175 160 172 143 175 151 b 151 182 172 176 159 182 b 140 180 147 182 144 182 b 125 156 124 174 125 159 b 153 132 125 143 136 132 z m 252 52 b 260 64 257 54 260 58 b 252 75 260 70 257 73 b 200 77 241 76 224 77 b 80 73 170 77 130 75 b 1 60 30 69 3 65 b 0 53 1 57 0 55 b 12 39 0 45 4 40 z m 135 -50 b 161 -26 155 -50 161 -37 b 141 1 161 -13 154 -3 l 133 2 b 109 -24 117 2 109 -11 b 129 -50 109 -37 115 -45 z "},"":{"ha":123,"x_min":0,"x_max":0,"o":"m -7 -61 b 1 -56 -3 -61 -1 -59 b 37 22 22 -15 34 11 b 47 39 41 32 44 38 b 94 83 71 48 86 63 b 106 134 102 104 106 121 b 98 172 106 146 104 159 b 119 241 112 208 119 231 b 116 246 119 244 118 246 b 83 193 111 246 100 229 b 31 214 58 216 37 214 b -5 200 18 214 6 210 b -8 193 -7 198 -8 195 b 3 180 -8 184 -4 180 b 9 182 5 180 7 181 b 31 189 16 186 23 189 b -5 145 14 178 3 163 b -16 96 -13 127 -16 111 b 16 40 -16 68 -5 50 b -17 -50 4 11 -7 -19 l -17 -51 b -7 -61 -17 -56 -13 -61 z m 28 69 b 15 97 24 69 15 81 b 30 148 15 111 20 127 b 56 181 40 170 49 181 b 58 178 57 181 58 180 l 58 174 b 58 173 58 174 58 173 b 61 180 60 175 61 177 b 71 170 67 176 71 172 b 56 133 71 165 66 153 b 36 85 49 117 42 100 b 28 69 33 75 30 69 z m 63 78 b 62 79 62 78 62 78 b 83 134 62 81 69 99 b 77 106 83 124 81 115 b 63 78 68 87 64 78 z "},"":{"ha":347,"x_min":0,"x_max":0,"o":"m 124 231 b 136 238 132 231 136 233 b 125 250 136 241 132 245 b 121 260 123 253 121 256 b 123 277 121 262 123 266 b 106 295 123 289 118 295 b 87 278 94 295 87 290 l 87 277 b 117 231 92 244 110 231 z m 223 -141 b 358 68 267 -141 313 -71 l 358 69 b 350 76 358 74 355 76 b 346 71 348 75 347 74 b 305 -52 337 22 323 -19 b 260 -110 287 -85 272 -104 b 238 -117 249 -115 241 -117 b 210 -87 226 -117 216 -107 b 203 -37 205 -75 203 -58 b 226 132 203 7 211 63 b 234 189 231 154 234 173 b 219 212 234 200 228 212 b 197 191 212 212 205 205 b 181 149 193 182 187 168 b 105 38 160 110 135 73 b 56 -1 84 12 68 -1 b 39 58 45 -1 39 19 b 58 148 39 85 45 116 b 66 178 63 162 66 172 b 56 197 66 186 62 193 b 45 199 53 199 50 199 b 7 163 30 199 17 187 b -7 84 -2 143 -7 117 b 24 -19 -7 33 3 -2 b 48 -28 31 -25 39 -28 b 97 -2 63 -28 79 -20 b 167 91 125 28 148 60 b 158 4 161 60 158 31 b 163 -52 158 -16 159 -34 b 223 -141 173 -111 193 -140 z "},"":{"ha":347,"x_min":0,"x_max":0,"o":"m 109 231 b 142 248 121 231 132 237 b 152 277 149 256 152 266 b 133 302 152 294 146 302 b 115 282 121 300 115 293 l 116 271 b 105 247 116 262 113 254 b 99 236 101 242 99 239 b 109 231 99 233 102 231 z m 223 -141 b 358 68 267 -141 313 -71 l 358 69 b 350 76 358 74 355 76 b 346 71 348 75 347 74 b 305 -52 337 22 323 -19 b 260 -110 287 -85 272 -104 b 238 -117 249 -115 241 -117 b 210 -87 226 -117 216 -107 b 203 -37 205 -75 203 -58 b 226 132 203 7 211 63 b 234 189 231 154 234 173 b 219 212 234 200 228 212 b 197 191 212 212 205 205 b 181 149 193 182 187 168 b 105 38 160 110 135 73 b 56 -1 84 12 68 -1 b 39 58 45 -1 39 19 b 58 148 39 85 45 116 b 66 178 63 162 66 172 b 56 197 66 186 62 193 b 45 199 53 199 50 199 b 7 163 30 199 17 187 b -7 84 -2 143 -7 117 b 24 -19 -7 33 3 -2 b 48 -28 31 -25 39 -28 b 97 -2 63 -28 79 -20 b 167 91 125 28 148 60 b 158 4 161 60 158 31 b 163 -52 158 -16 159 -34 b 223 -141 173 -111 193 -140 z "},"":{"ha":347,"x_min":0,"x_max":0,"o":"m 99 222 b 115 231 105 222 110 225 b 128 256 122 242 127 250 l 129 257 b 135 252 130 257 132 254 b 157 239 145 243 152 239 b 165 247 162 239 165 242 b 138 270 165 253 149 257 b 134 277 136 272 135 275 b 127 284 134 282 131 284 b 110 275 122 284 117 281 b 85 235 94 261 85 248 b 99 222 85 227 94 222 z m 223 -141 b 358 68 267 -141 313 -71 l 358 69 b 350 76 358 74 355 76 b 346 71 348 75 347 74 b 305 -52 337 22 323 -19 b 260 -110 287 -85 272 -104 b 238 -117 249 -115 241 -117 b 210 -87 226 -117 216 -107 b 203 -37 205 -75 203 -58 b 226 132 203 7 211 63 b 234 189 231 154 234 173 b 219 212 234 200 228 212 b 197 191 212 212 205 205 b 181 149 193 182 187 168 b 105 38 160 110 135 73 b 56 -1 84 12 68 -1 b 39 58 45 -1 39 19 b 58 148 39 85 45 116 b 66 178 63 162 66 172 b 56 197 66 186 62 193 b 45 199 53 199 50 199 b 7 163 30 199 17 187 b -7 84 -2 143 -7 117 b 24 -19 -7 33 3 -2 b 48 -28 31 -25 39 -28 b 97 -2 63 -28 79 -20 b 167 91 125 28 148 60 b 158 4 161 60 158 31 b 163 -52 158 -16 159 -34 b 223 -141 173 -111 193 -140 z "},"":{"ha":347,"x_min":0,"x_max":0,"o":"m 156 237 b 180 256 172 237 180 243 b 170 277 180 266 177 273 b 161 280 167 279 163 280 b 149 275 158 280 154 279 b 136 255 140 268 136 261 l 138 250 b 156 237 140 241 146 237 z m 96 229 b 125 259 113 229 125 241 b 104 279 124 273 117 279 b 75 244 91 279 75 272 b 95 229 80 234 87 229 z m 223 -141 b 358 68 267 -141 313 -71 l 358 69 b 350 76 358 74 355 76 b 346 71 348 75 347 74 b 305 -52 337 22 323 -19 b 260 -110 287 -85 272 -104 b 238 -117 249 -115 241 -117 b 210 -87 226 -117 216 -107 b 203 -37 205 -75 203 -58 b 226 132 203 7 211 63 b 234 189 231 154 234 173 b 219 212 234 200 228 212 b 197 191 212 212 205 205 b 181 149 193 182 187 168 b 105 38 160 110 135 73 b 56 -1 84 12 68 -1 b 39 58 45 -1 39 19 b 58 148 39 85 45 116 b 66 178 63 162 66 172 b 56 197 66 186 62 193 b 45 199 53 199 50 199 b 7 163 30 199 17 187 b -7 84 -2 143 -7 117 b 24 -19 -7 33 3 -2 b 48 -28 31 -25 39 -28 b 97 -2 63 -28 79 -20 b 167 91 125 28 148 60 b 158 4 161 60 158 31 b 163 -52 158 -16 159 -34 b 223 -141 173 -111 193 -140 z "},"":{"ha":368,"x_min":0,"x_max":0,"o":"m 125 222 b 159 240 137 222 149 229 b 168 269 165 248 168 258 b 149 294 168 286 162 294 b 132 274 138 292 132 285 l 132 262 b 121 239 132 254 129 246 b 115 228 117 234 115 231 b 125 222 115 224 119 222 z m 119 -421 b 222 -349 152 -421 186 -397 b 302 -87 259 -297 286 -210 b 309 -7 307 -51 309 -24 b 324 43 309 22 311 34 b 374 66 333 49 349 56 b 378 71 376 68 378 69 b 369 80 378 77 375 80 b 311 51 363 80 344 71 b 302 153 311 93 308 127 b 257 203 295 186 279 203 b 236 195 250 203 242 201 b 199 149 227 186 214 172 b 107 31 172 106 140 66 b 61 -1 86 9 71 -1 b 41 53 47 -1 41 17 b 54 141 41 83 45 113 l 60 154 b 62 163 61 157 62 161 b 60 176 62 167 61 171 b 37 193 54 195 42 193 b -1 140 19 193 6 175 b -8 77 -6 118 -8 97 b 12 -9 -8 40 -1 12 b 52 -34 22 -26 35 -34 b 123 13 73 -34 96 -18 b 184 91 144 38 165 64 b 238 157 212 130 231 152 b 248 163 243 161 245 163 b 254 134 252 163 254 153 l 256 94 b 258 37 257 76 258 57 l 258 18 b 71 -174 159 -54 97 -118 b 30 -309 43 -229 30 -274 b 36 -351 30 -323 32 -338 b 119 -421 47 -395 75 -419 z m 108 -380 b 93 -378 103 -380 98 -380 b 56 -335 71 -370 58 -355 b 54 -298 54 -314 54 -302 b 95 -172 54 -263 67 -221 b 258 -2 125 -118 180 -61 b 238 -168 256 -58 249 -113 b 173 -338 219 -252 197 -309 b 108 -380 148 -366 126 -380 z "},"":{"ha":365,"x_min":0,"x_max":0,"o":"m -70 -441 b -56 -431 -63 -441 -58 -438 b 47 -93 -5 -271 30 -159 b 83 24 60 -46 72 -7 b 127 127 94 56 109 90 b 224 241 168 203 199 241 b 250 195 237 241 246 226 l 251 170 b 236 65 251 135 246 100 l 218 66 b 106 38 164 66 127 56 b 80 -14 89 22 80 5 b 82 -31 80 -20 81 -25 b 156 -94 90 -67 115 -88 b 281 53 208 -94 250 -45 l 304 52 b 362 61 331 52 351 55 b 374 73 370 64 374 68 b 370 77 374 76 372 77 l 366 76 b 297 61 343 66 321 61 l 283 62 b 297 159 292 99 297 132 b 290 213 297 180 294 198 b 229 272 278 248 258 268 b 168 230 207 272 186 258 b 72 45 124 160 92 98 b 18 -124 52 -9 34 -65 b -39 -311 4 -176 -15 -239 b -3 -125 -31 -261 -19 -199 b 238 541 38 60 118 283 b 251 564 247 548 251 555 b 229 587 251 576 243 587 b 18 148 207 587 136 441 b -37 -44 -3 95 -22 31 b -73 -257 -53 -119 -65 -190 b -85 -416 -81 -324 -85 -377 b -70 -441 -85 -442 -75 -441 z m 138 -60 b 110 -38 121 -56 112 -49 b 107 -17 108 -26 107 -20 b 132 31 107 0 115 16 b 227 56 149 47 181 56 l 233 56 b 195 -25 224 26 212 -1 b 144 -61 176 -49 159 -61 z "},"":{"ha":368,"x_min":0,"x_max":0,"o":"m 176 229 b 201 248 193 229 201 235 b 191 269 201 258 197 265 b 182 272 187 271 184 272 b 170 267 178 272 174 271 b 157 247 161 260 157 253 l 158 241 b 176 229 161 233 167 229 z m 117 220 b 146 251 133 220 146 233 b 124 271 144 264 137 271 b 96 236 111 271 96 264 b 115 220 100 226 107 220 z m 119 -421 b 222 -349 152 -421 186 -397 b 302 -87 259 -297 286 -210 b 309 -7 307 -51 309 -24 b 324 43 309 22 311 34 b 374 66 333 49 349 56 b 378 71 376 68 378 69 b 369 80 378 77 375 80 b 311 51 363 80 344 71 b 302 153 311 93 308 127 b 257 203 295 186 279 203 b 236 195 250 203 242 201 b 199 149 227 186 214 172 b 107 31 172 106 140 66 b 61 -1 86 9 71 -1 b 41 53 47 -1 41 17 b 54 141 41 83 45 113 l 60 154 b 62 163 61 157 62 161 b 60 176 62 167 61 171 b 37 193 54 195 42 193 b -1 140 19 193 6 175 b -8 77 -6 118 -8 97 b 12 -9 -8 40 -1 12 b 52 -34 22 -26 35 -34 b 123 13 73 -34 96 -18 b 184 91 144 38 165 64 b 238 157 212 130 231 152 b 248 163 243 161 245 163 b 254 134 252 163 254 153 l 256 94 b 258 37 257 76 258 57 l 258 18 b 71 -174 159 -54 97 -118 b 30 -309 43 -229 30 -274 b 36 -351 30 -323 32 -338 b 119 -421 47 -395 75 -419 z m 108 -380 b 93 -378 103 -380 98 -380 b 56 -335 71 -370 58 -355 b 54 -298 54 -314 54 -302 b 95 -172 54 -263 67 -221 b 258 -2 125 -118 180 -61 b 238 -168 256 -58 249 -113 b 173 -338 219 -252 197 -309 b 108 -380 148 -366 126 -380 z "},"":{"ha":176,"x_min":0,"x_max":0,"o":"m 56 -41 b 88 -33 65 -41 76 -39 b 186 70 115 -20 147 14 b 188 74 187 71 188 73 b 181 80 188 77 186 79 b 176 77 179 80 177 79 b 130 17 165 58 149 38 b 70 -24 104 -10 84 -24 b 41 47 51 -24 41 0 b 43 85 41 59 42 72 b 54 157 46 114 50 138 b 60 162 55 157 55 156 b 67 183 64 170 67 176 b 65 193 67 186 66 189 b 43 209 60 203 54 209 b -4 126 20 209 5 181 b -7 87 -6 113 -7 100 b -3 39 -7 71 -5 55 b 56 -41 6 -20 33 -41 z "},"":{"ha":117,"x_min":0,"x_max":0,"o":"m 37 777 b 49 785 45 777 49 780 b 39 797 49 788 45 792 b 35 806 36 800 35 803 b 37 823 35 809 37 812 b 20 842 37 836 31 842 b 0 825 7 842 0 836 l 0 823 b 31 777 5 791 23 777 z "},"":{"ha":121,"x_min":0,"x_max":0,"o":"m 9 775 b 43 793 22 775 33 781 b 53 822 50 800 53 810 b 34 846 53 838 47 846 b 16 827 22 844 16 838 l 17 815 b 6 791 17 806 14 799 b 0 781 2 787 0 783 b 9 775 0 777 3 775 z "},"":{"ha":147,"x_min":0,"x_max":0,"o":"m 14 764 b 29 773 20 764 24 767 b 43 798 37 784 41 792 l 43 799 b 50 793 44 799 46 796 b 71 781 60 785 66 781 b 79 789 77 781 79 784 b 53 812 79 795 64 799 b 49 819 51 814 50 817 b 41 826 48 824 45 826 b 24 817 37 826 31 823 b 0 777 8 803 0 789 b 14 764 0 769 8 764 z "},"":{"ha":184,"x_min":0,"x_max":0,"o":"m 24 779 b 37 789 29 779 34 783 b 44 802 41 796 43 800 b 45 805 45 804 45 805 l 45 806 b 50 806 47 806 48 806 b 68 801 52 806 58 804 b 96 795 77 798 87 795 b 115 811 103 795 110 801 l 116 814 b 106 821 116 819 113 821 b 101 815 103 820 102 819 b 92 808 100 810 97 808 b 64 819 87 808 78 811 b 33 829 50 825 40 829 b 22 826 29 829 26 828 l 21 825 l 22 827 l 21 826 b 1 812 9 821 2 817 b 0 801 1 807 0 803 b 5 789 0 796 1 792 b 17 779 9 783 14 780 z "},"":{"ha":0,"x_min":0,"x_max":0,"o":"m -472 434 b -382 448 -460 434 -448 445 l -357 448 b -296 451 -322 448 -302 449 b -288 458 -291 453 -288 456 b -316 473 -288 467 -298 471 l -355 476 b -451 484 -396 478 -429 481 b -479 486 -460 485 -469 486 b -502 463 -495 486 -502 473 b -472 434 -502 444 -483 434 z "},"":{"ha":119,"x_min":0,"x_max":0,"o":"m 24 20 b 40 25 30 20 35 22 b 51 46 47 30 50 37 b 25 71 50 63 42 71 b 10 67 20 71 15 70 b 0 47 3 63 0 56 l 1 39 b 24 20 7 19 20 20 z "},"":{"ha":173,"x_min":0,"x_max":0,"o":"m 81 803 b 105 822 97 803 105 809 b 95 844 105 832 102 840 b 86 846 92 846 88 846 b 74 842 83 846 79 845 b 61 821 65 834 61 827 l 62 816 b 81 803 65 808 71 804 z m 21 795 b 50 825 37 795 50 807 b 28 846 49 839 41 846 b 0 810 16 846 0 838 b 20 795 5 800 12 795 z "},"":{"ha":138,"x_min":0,"x_max":0,"o":"m 34 771 b 70 808 53 771 70 789 b 58 835 70 818 66 827 b 39 843 50 840 44 843 l 31 844 b 2 829 17 844 5 837 b 0 811 1 823 0 817 b 6 787 0 802 2 793 b 34 771 14 777 22 771 z m 41 788 b 38 789 41 788 39 788 b 29 804 32 792 29 797 b 47 824 29 814 34 824 b 58 811 54 823 58 819 b 41 788 58 802 51 788 z "},"":{"ha":147,"x_min":0,"x_max":0,"o":"m 66 826 b 50 817 60 826 55 823 b 37 793 43 806 38 798 l 36 791 b 30 797 35 791 35 793 b 8 809 20 805 13 809 b 0 801 3 808 0 806 b 26 778 0 795 16 791 b 31 771 28 776 30 773 b 38 764 31 766 34 764 b 55 773 43 764 49 767 b 79 812 71 787 79 801 b 66 826 79 821 71 826 z "},"":{"ha":171,"x_min":0,"x_max":0,"o":"m 38 -145 b 66 -139 47 -145 57 -143 b 98 -113 85 -130 96 -121 b 100 -96 100 -103 100 -98 b 60 -52 100 -81 87 -66 b 54 -35 56 -50 54 -43 l 54 -22 b 37 2 54 -8 48 0 l 34 2 b 12 -33 20 2 12 -9 b 30 -68 12 -50 18 -62 b 65 -85 48 -79 65 -82 b 12 -100 65 -90 47 -95 b -3 -120 2 -102 -3 -109 b 7 -138 -3 -127 1 -133 b 38 -145 17 -142 28 -145 z "},"":{"ha":267,"x_min":0,"x_max":0,"o":"m 22 297 b 54 300 29 297 40 298 b 167 309 85 307 123 309 b 199 330 189 309 199 316 b 149 351 199 342 182 349 b 107 353 133 352 119 353 b 39 349 91 353 68 351 l 22 347 b 0 323 7 344 0 336 l 1 315 b 12 298 3 304 7 299 b 22 297 16 298 20 297 z "},"":{"ha":468,"x_min":0,"x_max":0,"o":"m 44 297 b 108 300 60 297 81 298 b 335 309 171 307 246 309 b 400 330 378 309 400 316 b 299 351 400 342 366 349 b 215 353 267 352 239 353 b 78 349 182 353 137 351 l 45 347 b 0 323 15 344 0 336 l 2 315 b 23 298 6 304 13 299 b 44 297 33 298 39 297 z "},"":{"ha":124,"x_min":0,"x_max":0,"o":"m 43 466 b 56 475 52 466 56 469 b 49 486 56 481 54 484 b 41 496 43 486 41 490 b 45 517 41 502 42 509 b 50 547 48 524 50 534 b 46 566 50 553 48 559 b 25 581 43 576 35 581 b 0 537 8 581 0 566 b 12 486 0 519 4 502 b 43 466 20 473 30 466 z "},"":{"ha":124,"x_min":0,"x_max":0,"o":"m 13 466 b 44 486 26 466 37 473 b 56 537 52 502 56 519 b 31 581 56 566 48 581 b 10 566 21 581 14 576 b 7 547 8 559 7 553 b 12 517 7 534 8 524 b 16 496 14 509 16 502 b 8 486 16 490 13 486 b 0 475 3 484 0 481 b 13 466 0 469 4 466 z "},"":{"ha":124,"x_min":0,"x_max":0,"o":"m 13 -58 b 44 -37 26 -58 37 -51 b 56 14 52 -22 56 -5 b 31 58 56 43 48 58 b 10 43 21 58 14 53 b 7 24 8 35 7 29 b 12 -6 7 11 8 1 b 16 -28 14 -15 16 -22 b 8 -39 16 -34 13 -37 b 0 -48 3 -39 0 -43 b 13 -58 0 -54 4 -58 z "},"":{"ha":203,"x_min":0,"x_max":0,"o":"m 43 466 b 56 475 52 466 56 469 b 49 486 56 481 54 484 b 41 496 43 486 41 490 b 45 517 41 502 42 509 b 50 547 48 524 50 534 b 46 566 50 553 48 559 b 25 581 43 576 35 581 b 0 537 8 581 0 566 b 12 486 0 519 4 502 b 43 466 20 473 30 466 z m 122 466 b 135 475 131 466 135 469 b 127 486 135 481 132 484 b 119 496 122 486 119 490 b 123 517 119 502 121 509 b 128 547 127 524 128 534 b 125 566 128 553 127 559 b 104 581 121 576 114 581 b 79 537 87 581 79 566 b 91 486 79 519 83 502 b 122 466 98 473 109 466 z "},"":{"ha":203,"x_min":0,"x_max":0,"o":"m 13 466 b 44 486 26 466 37 473 b 56 537 52 502 56 519 b 31 581 56 566 48 581 b 10 566 21 581 14 576 b 7 547 8 559 7 553 b 12 517 7 534 8 524 b 16 496 14 509 16 502 b 8 486 16 490 13 486 b 0 475 3 484 0 481 b 13 466 0 469 4 466 z m 92 466 b 123 486 105 466 115 473 b 135 537 131 502 135 519 b 110 581 135 566 127 581 b 89 566 100 581 92 576 b 85 547 87 559 85 553 b 90 517 85 534 87 524 b 94 496 93 509 94 502 b 87 486 94 490 92 486 b 79 475 81 484 79 481 b 92 466 79 469 83 466 z "},"":{"ha":203,"x_min":0,"x_max":0,"o":"m 13 -58 b 44 -37 26 -58 37 -51 b 56 14 52 -22 56 -5 b 31 58 56 43 48 58 b 10 43 21 58 14 53 b 7 24 8 35 7 29 b 12 -6 7 11 8 1 b 16 -28 14 -15 16 -22 b 8 -39 16 -34 13 -37 b 0 -48 3 -39 0 -43 b 13 -58 0 -54 4 -58 z m 92 -58 b 123 -37 105 -58 115 -51 b 135 14 131 -22 135 -5 b 110 58 135 43 127 58 b 89 43 100 58 92 53 b 85 24 87 35 85 29 b 90 -6 85 11 87 1 b 94 -28 93 -15 94 -22 b 87 -39 94 -34 92 -37 b 79 -48 81 -39 79 -43 b 92 -58 79 -54 83 -58 z "},"":{"ha":356,"x_min":0,"x_max":0,"o":"m 280 380 b 288 389 286 380 288 384 b 281 398 288 394 286 397 b 168 406 263 401 225 404 l 167 490 b 166 502 166 493 166 497 b 157 575 166 541 163 565 b 142 586 153 583 148 586 b 121 573 132 586 125 582 b 114 497 116 564 114 538 b 116 408 114 483 115 453 b 54 409 90 408 70 409 b 18 406 31 409 18 408 b 0 386 6 405 0 398 b 24 367 0 373 8 367 b 117 370 39 367 70 368 b 118 334 117 359 117 347 b 129 -51 125 123 129 -5 b 140 -173 129 -129 133 -170 b 151 -176 145 -175 149 -176 b 170 -158 163 -176 169 -170 l 168 373 z "},"":{"ha":357,"x_min":0,"x_max":0,"o":"m 151 -176 b 170 -158 163 -176 169 -170 l 169 59 l 281 67 b 290 77 287 68 290 72 b 282 85 290 82 287 85 b 169 92 264 88 227 90 l 168 373 l 280 380 b 288 389 286 380 288 384 b 281 398 288 394 286 397 b 168 406 263 401 225 404 l 167 490 b 166 502 166 493 166 497 b 157 575 166 541 163 565 b 142 586 153 583 148 586 b 121 573 132 586 125 582 b 114 497 116 564 114 538 b 116 408 114 483 115 453 b 54 409 90 408 70 409 b 18 406 31 409 18 408 b 0 386 6 405 0 398 b 24 367 0 373 8 367 b 117 370 39 367 70 368 b 125 93 119 321 121 228 l 64 94 b 18 91 35 94 19 93 b 1 71 7 89 1 83 b 24 52 1 58 9 52 b 127 56 40 52 75 53 b 129 -51 128 5 129 -31 b 140 -173 129 -129 133 -170 b 151 -176 145 -175 149 -176 z "},"":{"ha":239,"x_min":0,"x_max":0,"o":"m 48 435 b 86 451 62 435 75 440 b 104 490 98 462 104 475 b 62 537 104 508 90 524 l 51 538 b 0 481 17 538 0 519 l 0 474 b 31 436 11 450 21 437 b 48 435 40 435 46 435 z "},"":{"ha":1114,"x_min":0,"x_max":0,"o":"m 24 -99 b 52 -71 38 -99 52 -87 b 31 -47 52 -62 45 -54 l 26 -47 b 0 -75 9 -47 0 -57 l 0 -79 b 16 -98 5 -92 11 -98 b 24 -99 20 -99 23 -99 z m 951 -99 b 979 -71 964 -99 979 -87 b 958 -47 979 -62 972 -54 l 952 -47 b 926 -75 935 -47 926 -57 l 926 -79 b 942 -98 932 -92 937 -98 b 951 -99 947 -99 949 -99 z m 488 -99 b 515 -71 501 -99 515 -87 b 494 -47 515 -62 509 -54 l 489 -47 b 463 -75 472 -47 463 -57 l 463 -79 b 479 -98 469 -92 474 -98 b 488 -99 484 -99 486 -99 z "},"":{"ha":262,"x_min":0,"x_max":0,"o":"m 176 -58 b 191 -50 184 -58 189 -55 b 195 -41 193 -46 195 -43 b 149 18 195 -31 179 -12 b 71 76 115 50 90 68 b 62 81 65 78 62 79 b 75 93 62 83 66 87 b 144 159 86 102 110 123 b 163 180 148 161 155 171 b 178 199 173 191 178 197 b 178 203 178 201 178 202 b 166 217 178 210 174 215 l 164 217 b 115 190 154 217 137 208 b 44 125 90 170 66 149 b 0 70 15 95 0 77 b 12 56 0 61 4 56 b 47 65 18 56 28 65 b 132 -9 65 65 94 41 b 176 -58 153 -41 168 -58 z "},"":{"ha":262,"x_min":0,"x_max":0,"o":"m 18 -58 b 62 -9 27 -58 42 -41 b 149 65 101 41 130 65 b 183 56 165 65 178 56 b 195 70 191 56 195 61 b 151 125 195 77 180 95 b 80 190 128 149 104 170 b 31 217 58 208 41 217 l 28 217 b 17 203 21 215 17 210 b 17 199 17 202 17 201 b 32 180 17 197 22 191 b 50 159 39 171 47 161 b 120 93 85 123 109 102 b 132 81 128 87 132 83 b 124 76 132 79 130 78 b 46 18 105 68 79 50 b 0 -41 16 -12 0 -31 b 3 -50 0 -43 1 -46 b 18 -58 6 -55 11 -58 z "},"":{"ha":419,"x_min":0,"x_max":0,"o":"m 14 -146 b 36 -115 20 -146 27 -136 l 47 -85 b 279 446 74 -9 151 168 l 338 574 b 351 617 347 595 351 609 b 347 629 351 621 350 625 b 330 639 342 635 337 639 b 311 628 323 639 317 635 b 137 229 282 585 224 452 b 0 -133 45 -3 0 -124 b 14 -146 0 -140 5 -146 z "},"":{"ha":716,"x_min":0,"x_max":0,"o":"m 493 -66 b 526 -65 503 -65 515 -65 b 559 -50 548 -65 559 -60 b 508 -33 559 -41 542 -35 l 503 -33 b 539 89 513 5 526 45 b 567 90 549 89 559 90 b 582 100 577 91 582 94 b 557 111 582 107 574 111 l 548 111 l 548 112 b 561 157 548 116 552 131 b 648 576 619 330 648 469 b 626 707 648 630 641 674 b 468 811 602 770 549 805 b 348 783 431 811 391 802 b 177 667 288 758 231 719 b 48 484 123 614 80 553 b 0 279 16 412 0 344 b 102 136 0 189 34 141 b 152 157 122 136 138 143 b 169 185 163 170 169 179 b 168 186 169 186 169 186 b 165 184 168 186 167 186 b 132 170 156 174 145 170 b 78 195 113 170 95 178 b 52 256 64 209 55 229 l 51 286 b 101 498 51 361 68 432 b 248 686 139 573 188 635 b 394 775 307 736 355 766 b 474 789 432 784 458 789 b 570 751 511 789 543 777 b 616 600 601 722 616 672 b 572 343 616 532 602 446 b 505 134 551 269 528 200 l 498 113 b 379 108 435 113 395 111 b 358 85 365 103 358 96 b 364 72 358 81 360 77 b 371 68 366 70 368 68 b 397 73 376 68 383 73 l 410 72 b 412 73 411 72 412 73 l 411 75 b 400 79 404 77 400 79 b 472 85 400 81 424 83 b 487 86 479 85 484 86 b 489 85 488 86 489 85 l 487 78 b 452 -32 474 38 463 1 b 397 -35 438 -33 420 -33 l 381 -37 b 358 -56 366 -39 358 -45 l 359 -61 b 380 -75 363 -77 375 -75 b 412 -72 388 -75 399 -74 b 442 -68 422 -71 432 -69 b 426 -138 436 -94 431 -117 b 406 -258 413 -197 406 -237 b 404 -300 405 -279 404 -294 b 453 -406 404 -370 420 -406 l 457 -405 b 471 -393 467 -403 471 -399 b 462 -386 471 -390 468 -388 b 441 -334 448 -381 441 -363 b 493 -66 441 -279 458 -189 z "}}}
